  0
SECTION
  2
HEADER
  9
$ACADVER
  1
AC1014
  9
$HANDSEED
  5
FFFF
  9
$MEASUREMENT
 70
     1
  0
ENDSEC
  0
SECTION
  2
TABLES
  0
TABLE
  2
VPORT
  5
8
330
0
100
AcDbSymbolTable
 70
     4
  0
VPORT
  5
2E
330
8
100
AcDbSymbolTableRecord
100
AcDbViewportTableRecord
  2
*ACTIVE
 70
     0
 10
0.0
 20
0.0
 11
1.0
 21
1.0
 12
210.0
 22
148.5
 13
0.0
 23
0.0
 14
10.0
 24
10.0
 15
10.0
 25
10.0
 16
0.0
 26
0.0
 36
1.0
 17
0.0
 27
0.0
 37
0.0
 40
341.0
 41
1.24
 42
50.0
 43
0.0
 44
0.0
 50
0.0
 51
0.0
 71
     0
 72
   100
 73
     1
 74
     3
 75
     0
 76
     0
 77
     0
 78
     0
  0
ENDTAB
  0
TABLE
  2
LTYPE
  5
5
330
0
100
AcDbSymbolTable
 70
     1
  0
LTYPE
  5
14
330
5
100
AcDbSymbolTableRecord
100
AcDbLinetypeTableRecord
  2
BYBLOCK
 70
     0
  3

 72
    65
 73
     0
 40
0.0
  0
LTYPE
  5
15
330
5
100
AcDbSymbolTableRecord
100
AcDbLinetypeTableRecord
  2
BYLAYER
 70
     0
  3

 72
    65
 73
     0
 40
0.0
  0
LTYPE
  5
16
330
5
100
AcDbSymbolTableRecord
100
AcDbLinetypeTableRecord
  2
CONTINUOUS
 70
     0
  3
Solid line
 72
    65
 73
     0
 40
0.0
  0
ENDTAB
  0
TABLE
  2
LAYER
  5
2
100
AcDbSymbolTable
 70
3
  0
LAYER
  5
50
100
AcDbSymbolTableRecord
100
AcDbLayerTableRecord
  2
0
 70
0
  6
CONTINUOUS
  0
LAYER
  5
51
100
AcDbSymbolTableRecord
100
AcDbLayerTableRecord
  2
Laag_1
 70
0
  6
CONTINUOUS
  0
LAYER
  5
52
100
AcDbSymbolTableRecord
100
AcDbLayerTableRecord
  2
newlayer
 70
0
  6
CONTINUOUS
  0
ENDTAB
  0
TABLE
  2
STYLE
  5
3
330
0
100
AcDbSymbolTable
 70
     1
  0
STYLE
  5
11
330
3
100
AcDbSymbolTableRecord
100
AcDbTextStyleTableRecord
  2
STANDARD
 70
     0
 40
0.0
 41
1.0
 50
0.0
 71
     0
 42
2.5
  3
txt
  4

  0
ENDTAB
  0
TABLE
  2
VIEW
  5
6
330
0
100
AcDbSymbolTable
 70
     0
  0
ENDTAB
  0
TABLE
  2
UCS
  5
7
330
0
100
AcDbSymbolTable
 70
     0
  0
ENDTAB
  0
TABLE
  2
APPID
  5
9
330
0
100
AcDbSymbolTable
 70
     2
  0
APPID
  5
12
330
9
100
AcDbSymbolTableRecord
100
AcDbRegAppTableRecord
  2
ACAD
 70
     0
  0
ENDTAB
  0
TABLE
  2
DIMSTYLE
  5
A
330
0
100
AcDbSymbolTable
 70
     1
  0
DIMSTYLE
105
27
330
A
100
AcDbSymbolTableRecord
100
AcDbDimStyleTableRecord
  2
ISO-25
 70
     0
  3

  4

  5

  6

  7

 40
1.0
 41
2.5
 42
0.625
 43
3.75
 44
1.25
 45
0.0
 46
0.0
 47
0.0
 48
0.0
140
2.5
141
2.5
142
0.0
143
0.03937007874016
144
1.0
145
0.0
146
1.0
147
0.625
 71
     0
 72
     0
 73
     0
 74
     0
 75
     0
 76
     0
 77
     1
 78
     8
170
     0
171
     3
172
     1
173
     0
174
     0
175
     0
176
     0
177
     0
178
     0
270
     2
271
     2
272
     2
273
     2
274
     3
340
11
275
     0
280
     0
281
     0
282
     0
283
     0
284
     8
285
     0
286
     0
287
     3
288
     0
  0
ENDTAB
  0
TABLE
  2
BLOCK_RECORD
  5
1
330
0
100
AcDbSymbolTable
 70
     1
  0
BLOCK_RECORD
  5
1F
330
1
100
AcDbSymbolTableRecord
100
AcDbBlockTableRecord
  2
*MODEL_SPACE
  0
BLOCK_RECORD
  5
1B
330
1
100
AcDbSymbolTableRecord
100
AcDbBlockTableRecord
  2
*PAPER_SPACE
  0
ENDTAB
  0
ENDSEC
  0
SECTION
  2
BLOCKS
  0
BLOCK
  5
20
330
1F
100
AcDbEntity
  8
0
100
AcDbBlockBegin
  2
*MODEL_SPACE
 70
     0
 10
0.0
 20
0.0
 30
0.0
  3
*MODEL_SPACE
  1

  0
ENDBLK
  5
21
330
1F
100
AcDbEntity
  8
0
100
AcDbBlockEnd
  0
BLOCK
  5
1C
330
1B
100
AcDbEntity
 67
     1
  8
0
100
AcDbBlockBegin
  2
*PAPER_SPACE
  1

  0
ENDBLK
  5
1D
330
1B
100
AcDbEntity
 67
     1
  8
0
100
AcDbBlockEnd
  0
ENDSEC
  0
SECTION
  2
ENTITIES
  0
LINE
  5
100
100
AcDbEntity
  8
newlayer
 62
7
100
AcDbLine
 10
2.611967
 20
281.373388
 30
0.0
 11
483.487109
 21
281.458337
 31
0.0
  0
SPLINE
  5
101
100
AcDbEntity
  8
newlayer
 62
7
100
AcDbSpline
 70
8
 71
3
 72
8
 73
4
 74
0
 40
0
 40
0
 40
0
 40
0
 40
1
 40
1
 40
1
 40
1
 10
578.667570
 20
282.215009
 30
0.0
 10
578.667570
 20
281.790943
 30
0.0
 10
578.443316
 20
281.398553
 30
0.0
 10
578.076258
 20
281.186157
 30
0.0
  0
SPLINE
  5
102
100
AcDbEntity
  8
newlayer
 62
7
100
AcDbSpline
 70
8
 71
3
 72
8
 73
4
 74
0
 40
0
 40
0
 40
0
 40
0
 40
1
 40
1
 40
1
 40
1
 10
578.076258
 20
281.186157
 30
0.0
 10
577.709228
 20
280.973761
 30
0.0
 10
577.256628
 20
280.973761
 30
0.0
 10
576.889598
 20
281.186157
 30
0.0
  0
SPLINE
  5
103
100
AcDbEntity
  8
newlayer
 62
7
100
AcDbSpline
 70
8
 71
3
 72
8
 73
4
 74
0
 40
0
 40
0
 40
0
 40
0
 40
1
 40
1
 40
1
 40
1
 10
576.889598
 20
281.186157
 30
0.0
 10
576.522540
 20
281.398553
 30
0.0
 10
576.297044
 20
281.790943
 30
0.0
 10
576.298286
 20
282.215009
 30
0.0
  0
SPLINE
  5
104
100
AcDbEntity
  8
newlayer
 62
7
100
AcDbSpline
 70
8
 71
3
 72
8
 73
4
 74
0
 40
0
 40
0
 40
0
 40
0
 40
1
 40
1
 40
1
 40
1
 10
576.298286
 20
282.215009
 30
0.0
 10
576.298286
 20
282.639074
 30
0.0
 10
576.522540
 20
283.031464
 30
0.0
 10
576.889598
 20
283.243860
 30
0.0
  0
SPLINE
  5
105
100
AcDbEntity
  8
newlayer
 62
7
100
AcDbSpline
 70
8
 71
3
 72
8
 73
4
 74
0
 40
0
 40
0
 40
0
 40
0
 40
1
 40
1
 40
1
 40
1
 10
576.889598
 20
283.243860
 30
0.0
 10
577.256628
 20
283.456256
 30
0.0
 10
577.709228
 20
283.456256
 30
0.0
 10
578.076258
 20
283.243860
 30
0.0
  0
SPLINE
  5
106
100
AcDbEntity
  8
newlayer
 62
7
100
AcDbSpline
 70
8
 71
3
 72
8
 73
4
 74
0
 40
0
 40
0
 40
0
 40
0
 40
1
 40
1
 40
1
 40
1
 10
578.076258
 20
283.243860
 30
0.0
 10
578.443316
 20
283.031464
 30
0.0
 10
578.668811
 20
282.639074
 30
0.0
 10
578.667570
 20
282.215009
 30
0.0
  0
LINE
  5
107
100
AcDbEntity
  8
newlayer
 62
7
100
AcDbLine
 10
578.667570
 20
282.215009
 30
0.0
 11
578.667570
 21
282.215009
 31
0.0
  0
SPLINE
  5
108
100
AcDbEntity
  8
newlayer
 62
7
100
AcDbSpline
 70
8
 71
3
 72
8
 73
4
 74
0
 40
0
 40
0
 40
0
 40
0
 40
1
 40
1
 40
1
 40
1
 10
578.699432
 20
189.441509
 30
0.0
 10
578.699432
 20
189.017444
 30
0.0
 10
578.475179
 20
188.625054
 30
0.0
 10
578.108120
 20
188.412656
 30
0.0
  0
SPLINE
  5
109
100
AcDbEntity
  8
newlayer
 62
7
100
AcDbSpline
 70
8
 71
3
 72
8
 73
4
 74
0
 40
0
 40
0
 40
0
 40
0
 40
1
 40
1
 40
1
 40
1
 10
578.108120
 20
188.412656
 30
0.0
 10
577.741090
 20
188.200261
 30
0.0
 10
577.288491
 20
188.200261
 30
0.0
 10
576.921461
 20
188.412656
 30
0.0
  0
SPLINE
  5
10a
100
AcDbEntity
  8
newlayer
 62
7
100
AcDbSpline
 70
8
 71
3
 72
8
 73
4
 74
0
 40
0
 40
0
 40
0
 40
0
 40
1
 40
1
 40
1
 40
1
 10
576.921461
 20
188.412656
 30
0.0
 10
576.554402
 20
188.625054
 30
0.0
 10
576.328907
 20
189.017444
 30
0.0
 10
576.330149
 20
189.441509
 30
0.0
  0
SPLINE
  5
10b
100
AcDbEntity
  8
newlayer
 62
7
100
AcDbSpline
 70
8
 71
3
 72
8
 73
4
 74
0
 40
0
 40
0
 40
0
 40
0
 40
1
 40
1
 40
1
 40
1
 10
576.330149
 20
189.441509
 30
0.0
 10
576.330149
 20
189.865576
 30
0.0
 10
576.554402
 20
190.257963
 30
0.0
 10
576.921461
 20
190.470361
 30
0.0
  0
SPLINE
  5
10c
100
AcDbEntity
  8
newlayer
 62
7
100
AcDbSpline
 70
8
 71
3
 72
8
 73
4
 74
0
 40
0
 40
0
 40
0
 40
0
 40
1
 40
1
 40
1
 40
1
 10
576.921461
 20
190.470361
 30
0.0
 10
577.288491
 20
190.682756
 30
0.0
 10
577.741090
 20
190.682756
 30
0.0
 10
578.108120
 20
190.470361
 30
0.0
  0
SPLINE
  5
10d
100
AcDbEntity
  8
newlayer
 62
7
100
AcDbSpline
 70
8
 71
3
 72
8
 73
4
 74
0
 40
0
 40
0
 40
0
 40
0
 40
1
 40
1
 40
1
 40
1
 10
578.108120
 20
190.470361
 30
0.0
 10
578.475179
 20
190.257963
 30
0.0
 10
578.700674
 20
189.865576
 30
0.0
 10
578.699432
 20
189.441509
 30
0.0
  0
LINE
  5
10e
100
AcDbEntity
  8
newlayer
 62
7
100
AcDbLine
 10
578.699432
 20
189.441509
 30
0.0
 11
578.699432
 21
189.441509
 31
0.0
  0
SPLINE
  5
10f
100
AcDbEntity
  8
newlayer
 62
7
100
AcDbSpline
 70
8
 71
3
 72
8
 73
4
 74
0
 40
0
 40
0
 40
0
 40
0
 40
1
 40
1
 40
1
 40
1
 10
524.112772
 20
189.526740
 30
0.0
 10
524.112772
 20
189.102675
 30
0.0
 10
523.888518
 20
188.710285
 30
0.0
 10
523.521460
 20
188.497887
 30
0.0
  0
SPLINE
  5
110
100
AcDbEntity
  8
newlayer
 62
7
100
AcDbSpline
 70
8
 71
3
 72
8
 73
4
 74
0
 40
0
 40
0
 40
0
 40
0
 40
1
 40
1
 40
1
 40
1
 10
523.521460
 20
188.497887
 30
0.0
 10
523.154430
 20
188.285493
 30
0.0
 10
522.701830
 20
188.285493
 30
0.0
 10
522.334800
 20
188.497887
 30
0.0
  0
SPLINE
  5
111
100
AcDbEntity
  8
newlayer
 62
7
100
AcDbSpline
 70
8
 71
3
 72
8
 73
4
 74
0
 40
0
 40
0
 40
0
 40
0
 40
1
 40
1
 40
1
 40
1
 10
522.334800
 20
188.497887
 30
0.0
 10
521.967742
 20
188.710285
 30
0.0
 10
521.742247
 20
189.102675
 30
0.0
 10
521.743488
 20
189.526740
 30
0.0
  0
SPLINE
  5
112
100
AcDbEntity
  8
newlayer
 62
7
100
AcDbSpline
 70
8
 71
3
 72
8
 73
4
 74
0
 40
0
 40
0
 40
0
 40
0
 40
1
 40
1
 40
1
 40
1
 10
521.743488
 20
189.526740
 30
0.0
 10
521.743488
 20
189.950804
 30
0.0
 10
521.967742
 20
190.343197
 30
0.0
 10
522.334800
 20
190.555592
 30
0.0
  0
SPLINE
  5
113
100
AcDbEntity
  8
newlayer
 62
7
100
AcDbSpline
 70
8
 71
3
 72
8
 73
4
 74
0
 40
0
 40
0
 40
0
 40
0
 40
1
 40
1
 40
1
 40
1
 10
522.334800
 20
190.555592
 30
0.0
 10
522.701830
 20
190.767987
 30
0.0
 10
523.154430
 20
190.767987
 30
0.0
 10
523.521460
 20
190.555592
 30
0.0
  0
SPLINE
  5
114
100
AcDbEntity
  8
newlayer
 62
7
100
AcDbSpline
 70
8
 71
3
 72
8
 73
4
 74
0
 40
0
 40
0
 40
0
 40
0
 40
1
 40
1
 40
1
 40
1
 10
523.521460
 20
190.555592
 30
0.0
 10
523.888518
 20
190.343197
 30
0.0
 10
524.114014
 20
189.950804
 30
0.0
 10
524.112772
 20
189.526740
 30
0.0
  0
LINE
  5
115
100
AcDbEntity
  8
newlayer
 62
7
100
AcDbLine
 10
524.112772
 20
189.526740
 30
0.0
 11
524.112772
 21
189.526740
 31
0.0
  0
SPLINE
  5
116
100
AcDbEntity
  8
newlayer
 62
7
100
AcDbSpline
 70
8
 71
3
 72
8
 73
4
 74
0
 40
0
 40
0
 40
0
 40
0
 40
1
 40
1
 40
1
 40
1
 10
524.093694
 20
282.194124
 30
0.0
 10
524.093694
 20
281.770058
 30
0.0
 10
523.869440
 20
281.377668
 30
0.0
 10
523.502382
 20
281.165273
 30
0.0
  0
SPLINE
  5
117
100
AcDbEntity
  8
newlayer
 62
7
100
AcDbSpline
 70
8
 71
3
 72
8
 73
4
 74
0
 40
0
 40
0
 40
0
 40
0
 40
1
 40
1
 40
1
 40
1
 10
523.502382
 20
281.165273
 30
0.0
 10
523.135352
 20
280.952877
 30
0.0
 10
522.682752
 20
280.952877
 30
0.0
 10
522.315722
 20
281.165273
 30
0.0
  0
SPLINE
  5
118
100
AcDbEntity
  8
newlayer
 62
7
100
AcDbSpline
 70
8
 71
3
 72
8
 73
4
 74
0
 40
0
 40
0
 40
0
 40
0
 40
1
 40
1
 40
1
 40
1
 10
522.315722
 20
281.165273
 30
0.0
 10
521.948664
 20
281.377668
 30
0.0
 10
521.723168
 20
281.770058
 30
0.0
 10
521.724410
 20
282.194124
 30
0.0
  0
SPLINE
  5
119
100
AcDbEntity
  8
newlayer
 62
7
100
AcDbSpline
 70
8
 71
3
 72
8
 73
4
 74
0
 40
0
 40
0
 40
0
 40
0
 40
1
 40
1
 40
1
 40
1
 10
521.724410
 20
282.194124
 30
0.0
 10
521.724410
 20
282.618190
 30
0.0
 10
521.948664
 20
283.010580
 30
0.0
 10
522.315722
 20
283.222976
 30
0.0
  0
SPLINE
  5
11a
100
AcDbEntity
  8
newlayer
 62
7
100
AcDbSpline
 70
8
 71
3
 72
8
 73
4
 74
0
 40
0
 40
0
 40
0
 40
0
 40
1
 40
1
 40
1
 40
1
 10
522.315722
 20
283.222976
 30
0.0
 10
522.682752
 20
283.435371
 30
0.0
 10
523.135352
 20
283.435371
 30
0.0
 10
523.502382
 20
283.222976
 30
0.0
  0
SPLINE
  5
11b
100
AcDbEntity
  8
newlayer
 62
7
100
AcDbSpline
 70
8
 71
3
 72
8
 73
4
 74
0
 40
0
 40
0
 40
0
 40
0
 40
1
 40
1
 40
1
 40
1
 10
523.502382
 20
283.222976
 30
0.0
 10
523.869440
 20
283.010580
 30
0.0
 10
524.094936
 20
282.618190
 30
0.0
 10
524.093694
 20
282.194124
 30
0.0
  0
LINE
  5
11c
100
AcDbEntity
  8
newlayer
 62
7
100
AcDbLine
 10
524.093694
 20
282.194124
 30
0.0
 11
524.093694
 21
282.194124
 31
0.0
  0
LINE
  5
11d
100
AcDbEntity
  8
newlayer
 62
7
100
AcDbLine
 10
537.890127
 20
272.929772
 30
0.0
 11
561.890136
 21
272.929772
 31
0.0
  0
LINE
  5
11e
100
AcDbEntity
  8
newlayer
 62
7
100
AcDbLine
 10
561.890136
 20
272.929772
 30
0.0
 11
561.890136
 21
198.929777
 31
0.0
  0
LINE
  5
11f
100
AcDbEntity
  8
newlayer
 62
7
100
AcDbLine
 10
561.890136
 20
198.929777
 30
0.0
 11
537.890127
 21
198.929777
 31
0.0
  0
LINE
  5
120
100
AcDbEntity
  8
newlayer
 62
7
100
AcDbLine
 10
537.890127
 20
198.929777
 30
0.0
 11
537.890127
 21
272.929772
 31
0.0
  0
SPLINE
  5
121
100
AcDbEntity
  8
newlayer
 62
7
100
AcDbSpline
 70
8
 71
3
 72
8
 73
4
 74
0
 40
0
 40
0
 40
0
 40
0
 40
1
 40
1
 40
1
 40
1
 10
508.501565
 20
259.587994
 30
0.0
 10
508.506645
 20
257.891732
 30
0.0
 10
507.604522
 20
256.322170
 30
0.0
 10
506.136346
 20
255.472588
 30
0.0
  0
SPLINE
  5
122
100
AcDbEntity
  8
newlayer
 62
7
100
AcDbSpline
 70
8
 71
3
 72
8
 73
4
 74
0
 40
0
 40
0
 40
0
 40
0
 40
1
 40
1
 40
1
 40
1
 10
506.136346
 20
255.472588
 30
0.0
 10
504.668169
 20
254.623006
 30
0.0
 10
502.857855
 20
254.623006
 30
0.0
 10
501.389678
 20
255.472588
 30
0.0
  0
SPLINE
  5
123
100
AcDbEntity
  8
newlayer
 62
7
100
AcDbSpline
 70
8
 71
3
 72
8
 73
4
 74
0
 40
0
 40
0
 40
0
 40
0
 40
1
 40
1
 40
1
 40
1
 10
501.389678
 20
255.472588
 30
0.0
 10
499.921502
 20
256.322170
 30
0.0
 10
499.019435
 20
257.891732
 30
0.0
 10
499.024458
 20
259.587994
 30
0.0
  0
SPLINE
  5
124
100
AcDbEntity
  8
newlayer
 62
7
100
AcDbSpline
 70
8
 71
3
 72
8
 73
4
 74
0
 40
0
 40
0
 40
0
 40
0
 40
1
 40
1
 40
1
 40
1
 10
499.024458
 20
259.587994
 30
0.0
 10
499.019378
 20
261.284254
 30
0.0
 10
499.921502
 20
262.853816
 30
0.0
 10
501.389678
 20
263.703398
 30
0.0
  0
SPLINE
  5
125
100
AcDbEntity
  8
newlayer
 62
7
100
AcDbSpline
 70
8
 71
3
 72
8
 73
4
 74
0
 40
0
 40
0
 40
0
 40
0
 40
1
 40
1
 40
1
 40
1
 10
501.389678
 20
263.703398
 30
0.0
 10
502.857855
 20
264.552980
 30
0.0
 10
504.668169
 20
264.552980
 30
0.0
 10
506.136346
 20
263.703398
 30
0.0
  0
SPLINE
  5
126
100
AcDbEntity
  8
newlayer
 62
7
100
AcDbSpline
 70
8
 71
3
 72
8
 73
4
 74
0
 40
0
 40
0
 40
0
 40
0
 40
1
 40
1
 40
1
 40
1
 10
506.136346
 20
263.703398
 30
0.0
 10
507.604522
 20
262.853816
 30
0.0
 10
508.506589
 20
261.284254
 30
0.0
 10
508.501565
 20
259.587994
 30
0.0
  0
LINE
  5
127
100
AcDbEntity
  8
newlayer
 62
7
100
AcDbLine
 10
508.501565
 20
259.587994
 30
0.0
 11
508.501565
 21
259.587994
 31
0.0
  0
SPLINE
  5
128
100
AcDbEntity
  8
newlayer
 62
7
100
AcDbSpline
 70
8
 71
3
 72
8
 73
4
 74
0
 40
0
 40
0
 40
0
 40
0
 40
1
 40
1
 40
1
 40
1
 10
507.057434
 20
234.299469
 30
0.0
 10
507.060821
 20
233.112084
 30
0.0
 10
506.429490
 20
232.013390
 30
0.0
 10
505.401778
 20
231.418683
 30
0.0
  0
SPLINE
  5
129
100
AcDbEntity
  8
newlayer
 62
7
100
AcDbSpline
 70
8
 71
3
 72
8
 73
4
 74
0
 40
0
 40
0
 40
0
 40
0
 40
1
 40
1
 40
1
 40
1
 10
505.401778
 20
231.418683
 30
0.0
 10
504.374065
 20
230.823976
 30
0.0
 10
503.106831
 20
230.823976
 30
0.0
 10
502.079119
 20
231.418683
 30
0.0
  0
SPLINE
  5
12a
100
AcDbEntity
  8
newlayer
 62
7
100
AcDbSpline
 70
8
 71
3
 72
8
 73
4
 74
0
 40
0
 40
0
 40
0
 40
0
 40
1
 40
1
 40
1
 40
1
 10
502.079119
 20
231.418683
 30
0.0
 10
501.051378
 20
232.013390
 30
0.0
 10
500.419934
 20
233.112084
 30
0.0
 10
500.423462
 20
234.299469
 30
0.0
  0
SPLINE
  5
12b
100
AcDbEntity
  8
newlayer
 62
7
100
AcDbSpline
 70
8
 71
3
 72
8
 73
4
 74
0
 40
0
 40
0
 40
0
 40
0
 40
1
 40
1
 40
1
 40
1
 10
500.423462
 20
234.299469
 30
0.0
 10
500.419793
 20
235.486852
 30
0.0
 10
501.051378
 20
236.585546
 30
0.0
 10
502.079119
 20
237.180253
 30
0.0
  0
SPLINE
  5
12c
100
AcDbEntity
  8
newlayer
 62
7
100
AcDbSpline
 70
8
 71
3
 72
8
 73
4
 74
0
 40
0
 40
0
 40
0
 40
0
 40
1
 40
1
 40
1
 40
1
 10
502.079119
 20
237.180253
 30
0.0
 10
503.106831
 20
237.774960
 30
0.0
 10
504.374065
 20
237.774960
 30
0.0
 10
505.401778
 20
237.180253
 30
0.0
  0
SPLINE
  5
12d
100
AcDbEntity
  8
newlayer
 62
7
100
AcDbSpline
 70
8
 71
3
 72
8
 73
4
 74
0
 40
0
 40
0
 40
0
 40
0
 40
1
 40
1
 40
1
 40
1
 10
505.401778
 20
237.180253
 30
0.0
 10
506.429490
 20
236.585546
 30
0.0
 10
507.060934
 20
235.486852
 30
0.0
 10
507.057434
 20
234.299469
 30
0.0
  0
LINE
  5
12e
100
AcDbEntity
  8
newlayer
 62
7
100
AcDbLine
 10
507.057434
 20
234.299469
 30
0.0
 11
507.057434
 21
234.299469
 31
0.0
  0
SPLINE
  5
12f
100
AcDbEntity
  8
newlayer
 62
7
100
AcDbSpline
 70
8
 71
3
 72
8
 73
4
 74
0
 40
0
 40
0
 40
0
 40
0
 40
1
 40
1
 40
1
 40
1
 10
507.199985
 20
214.500169
 30
0.0
 10
507.203371
 20
213.312784
 30
0.0
 10
506.572040
 20
212.214090
 30
0.0
 10
505.544328
 20
211.619383
 30
0.0
  0
SPLINE
  5
130
100
AcDbEntity
  8
newlayer
 62
7
100
AcDbSpline
 70
8
 71
3
 72
8
 73
4
 74
0
 40
0
 40
0
 40
0
 40
0
 40
1
 40
1
 40
1
 40
1
 10
505.544328
 20
211.619383
 30
0.0
 10
504.516588
 20
211.024676
 30
0.0
 10
503.249382
 20
211.024676
 30
0.0
 10
502.221641
 20
211.619383
 30
0.0
  0
SPLINE
  5
131
100
AcDbEntity
  8
newlayer
 62
7
100
AcDbSpline
 70
8
 71
3
 72
8
 73
4
 74
0
 40
0
 40
0
 40
0
 40
0
 40
1
 40
1
 40
1
 40
1
 10
502.221641
 20
211.619383
 30
0.0
 10
501.193929
 20
212.214090
 30
0.0
 10
500.562485
 20
213.312784
 30
0.0
 10
500.565984
 20
214.500169
 30
0.0
  0
SPLINE
  5
132
100
AcDbEntity
  8
newlayer
 62
7
100
AcDbSpline
 70
8
 71
3
 72
8
 73
4
 74
0
 40
0
 40
0
 40
0
 40
0
 40
1
 40
1
 40
1
 40
1
 10
500.565984
 20
214.500169
 30
0.0
 10
500.562598
 20
215.687552
 30
0.0
 10
501.193929
 20
216.786246
 30
0.0
 10
502.221641
 20
217.380953
 30
0.0
  0
SPLINE
  5
133
100
AcDbEntity
  8
newlayer
 62
7
100
AcDbSpline
 70
8
 71
3
 72
8
 73
4
 74
0
 40
0
 40
0
 40
0
 40
0
 40
1
 40
1
 40
1
 40
1
 10
502.221641
 20
217.380953
 30
0.0
 10
503.249382
 20
217.975660
 30
0.0
 10
504.516588
 20
217.975660
 30
0.0
 10
505.544328
 20
217.380953
 30
0.0
  0
SPLINE
  5
134
100
AcDbEntity
  8
newlayer
 62
7
100
AcDbSpline
 70
8
 71
3
 72
8
 73
4
 74
0
 40
0
 40
0
 40
0
 40
0
 40
1
 40
1
 40
1
 40
1
 10
505.544328
 20
217.380953
 30
0.0
 10
506.572040
 20
216.786246
 30
0.0
 10
507.203484
 20
215.687552
 30
0.0
 10
507.199985
 20
214.500169
 30
0.0
  0
LINE
  5
135
100
AcDbEntity
  8
newlayer
 62
7
100
AcDbLine
 10
507.199985
 20
214.500169
 30
0.0
 11
507.199985
 21
214.500169
 31
0.0
  0
SPLINE
  5
136
100
AcDbEntity
  8
newlayer
 62
7
100
AcDbSpline
 70
8
 71
3
 72
8
 73
4
 74
0
 40
0
 40
0
 40
0
 40
0
 40
1
 40
1
 40
1
 40
1
 10
465.704005
 20
265.975270
 30
0.0
 10
465.707109
 20
264.940550
 30
0.0
 10
465.156804
 20
263.983117
 30
0.0
 10
464.261228
 20
263.464873
 30
0.0
  0
SPLINE
  5
137
100
AcDbEntity
  8
newlayer
 62
7
100
AcDbSpline
 70
8
 71
3
 72
8
 73
4
 74
0
 40
0
 40
0
 40
0
 40
0
 40
1
 40
1
 40
1
 40
1
 10
464.261228
 20
263.464873
 30
0.0
 10
463.365624
 20
262.946628
 30
0.0
 10
462.261345
 20
262.946628
 30
0.0
 10
461.365741
 20
263.464873
 30
0.0
  0
SPLINE
  5
138
100
AcDbEntity
  8
newlayer
 62
7
100
AcDbSpline
 70
8
 71
3
 72
8
 73
4
 74
0
 40
0
 40
0
 40
0
 40
0
 40
1
 40
1
 40
1
 40
1
 10
461.365741
 20
263.464873
 30
0.0
 10
460.470165
 20
263.983117
 30
0.0
 10
459.919917
 20
264.940550
 30
0.0
 10
459.922965
 20
265.975270
 30
0.0
  0
SPLINE
  5
139
100
AcDbEntity
  8
newlayer
 62
7
100
AcDbSpline
 70
8
 71
3
 72
8
 73
4
 74
0
 40
0
 40
0
 40
0
 40
0
 40
1
 40
1
 40
1
 40
1
 10
459.922965
 20
265.975270
 30
0.0
 10
459.919860
 20
267.009990
 30
0.0
 10
460.470165
 20
267.967423
 30
0.0
 10
461.365741
 20
268.485668
 30
0.0
  0
SPLINE
  5
13a
100
AcDbEntity
  8
newlayer
 62
7
100
AcDbSpline
 70
8
 71
3
 72
8
 73
4
 74
0
 40
0
 40
0
 40
0
 40
0
 40
1
 40
1
 40
1
 40
1
 10
461.365741
 20
268.485668
 30
0.0
 10
462.261345
 20
269.003913
 30
0.0
 10
463.365624
 20
269.003913
 30
0.0
 10
464.261228
 20
268.485668
 30
0.0
  0
SPLINE
  5
13b
100
AcDbEntity
  8
newlayer
 62
7
100
AcDbSpline
 70
8
 71
3
 72
8
 73
4
 74
0
 40
0
 40
0
 40
0
 40
0
 40
1
 40
1
 40
1
 40
1
 10
464.261228
 20
268.485668
 30
0.0
 10
465.156804
 20
267.967423
 30
0.0
 10
465.707081
 20
267.009990
 30
0.0
 10
465.704005
 20
265.975270
 30
0.0
  0
LINE
  5
13c
100
AcDbEntity
  8
newlayer
 62
7
100
AcDbLine
 10
465.704005
 20
265.975270
 30
0.0
 11
465.704005
 21
265.975270
 31
0.0
  0
SPLINE
  5
13d
100
AcDbEntity
  8
newlayer
 62
7
100
AcDbSpline
 70
8
 71
3
 72
8
 73
4
 74
0
 40
0
 40
0
 40
0
 40
0
 40
1
 40
1
 40
1
 40
1
 10
448.811001
 20
266.040746
 30
0.0
 10
448.814105
 20
265.006026
 30
0.0
 10
448.263800
 20
264.048593
 30
0.0
 10
447.368224
 20
263.530348
 30
0.0
  0
SPLINE
  5
13e
100
AcDbEntity
  8
newlayer
 62
7
100
AcDbSpline
 70
8
 71
3
 72
8
 73
4
 74
0
 40
0
 40
0
 40
0
 40
0
 40
1
 40
1
 40
1
 40
1
 10
447.368224
 20
263.530348
 30
0.0
 10
446.472620
 20
263.012103
 30
0.0
 10
445.368341
 20
263.012103
 30
0.0
 10
444.472737
 20
263.530348
 30
0.0
  0
SPLINE
  5
13f
100
AcDbEntity
  8
newlayer
 62
7
100
AcDbSpline
 70
8
 71
3
 72
8
 73
4
 74
0
 40
0
 40
0
 40
0
 40
0
 40
1
 40
1
 40
1
 40
1
 10
444.472737
 20
263.530348
 30
0.0
 10
443.577162
 20
264.048593
 30
0.0
 10
443.026913
 20
265.006026
 30
0.0
 10
443.029961
 20
266.040746
 30
0.0
  0
SPLINE
  5
140
100
AcDbEntity
  8
newlayer
 62
7
100
AcDbSpline
 70
8
 71
3
 72
8
 73
4
 74
0
 40
0
 40
0
 40
0
 40
0
 40
1
 40
1
 40
1
 40
1
 10
443.029961
 20
266.040746
 30
0.0
 10
443.026856
 20
267.075466
 30
0.0
 10
443.577162
 20
268.032899
 30
0.0
 10
444.472737
 20
268.551144
 30
0.0
  0
SPLINE
  5
141
100
AcDbEntity
  8
newlayer
 62
7
100
AcDbSpline
 70
8
 71
3
 72
8
 73
4
 74
0
 40
0
 40
0
 40
0
 40
0
 40
1
 40
1
 40
1
 40
1
 10
444.472737
 20
268.551144
 30
0.0
 10
445.368341
 20
269.069389
 30
0.0
 10
446.472620
 20
269.069389
 30
0.0
 10
447.368224
 20
268.551144
 30
0.0
  0
SPLINE
  5
142
100
AcDbEntity
  8
newlayer
 62
7
100
AcDbSpline
 70
8
 71
3
 72
8
 73
4
 74
0
 40
0
 40
0
 40
0
 40
0
 40
1
 40
1
 40
1
 40
1
 10
447.368224
 20
268.551144
 30
0.0
 10
448.263800
 20
268.032899
 30
0.0
 10
448.814077
 20
267.075466
 30
0.0
 10
448.811001
 20
266.040746
 30
0.0
  0
LINE
  5
143
100
AcDbEntity
  8
newlayer
 62
7
100
AcDbLine
 10
448.811001
 20
266.040746
 30
0.0
 11
448.811001
 21
266.040746
 31
0.0
  0
SPLINE
  5
144
100
AcDbEntity
  8
newlayer
 62
7
100
AcDbSpline
 70
8
 71
3
 72
8
 73
4
 74
0
 40
0
 40
0
 40
0
 40
0
 40
1
 40
1
 40
1
 40
1
 10
245.065903
 20
271.300390
 30
0.0
 10
244.053761
 20
272.029652
 30
0.0
 10
242.810388
 20
272.464557
 30
0.0
 10
241.467569
 20
272.464557
 30
0.0
  0
SPLINE
  5
145
100
AcDbEntity
  8
newlayer
 62
7
100
AcDbSpline
 70
8
 71
3
 72
8
 73
4
 74
0
 40
0
 40
0
 40
0
 40
0
 40
1
 40
1
 40
1
 40
1
 10
241.467569
 20
272.464557
 30
0.0
 10
240.123791
 20
272.464557
 30
0.0
 10
238.881773
 20
272.030781
 30
0.0
 10
237.869236
 20
271.300390
 30
0.0
  0
SPLINE
  5
146
100
AcDbEntity
  8
newlayer
 62
7
100
AcDbSpline
 70
8
 71
3
 72
8
 73
4
 74
0
 40
0
 40
0
 40
0
 40
0
 40
1
 40
1
 40
1
 40
1
 10
245.065903
 20
271.300390
 30
0.0
 10
245.602596
 20
270.913746
 30
0.0
 10
246.071582
 20
270.442717
 30
0.0
 10
246.459375
 20
269.907059
 30
0.0
  0
LINE
  5
147
100
AcDbEntity
  8
newlayer
 62
7
100
AcDbLine
 10
246.459375
 20
269.907059
 30
0.0
 11
246.459375
 21
262.692611
 31
0.0
  0
SPLINE
  5
148
100
AcDbEntity
  8
newlayer
 62
7
100
AcDbSpline
 70
8
 71
3
 72
8
 73
4
 74
0
 40
0
 40
0
 40
0
 40
0
 40
1
 40
1
 40
1
 40
1
 10
246.459375
 20
262.692611
 30
0.0
 10
246.071839
 20
262.157520
 30
0.0
 10
245.601964
 20
261.685363
 30
0.0
 10
245.065903
 20
261.299280
 30
0.0
  0
SPLINE
  5
149
100
AcDbEntity
  8
newlayer
 62
7
100
AcDbSpline
 70
8
 71
3
 72
8
 73
4
 74
0
 40
0
 40
0
 40
0
 40
0
 40
1
 40
1
 40
1
 40
1
 10
237.869236
 20
261.299280
 30
0.0
 10
238.881773
 20
260.568892
 30
0.0
 10
240.123791
 20
260.143862
 30
0.0
 10
241.467569
 20
260.143862
 30
0.0
  0
SPLINE
  5
14a
100
AcDbEntity
  8
newlayer
 62
7
100
AcDbSpline
 70
8
 71
3
 72
8
 73
4
 74
0
 40
0
 40
0
 40
0
 40
0
 40
1
 40
1
 40
1
 40
1
 10
241.467569
 20
260.143862
 30
0.0
 10
242.810388
 20
260.143862
 30
0.0
 10
244.053761
 20
260.569738
 30
0.0
 10
245.065903
 20
261.299280
 30
0.0
  0
SPLINE
  5
14b
100
AcDbEntity
  8
newlayer
 62
7
100
AcDbSpline
 70
8
 71
3
 72
8
 73
4
 74
0
 40
0
 40
0
 40
0
 40
0
 40
1
 40
1
 40
1
 40
1
 10
237.869236
 20
261.299280
 30
0.0
 10
237.330784
 20
261.687620
 30
0.0
 10
236.855299
 20
262.162880
 30
0.0
 10
236.466944
 20
262.701360
 30
0.0
  0
LINE
  5
14c
100
AcDbEntity
  8
newlayer
 62
7
100
AcDbLine
 10
236.466944
 20
262.701360
 30
0.0
 11
236.466944
 21
269.898028
 31
0.0
  0
SPLINE
  5
14d
100
AcDbEntity
  8
newlayer
 62
7
100
AcDbSpline
 70
8
 71
3
 72
8
 73
4
 74
0
 40
0
 40
0
 40
0
 40
0
 40
1
 40
1
 40
1
 40
1
 10
236.466944
 20
269.898028
 30
0.0
 10
236.855593
 20
270.437354
 30
0.0
 10
237.330062
 20
270.911488
 30
0.0
 10
237.869236
 20
271.300390
 30
0.0
  0
SPLINE
  5
14e
100
AcDbEntity
  8
newlayer
 62
7
100
AcDbSpline
 70
8
 71
3
 72
8
 73
4
 74
0
 40
0
 40
0
 40
0
 40
0
 40
1
 40
1
 40
1
 40
1
 10
307.653775
 20
265.418697
 30
0.0
 10
307.656597
 20
264.740192
 30
0.0
 10
307.294957
 20
264.112367
 30
0.0
 10
306.707681
 20
263.772534
 30
0.0
  0
SPLINE
  5
14f
100
AcDbEntity
  8
newlayer
 62
7
100
AcDbSpline
 70
8
 71
3
 72
8
 73
4
 74
0
 40
0
 40
0
 40
0
 40
0
 40
1
 40
1
 40
1
 40
1
 10
306.707681
 20
263.772534
 30
0.0
 10
306.120433
 20
263.432702
 30
0.0
 10
305.396307
 20
263.432702
 30
0.0
 10
304.809031
 20
263.772534
 30
0.0
  0
SPLINE
  5
150
100
AcDbEntity
  8
newlayer
 62
7
100
AcDbSpline
 70
8
 71
3
 72
8
 73
4
 74
0
 40
0
 40
0
 40
0
 40
0
 40
1
 40
1
 40
1
 40
1
 10
304.809031
 20
263.772534
 30
0.0
 10
304.221755
 20
264.112367
 30
0.0
 10
303.860934
 20
264.740192
 30
0.0
 10
303.862938
 20
265.418697
 30
0.0
  0
SPLINE
  5
151
100
AcDbEntity
  8
newlayer
 62
7
100
AcDbSpline
 70
8
 71
3
 72
8
 73
4
 74
0
 40
0
 40
0
 40
0
 40
0
 40
1
 40
1
 40
1
 40
1
 10
303.862938
 20
265.418697
 30
0.0
 10
303.860115
 20
266.097202
 30
0.0
 10
304.221755
 20
266.725027
 30
0.0
 10
304.809031
 20
267.064860
 30
0.0
  0
SPLINE
  5
152
100
AcDbEntity
  8
newlayer
 62
7
100
AcDbSpline
 70
8
 71
3
 72
8
 73
4
 74
0
 40
0
 40
0
 40
0
 40
0
 40
1
 40
1
 40
1
 40
1
 10
304.809031
 20
267.064860
 30
0.0
 10
305.396307
 20
267.404692
 30
0.0
 10
306.120433
 20
267.404692
 30
0.0
 10
306.707681
 20
267.064860
 30
0.0
  0
SPLINE
  5
153
100
AcDbEntity
  8
newlayer
 62
7
100
AcDbSpline
 70
8
 71
3
 72
8
 73
4
 74
0
 40
0
 40
0
 40
0
 40
0
 40
1
 40
1
 40
1
 40
1
 10
306.707681
 20
267.064860
 30
0.0
 10
307.294957
 20
266.725027
 30
0.0
 10
307.655778
 20
266.097202
 30
0.0
 10
307.653775
 20
265.418697
 30
0.0
  0
LINE
  5
154
100
AcDbEntity
  8
newlayer
 62
7
100
AcDbLine
 10
307.653775
 20
265.418697
 30
0.0
 11
307.653775
 21
265.418697
 31
0.0
  0
SPLINE
  5
155
100
AcDbEntity
  8
newlayer
 62
7
100
AcDbSpline
 70
8
 71
3
 72
8
 73
4
 74
0
 40
0
 40
0
 40
0
 40
0
 40
1
 40
1
 40
1
 40
1
 10
332.085724
 20
265.219166
 30
0.0
 10
332.088546
 20
264.540661
 30
0.0
 10
331.726907
 20
263.912835
 30
0.0
 10
331.139631
 20
263.573003
 30
0.0
  0
SPLINE
  5
156
100
AcDbEntity
  8
newlayer
 62
7
100
AcDbSpline
 70
8
 71
3
 72
8
 73
4
 74
0
 40
0
 40
0
 40
0
 40
0
 40
1
 40
1
 40
1
 40
1
 10
331.139631
 20
263.573003
 30
0.0
 10
330.552354
 20
263.233171
 30
0.0
 10
329.828229
 20
263.233171
 30
0.0
 10
329.240952
 20
263.573003
 30
0.0
  0
SPLINE
  5
157
100
AcDbEntity
  8
newlayer
 62
7
100
AcDbSpline
 70
8
 71
3
 72
8
 73
4
 74
0
 40
0
 40
0
 40
0
 40
0
 40
1
 40
1
 40
1
 40
1
 10
329.240952
 20
263.573003
 30
0.0
 10
328.653676
 20
263.912835
 30
0.0
 10
328.292855
 20
264.540661
 30
0.0
 10
328.294859
 20
265.219166
 30
0.0
  0
SPLINE
  5
158
100
AcDbEntity
  8
newlayer
 62
7
100
AcDbSpline
 70
8
 71
3
 72
8
 73
4
 74
0
 40
0
 40
0
 40
0
 40
0
 40
1
 40
1
 40
1
 40
1
 10
328.294859
 20
265.219166
 30
0.0
 10
328.292037
 20
265.897670
 30
0.0
 10
328.653676
 20
266.525496
 30
0.0
 10
329.240952
 20
266.865326
 30
0.0
  0
SPLINE
  5
159
100
AcDbEntity
  8
newlayer
 62
7
100
AcDbSpline
 70
8
 71
3
 72
8
 73
4
 74
0
 40
0
 40
0
 40
0
 40
0
 40
1
 40
1
 40
1
 40
1
 10
329.240952
 20
266.865326
 30
0.0
 10
329.828229
 20
267.205161
 30
0.0
 10
330.552354
 20
267.205161
 30
0.0
 10
331.139631
 20
266.865326
 30
0.0
  0
SPLINE
  5
15a
100
AcDbEntity
  8
newlayer
 62
7
100
AcDbSpline
 70
8
 71
3
 72
8
 73
4
 74
0
 40
0
 40
0
 40
0
 40
0
 40
1
 40
1
 40
1
 40
1
 10
331.139631
 20
266.865326
 30
0.0
 10
331.726907
 20
266.525496
 30
0.0
 10
332.087728
 20
265.897670
 30
0.0
 10
332.085724
 20
265.219166
 30
0.0
  0
LINE
  5
15b
100
AcDbEntity
  8
newlayer
 62
7
100
AcDbLine
 10
332.085724
 20
265.219166
 30
0.0
 11
332.085724
 21
265.219166
 31
0.0
  0
LINE
  5
15c
100
AcDbEntity
  8
newlayer
 62
7
100
AcDbLine
 10
311.571047
 20
269.081446
 30
0.0
 11
317.426396
 21
269.081446
 31
0.0
  0
LINE
  5
15d
100
AcDbEntity
  8
newlayer
 62
7
100
AcDbLine
 10
317.426396
 20
269.081446
 30
0.0
 11
317.426396
 21
261.570775
 31
0.0
  0
LINE
  5
15e
100
AcDbEntity
  8
newlayer
 62
7
100
AcDbLine
 10
317.426396
 20
261.570775
 30
0.0
 11
311.571047
 21
261.570775
 31
0.0
  0
LINE
  5
15f
100
AcDbEntity
  8
newlayer
 62
7
100
AcDbLine
 10
311.571047
 20
261.570775
 30
0.0
 11
311.571047
 21
269.081446
 31
0.0
  0
LINE
  5
160
100
AcDbEntity
  8
newlayer
 62
7
100
AcDbLine
 10
0.200000
 20
296.800196
 30
0.0
 11
5.302143
 21
296.800196
 31
0.0
  0
LINE
  5
161
100
AcDbEntity
  8
newlayer
 62
7
100
AcDbLine
 10
5.302143
 20
296.800196
 30
0.0
 11
5.302143
 21
293.700196
 31
0.0
  0
LINE
  5
162
100
AcDbEntity
  8
newlayer
 62
7
100
AcDbLine
 10
5.302143
 20
293.700196
 30
0.0
 11
10.269286
 21
293.700196
 31
0.0
  0
LINE
  5
163
100
AcDbEntity
  8
newlayer
 62
7
100
AcDbLine
 10
10.269286
 20
293.700196
 30
0.0
 11
10.269286
 21
296.800196
 31
0.0
  0
LINE
  5
164
100
AcDbEntity
  8
newlayer
 62
7
100
AcDbLine
 10
10.269286
 20
296.800196
 30
0.0
 11
15.416429
 21
296.800196
 31
0.0
  0
LINE
  5
165
100
AcDbEntity
  8
newlayer
 62
7
100
AcDbLine
 10
15.416429
 20
296.800196
 30
0.0
 11
15.416429
 21
293.700196
 31
0.0
  0
LINE
  5
166
100
AcDbEntity
  8
newlayer
 62
7
100
AcDbLine
 10
15.416429
 20
293.700196
 30
0.0
 11
20.383571
 21
293.700196
 31
0.0
  0
LINE
  5
167
100
AcDbEntity
  8
newlayer
 62
7
100
AcDbLine
 10
20.383571
 20
293.700196
 30
0.0
 11
20.383571
 21
296.800196
 31
0.0
  0
LINE
  5
168
100
AcDbEntity
  8
newlayer
 62
7
100
AcDbLine
 10
20.383571
 20
296.800196
 30
0.0
 11
25.530714
 21
296.800196
 31
0.0
  0
LINE
  5
169
100
AcDbEntity
  8
newlayer
 62
7
100
AcDbLine
 10
25.530714
 20
296.800196
 30
0.0
 11
25.530714
 21
293.700196
 31
0.0
  0
LINE
  5
16a
100
AcDbEntity
  8
newlayer
 62
7
100
AcDbLine
 10
25.530714
 20
293.700196
 30
0.0
 11
30.497856
 21
293.700196
 31
0.0
  0
LINE
  5
16b
100
AcDbEntity
  8
newlayer
 62
7
100
AcDbLine
 10
30.497856
 20
293.700196
 30
0.0
 11
30.497856
 21
296.800196
 31
0.0
  0
LINE
  5
16c
100
AcDbEntity
  8
newlayer
 62
7
100
AcDbLine
 10
30.497856
 20
296.800196
 30
0.0
 11
35.645000
 21
296.800196
 31
0.0
  0
LINE
  5
16d
100
AcDbEntity
  8
newlayer
 62
7
100
AcDbLine
 10
35.645000
 20
296.800196
 30
0.0
 11
35.645000
 21
293.700196
 31
0.0
  0
LINE
  5
16e
100
AcDbEntity
  8
newlayer
 62
7
100
AcDbLine
 10
35.645000
 20
293.700196
 30
0.0
 11
40.612142
 21
293.700196
 31
0.0
  0
LINE
  5
16f
100
AcDbEntity
  8
newlayer
 62
7
100
AcDbLine
 10
40.612142
 20
293.700196
 30
0.0
 11
40.612142
 21
296.800196
 31
0.0
  0
LINE
  5
170
100
AcDbEntity
  8
newlayer
 62
7
100
AcDbLine
 10
40.612142
 20
296.800196
 30
0.0
 11
45.759285
 21
296.800196
 31
0.0
  0
LINE
  5
171
100
AcDbEntity
  8
newlayer
 62
7
100
AcDbLine
 10
45.759285
 20
296.800196
 30
0.0
 11
45.759285
 21
293.700196
 31
0.0
  0
LINE
  5
172
100
AcDbEntity
  8
newlayer
 62
7
100
AcDbLine
 10
45.759285
 20
293.700196
 30
0.0
 11
50.726427
 21
293.700196
 31
0.0
  0
LINE
  5
173
100
AcDbEntity
  8
newlayer
 62
7
100
AcDbLine
 10
50.726427
 20
293.700196
 30
0.0
 11
50.726427
 21
296.800196
 31
0.0
  0
LINE
  5
174
100
AcDbEntity
  8
newlayer
 62
7
100
AcDbLine
 10
50.726427
 20
296.800196
 30
0.0
 11
55.873571
 21
296.800196
 31
0.0
  0
LINE
  5
175
100
AcDbEntity
  8
newlayer
 62
7
100
AcDbLine
 10
55.873571
 20
296.800196
 30
0.0
 11
55.873571
 21
293.700196
 31
0.0
  0
LINE
  5
176
100
AcDbEntity
  8
newlayer
 62
7
100
AcDbLine
 10
55.873571
 20
293.700196
 30
0.0
 11
60.840713
 21
293.700196
 31
0.0
  0
LINE
  5
177
100
AcDbEntity
  8
newlayer
 62
7
100
AcDbLine
 10
60.840713
 20
293.700196
 30
0.0
 11
60.840713
 21
296.800196
 31
0.0
  0
LINE
  5
178
100
AcDbEntity
  8
newlayer
 62
7
100
AcDbLine
 10
60.840713
 20
296.800196
 30
0.0
 11
65.987857
 21
296.800196
 31
0.0
  0
LINE
  5
179
100
AcDbEntity
  8
newlayer
 62
7
100
AcDbLine
 10
65.987857
 20
296.800196
 30
0.0
 11
65.987857
 21
293.700196
 31
0.0
  0
LINE
  5
17a
100
AcDbEntity
  8
newlayer
 62
7
100
AcDbLine
 10
65.987857
 20
293.700196
 30
0.0
 11
70.954999
 21
293.700196
 31
0.0
  0
LINE
  5
17b
100
AcDbEntity
  8
newlayer
 62
7
100
AcDbLine
 10
70.954999
 20
293.700196
 30
0.0
 11
70.954999
 21
296.800196
 31
0.0
  0
LINE
  5
17c
100
AcDbEntity
  8
newlayer
 62
7
100
AcDbLine
 10
70.954999
 20
296.800196
 30
0.0
 11
76.102142
 21
296.800196
 31
0.0
  0
LINE
  5
17d
100
AcDbEntity
  8
newlayer
 62
7
100
AcDbLine
 10
76.102142
 20
296.800196
 30
0.0
 11
76.102142
 21
293.700196
 31
0.0
  0
LINE
  5
17e
100
AcDbEntity
  8
newlayer
 62
7
100
AcDbLine
 10
76.102142
 20
293.700196
 30
0.0
 11
81.069284
 21
293.700196
 31
0.0
  0
LINE
  5
17f
100
AcDbEntity
  8
newlayer
 62
7
100
AcDbLine
 10
81.069284
 20
293.700196
 30
0.0
 11
81.069284
 21
296.800196
 31
0.0
  0
LINE
  5
180
100
AcDbEntity
  8
newlayer
 62
7
100
AcDbLine
 10
81.069284
 20
296.800196
 30
0.0
 11
86.216428
 21
296.800196
 31
0.0
  0
LINE
  5
181
100
AcDbEntity
  8
newlayer
 62
7
100
AcDbLine
 10
86.216428
 20
296.800196
 30
0.0
 11
86.216428
 21
293.700196
 31
0.0
  0
LINE
  5
182
100
AcDbEntity
  8
newlayer
 62
7
100
AcDbLine
 10
86.216428
 20
293.700196
 30
0.0
 11
91.183570
 21
293.700196
 31
0.0
  0
LINE
  5
183
100
AcDbEntity
  8
newlayer
 62
7
100
AcDbLine
 10
91.183570
 20
293.700196
 30
0.0
 11
91.183570
 21
296.800196
 31
0.0
  0
LINE
  5
184
100
AcDbEntity
  8
newlayer
 62
7
100
AcDbLine
 10
91.183570
 20
296.800196
 30
0.0
 11
96.330714
 21
296.800196
 31
0.0
  0
LINE
  5
185
100
AcDbEntity
  8
newlayer
 62
7
100
AcDbLine
 10
96.330714
 20
296.800196
 30
0.0
 11
96.330714
 21
293.700196
 31
0.0
  0
LINE
  5
186
100
AcDbEntity
  8
newlayer
 62
7
100
AcDbLine
 10
96.330714
 20
293.700196
 30
0.0
 11
101.297856
 21
293.700196
 31
0.0
  0
LINE
  5
187
100
AcDbEntity
  8
newlayer
 62
7
100
AcDbLine
 10
101.297856
 20
293.700196
 30
0.0
 11
101.297856
 21
296.800196
 31
0.0
  0
LINE
  5
188
100
AcDbEntity
  8
newlayer
 62
7
100
AcDbLine
 10
101.297856
 20
296.800196
 30
0.0
 11
106.399999
 21
296.800196
 31
0.0
  0
LINE
  5
189
100
AcDbEntity
  8
newlayer
 62
7
100
AcDbLine
 10
106.399999
 20
296.800196
 30
0.0
 11
106.399999
 21
291.621863
 31
0.0
  0
LINE
  5
18a
100
AcDbEntity
  8
newlayer
 62
7
100
AcDbLine
 10
106.399999
 20
291.621863
 30
0.0
 11
103.299999
 21
291.621863
 31
0.0
  0
LINE
  5
18b
100
AcDbEntity
  8
newlayer
 62
7
100
AcDbLine
 10
103.299999
 20
291.621863
 30
0.0
 11
103.299999
 21
286.578530
 31
0.0
  0
LINE
  5
18c
100
AcDbEntity
  8
newlayer
 62
7
100
AcDbLine
 10
103.299999
 20
286.578530
 30
0.0
 11
106.399999
 21
286.578530
 31
0.0
  0
LINE
  5
18d
100
AcDbEntity
  8
newlayer
 62
7
100
AcDbLine
 10
106.399999
 20
286.578530
 30
0.0
 11
106.399999
 21
281.355196
 31
0.0
  0
LINE
  5
18e
100
AcDbEntity
  8
newlayer
 62
7
100
AcDbLine
 10
106.399999
 20
281.355196
 30
0.0
 11
103.299999
 21
281.355196
 31
0.0
  0
LINE
  5
18f
100
AcDbEntity
  8
newlayer
 62
7
100
AcDbLine
 10
103.299999
 20
281.355196
 30
0.0
 11
103.299999
 21
276.311863
 31
0.0
  0
LINE
  5
190
100
AcDbEntity
  8
newlayer
 62
7
100
AcDbLine
 10
103.299999
 20
276.311863
 30
0.0
 11
106.399999
 21
276.311863
 31
0.0
  0
LINE
  5
191
100
AcDbEntity
  8
newlayer
 62
7
100
AcDbLine
 10
106.399999
 20
276.311863
 30
0.0
 11
106.399999
 21
271.088530
 31
0.0
  0
LINE
  5
192
100
AcDbEntity
  8
newlayer
 62
7
100
AcDbLine
 10
106.399999
 20
271.088530
 30
0.0
 11
103.299999
 21
271.088530
 31
0.0
  0
LINE
  5
193
100
AcDbEntity
  8
newlayer
 62
7
100
AcDbLine
 10
103.299999
 20
271.088530
 30
0.0
 11
103.299999
 21
266.045196
 31
0.0
  0
LINE
  5
194
100
AcDbEntity
  8
newlayer
 62
7
100
AcDbLine
 10
103.299999
 20
266.045196
 30
0.0
 11
106.399999
 21
266.045196
 31
0.0
  0
LINE
  5
195
100
AcDbEntity
  8
newlayer
 62
7
100
AcDbLine
 10
106.399999
 20
266.045196
 30
0.0
 11
106.399999
 21
260.821864
 31
0.0
  0
LINE
  5
196
100
AcDbEntity
  8
newlayer
 62
7
100
AcDbLine
 10
106.399999
 20
260.821864
 30
0.0
 11
103.299999
 21
260.821864
 31
0.0
  0
LINE
  5
197
100
AcDbEntity
  8
newlayer
 62
7
100
AcDbLine
 10
103.299999
 20
260.821864
 30
0.0
 11
103.299999
 21
255.778531
 31
0.0
  0
LINE
  5
198
100
AcDbEntity
  8
newlayer
 62
7
100
AcDbLine
 10
103.299999
 20
255.778531
 30
0.0
 11
106.399999
 21
255.778531
 31
0.0
  0
LINE
  5
199
100
AcDbEntity
  8
newlayer
 62
7
100
AcDbLine
 10
106.399999
 20
255.778531
 30
0.0
 11
106.399999
 21
250.600196
 31
0.0
  0
LINE
  5
19a
100
AcDbEntity
  8
newlayer
 62
7
100
AcDbLine
 10
106.399999
 20
250.600196
 30
0.0
 11
101.297856
 21
250.600196
 31
0.0
  0
LINE
  5
19b
100
AcDbEntity
  8
newlayer
 62
7
100
AcDbLine
 10
101.297856
 20
250.600196
 30
0.0
 11
101.297856
 21
253.700195
 31
0.0
  0
LINE
  5
19c
100
AcDbEntity
  8
newlayer
 62
7
100
AcDbLine
 10
101.297856
 20
253.700195
 30
0.0
 11
96.330714
 21
253.700195
 31
0.0
  0
LINE
  5
19d
100
AcDbEntity
  8
newlayer
 62
7
100
AcDbLine
 10
96.330714
 20
253.700195
 30
0.0
 11
96.330714
 21
250.600196
 31
0.0
  0
LINE
  5
19e
100
AcDbEntity
  8
newlayer
 62
7
100
AcDbLine
 10
96.330714
 20
250.600196
 30
0.0
 11
91.183570
 21
250.600196
 31
0.0
  0
LINE
  5
19f
100
AcDbEntity
  8
newlayer
 62
7
100
AcDbLine
 10
91.183570
 20
250.600196
 30
0.0
 11
91.183570
 21
253.700195
 31
0.0
  0
LINE
  5
1a0
100
AcDbEntity
  8
newlayer
 62
7
100
AcDbLine
 10
91.183570
 20
253.700195
 30
0.0
 11
86.216428
 21
253.700195
 31
0.0
  0
LINE
  5
1a1
100
AcDbEntity
  8
newlayer
 62
7
100
AcDbLine
 10
86.216428
 20
253.700195
 30
0.0
 11
86.216428
 21
250.600196
 31
0.0
  0
LINE
  5
1a2
100
AcDbEntity
  8
newlayer
 62
7
100
AcDbLine
 10
86.216428
 20
250.600196
 30
0.0
 11
81.069284
 21
250.600196
 31
0.0
  0
LINE
  5
1a3
100
AcDbEntity
  8
newlayer
 62
7
100
AcDbLine
 10
81.069284
 20
250.600196
 30
0.0
 11
81.069284
 21
253.700195
 31
0.0
  0
LINE
  5
1a4
100
AcDbEntity
  8
newlayer
 62
7
100
AcDbLine
 10
81.069284
 20
253.700195
 30
0.0
 11
76.102142
 21
253.700195
 31
0.0
  0
LINE
  5
1a5
100
AcDbEntity
  8
newlayer
 62
7
100
AcDbLine
 10
76.102142
 20
253.700195
 30
0.0
 11
76.102142
 21
250.600196
 31
0.0
  0
LINE
  5
1a6
100
AcDbEntity
  8
newlayer
 62
7
100
AcDbLine
 10
76.102142
 20
250.600196
 30
0.0
 11
70.954999
 21
250.600196
 31
0.0
  0
LINE
  5
1a7
100
AcDbEntity
  8
newlayer
 62
7
100
AcDbLine
 10
70.954999
 20
250.600196
 30
0.0
 11
70.954999
 21
253.700195
 31
0.0
  0
LINE
  5
1a8
100
AcDbEntity
  8
newlayer
 62
7
100
AcDbLine
 10
70.954999
 20
253.700195
 30
0.0
 11
65.987857
 21
253.700195
 31
0.0
  0
LINE
  5
1a9
100
AcDbEntity
  8
newlayer
 62
7
100
AcDbLine
 10
65.987857
 20
253.700195
 30
0.0
 11
65.987857
 21
250.600196
 31
0.0
  0
LINE
  5
1aa
100
AcDbEntity
  8
newlayer
 62
7
100
AcDbLine
 10
65.987857
 20
250.600196
 30
0.0
 11
60.840713
 21
250.600196
 31
0.0
  0
LINE
  5
1ab
100
AcDbEntity
  8
newlayer
 62
7
100
AcDbLine
 10
60.840713
 20
250.600196
 30
0.0
 11
60.840713
 21
253.700195
 31
0.0
  0
LINE
  5
1ac
100
AcDbEntity
  8
newlayer
 62
7
100
AcDbLine
 10
60.840713
 20
253.700195
 30
0.0
 11
55.873571
 21
253.700195
 31
0.0
  0
LINE
  5
1ad
100
AcDbEntity
  8
newlayer
 62
7
100
AcDbLine
 10
55.873571
 20
253.700195
 30
0.0
 11
55.873571
 21
250.600196
 31
0.0
  0
LINE
  5
1ae
100
AcDbEntity
  8
newlayer
 62
7
100
AcDbLine
 10
55.873571
 20
250.600196
 30
0.0
 11
50.726427
 21
250.600196
 31
0.0
  0
LINE
  5
1af
100
AcDbEntity
  8
newlayer
 62
7
100
AcDbLine
 10
50.726427
 20
250.600196
 30
0.0
 11
50.726427
 21
253.700195
 31
0.0
  0
LINE
  5
1b0
100
AcDbEntity
  8
newlayer
 62
7
100
AcDbLine
 10
50.726427
 20
253.700195
 30
0.0
 11
45.759285
 21
253.700195
 31
0.0
  0
LINE
  5
1b1
100
AcDbEntity
  8
newlayer
 62
7
100
AcDbLine
 10
45.759285
 20
253.700195
 30
0.0
 11
45.759285
 21
250.600196
 31
0.0
  0
LINE
  5
1b2
100
AcDbEntity
  8
newlayer
 62
7
100
AcDbLine
 10
45.759285
 20
250.600196
 30
0.0
 11
40.612142
 21
250.600196
 31
0.0
  0
LINE
  5
1b3
100
AcDbEntity
  8
newlayer
 62
7
100
AcDbLine
 10
40.612142
 20
250.600196
 30
0.0
 11
40.612142
 21
253.700195
 31
0.0
  0
LINE
  5
1b4
100
AcDbEntity
  8
newlayer
 62
7
100
AcDbLine
 10
40.612142
 20
253.700195
 30
0.0
 11
35.645000
 21
253.700195
 31
0.0
  0
LINE
  5
1b5
100
AcDbEntity
  8
newlayer
 62
7
100
AcDbLine
 10
35.645000
 20
253.700195
 30
0.0
 11
35.645000
 21
250.600196
 31
0.0
  0
LINE
  5
1b6
100
AcDbEntity
  8
newlayer
 62
7
100
AcDbLine
 10
35.645000
 20
250.600196
 30
0.0
 11
30.497856
 21
250.600196
 31
0.0
  0
LINE
  5
1b7
100
AcDbEntity
  8
newlayer
 62
7
100
AcDbLine
 10
30.497856
 20
250.600196
 30
0.0
 11
30.497856
 21
253.700195
 31
0.0
  0
LINE
  5
1b8
100
AcDbEntity
  8
newlayer
 62
7
100
AcDbLine
 10
30.497856
 20
253.700195
 30
0.0
 11
25.530714
 21
253.700195
 31
0.0
  0
LINE
  5
1b9
100
AcDbEntity
  8
newlayer
 62
7
100
AcDbLine
 10
25.530714
 20
253.700195
 30
0.0
 11
25.530714
 21
250.600196
 31
0.0
  0
LINE
  5
1ba
100
AcDbEntity
  8
newlayer
 62
7
100
AcDbLine
 10
25.530714
 20
250.600196
 30
0.0
 11
20.383571
 21
250.600196
 31
0.0
  0
LINE
  5
1bb
100
AcDbEntity
  8
newlayer
 62
7
100
AcDbLine
 10
20.383571
 20
250.600196
 30
0.0
 11
20.383571
 21
253.700195
 31
0.0
  0
LINE
  5
1bc
100
AcDbEntity
  8
newlayer
 62
7
100
AcDbLine
 10
20.383571
 20
253.700195
 30
0.0
 11
15.416429
 21
253.700195
 31
0.0
  0
LINE
  5
1bd
100
AcDbEntity
  8
newlayer
 62
7
100
AcDbLine
 10
15.416429
 20
253.700195
 30
0.0
 11
15.416429
 21
250.600196
 31
0.0
  0
LINE
  5
1be
100
AcDbEntity
  8
newlayer
 62
7
100
AcDbLine
 10
15.416429
 20
250.600196
 30
0.0
 11
10.269286
 21
250.600196
 31
0.0
  0
LINE
  5
1bf
100
AcDbEntity
  8
newlayer
 62
7
100
AcDbLine
 10
10.269286
 20
250.600196
 30
0.0
 11
10.269286
 21
253.700195
 31
0.0
  0
LINE
  5
1c0
100
AcDbEntity
  8
newlayer
 62
7
100
AcDbLine
 10
10.269286
 20
253.700195
 30
0.0
 11
5.302143
 21
253.700195
 31
0.0
  0
LINE
  5
1c1
100
AcDbEntity
  8
newlayer
 62
7
100
AcDbLine
 10
5.302143
 20
253.700195
 30
0.0
 11
5.302143
 21
250.600196
 31
0.0
  0
LINE
  5
1c2
100
AcDbEntity
  8
newlayer
 62
7
100
AcDbLine
 10
5.302143
 20
250.600196
 30
0.0
 11
0.200000
 21
250.600196
 31
0.0
  0
LINE
  5
1c3
100
AcDbEntity
  8
newlayer
 62
7
100
AcDbLine
 10
0.200000
 20
250.600196
 30
0.0
 11
0.200000
 21
255.778531
 31
0.0
  0
LINE
  5
1c4
100
AcDbEntity
  8
newlayer
 62
7
100
AcDbLine
 10
0.200000
 20
255.778531
 30
0.0
 11
3.300000
 21
255.778531
 31
0.0
  0
LINE
  5
1c5
100
AcDbEntity
  8
newlayer
 62
7
100
AcDbLine
 10
3.300000
 20
255.778531
 30
0.0
 11
3.300000
 21
260.821864
 31
0.0
  0
LINE
  5
1c6
100
AcDbEntity
  8
newlayer
 62
7
100
AcDbLine
 10
3.300000
 20
260.821864
 30
0.0
 11
0.200000
 21
260.821864
 31
0.0
  0
LINE
  5
1c7
100
AcDbEntity
  8
newlayer
 62
7
100
AcDbLine
 10
0.200000
 20
260.821864
 30
0.0
 11
0.200000
 21
266.045196
 31
0.0
  0
LINE
  5
1c8
100
AcDbEntity
  8
newlayer
 62
7
100
AcDbLine
 10
0.200000
 20
266.045196
 30
0.0
 11
3.300000
 21
266.045196
 31
0.0
  0
LINE
  5
1c9
100
AcDbEntity
  8
newlayer
 62
7
100
AcDbLine
 10
3.300000
 20
266.045196
 30
0.0
 11
3.300000
 21
271.088530
 31
0.0
  0
LINE
  5
1ca
100
AcDbEntity
  8
newlayer
 62
7
100
AcDbLine
 10
3.300000
 20
271.088530
 30
0.0
 11
0.200000
 21
271.088530
 31
0.0
  0
LINE
  5
1cb
100
AcDbEntity
  8
newlayer
 62
7
100
AcDbLine
 10
0.200000
 20
271.088530
 30
0.0
 11
0.200000
 21
276.311863
 31
0.0
  0
LINE
  5
1cc
100
AcDbEntity
  8
newlayer
 62
7
100
AcDbLine
 10
0.200000
 20
276.311863
 30
0.0
 11
3.300000
 21
276.311863
 31
0.0
  0
LINE
  5
1cd
100
AcDbEntity
  8
newlayer
 62
7
100
AcDbLine
 10
3.300000
 20
276.311863
 30
0.0
 11
3.300000
 21
281.355196
 31
0.0
  0
LINE
  5
1ce
100
AcDbEntity
  8
newlayer
 62
7
100
AcDbLine
 10
3.300000
 20
281.355196
 30
0.0
 11
0.200000
 21
281.355196
 31
0.0
  0
LINE
  5
1cf
100
AcDbEntity
  8
newlayer
 62
7
100
AcDbLine
 10
0.200000
 20
281.355196
 30
0.0
 11
0.200000
 21
286.578530
 31
0.0
  0
LINE
  5
1d0
100
AcDbEntity
  8
newlayer
 62
7
100
AcDbLine
 10
0.200000
 20
286.578530
 30
0.0
 11
3.300000
 21
286.578530
 31
0.0
  0
LINE
  5
1d1
100
AcDbEntity
  8
newlayer
 62
7
100
AcDbLine
 10
3.300000
 20
286.578530
 30
0.0
 11
3.300000
 21
291.621863
 31
0.0
  0
LINE
  5
1d2
100
AcDbEntity
  8
newlayer
 62
7
100
AcDbLine
 10
3.300000
 20
291.621863
 30
0.0
 11
0.200000
 21
291.621863
 31
0.0
  0
LINE
  5
1d3
100
AcDbEntity
  8
newlayer
 62
7
100
AcDbLine
 10
0.200000
 20
291.621863
 30
0.0
 11
0.200000
 21
296.800196
 31
0.0
  0
LINE
  5
1d4
100
AcDbEntity
  8
newlayer
 62
7
100
AcDbLine
 10
106.599998
 20
296.800196
 30
0.0
 11
111.702142
 21
296.800196
 31
0.0
  0
LINE
  5
1d5
100
AcDbEntity
  8
newlayer
 62
7
100
AcDbLine
 10
111.702142
 20
296.800196
 30
0.0
 11
111.702142
 21
293.700196
 31
0.0
  0
LINE
  5
1d6
100
AcDbEntity
  8
newlayer
 62
7
100
AcDbLine
 10
111.702142
 20
293.700196
 30
0.0
 11
116.669287
 21
293.700196
 31
0.0
  0
LINE
  5
1d7
100
AcDbEntity
  8
newlayer
 62
7
100
AcDbLine
 10
116.669287
 20
293.700196
 30
0.0
 11
116.669287
 21
296.800196
 31
0.0
  0
LINE
  5
1d8
100
AcDbEntity
  8
newlayer
 62
7
100
AcDbLine
 10
116.669287
 20
296.800196
 30
0.0
 11
121.816427
 21
296.800196
 31
0.0
  0
LINE
  5
1d9
100
AcDbEntity
  8
newlayer
 62
7
100
AcDbLine
 10
121.816427
 20
296.800196
 30
0.0
 11
121.816427
 21
293.700196
 31
0.0
  0
LINE
  5
1da
100
AcDbEntity
  8
newlayer
 62
7
100
AcDbLine
 10
121.816427
 20
293.700196
 30
0.0
 11
126.783572
 21
293.700196
 31
0.0
  0
LINE
  5
1db
100
AcDbEntity
  8
newlayer
 62
7
100
AcDbLine
 10
126.783572
 20
293.700196
 30
0.0
 11
126.783572
 21
296.800196
 31
0.0
  0
LINE
  5
1dc
100
AcDbEntity
  8
newlayer
 62
7
100
AcDbLine
 10
126.783572
 20
296.800196
 30
0.0
 11
131.930713
 21
296.800196
 31
0.0
  0
LINE
  5
1dd
100
AcDbEntity
  8
newlayer
 62
7
100
AcDbLine
 10
131.930713
 20
296.800196
 30
0.0
 11
131.930713
 21
293.700196
 31
0.0
  0
LINE
  5
1de
100
AcDbEntity
  8
newlayer
 62
7
100
AcDbLine
 10
131.930713
 20
293.700196
 30
0.0
 11
136.897858
 21
293.700196
 31
0.0
  0
LINE
  5
1df
100
AcDbEntity
  8
newlayer
 62
7
100
AcDbLine
 10
136.897858
 20
293.700196
 30
0.0
 11
136.897858
 21
296.800196
 31
0.0
  0
LINE
  5
1e0
100
AcDbEntity
  8
newlayer
 62
7
100
AcDbLine
 10
136.897858
 20
296.800196
 30
0.0
 11
142.044999
 21
296.800196
 31
0.0
  0
LINE
  5
1e1
100
AcDbEntity
  8
newlayer
 62
7
100
AcDbLine
 10
142.044999
 20
296.800196
 30
0.0
 11
142.044999
 21
293.700196
 31
0.0
  0
LINE
  5
1e2
100
AcDbEntity
  8
newlayer
 62
7
100
AcDbLine
 10
142.044999
 20
293.700196
 30
0.0
 11
147.012144
 21
293.700196
 31
0.0
  0
LINE
  5
1e3
100
AcDbEntity
  8
newlayer
 62
7
100
AcDbLine
 10
147.012144
 20
293.700196
 30
0.0
 11
147.012144
 21
296.800196
 31
0.0
  0
LINE
  5
1e4
100
AcDbEntity
  8
newlayer
 62
7
100
AcDbLine
 10
147.012144
 20
296.800196
 30
0.0
 11
152.159284
 21
296.800196
 31
0.0
  0
LINE
  5
1e5
100
AcDbEntity
  8
newlayer
 62
7
100
AcDbLine
 10
152.159284
 20
296.800196
 30
0.0
 11
152.159284
 21
293.700196
 31
0.0
  0
LINE
  5
1e6
100
AcDbEntity
  8
newlayer
 62
7
100
AcDbLine
 10
152.159284
 20
293.700196
 30
0.0
 11
157.126429
 21
293.700196
 31
0.0
  0
LINE
  5
1e7
100
AcDbEntity
  8
newlayer
 62
7
100
AcDbLine
 10
157.126429
 20
293.700196
 30
0.0
 11
157.126429
 21
296.800196
 31
0.0
  0
LINE
  5
1e8
100
AcDbEntity
  8
newlayer
 62
7
100
AcDbLine
 10
157.126429
 20
296.800196
 30
0.0
 11
162.273570
 21
296.800196
 31
0.0
  0
LINE
  5
1e9
100
AcDbEntity
  8
newlayer
 62
7
100
AcDbLine
 10
162.273570
 20
296.800196
 30
0.0
 11
162.273570
 21
293.700196
 31
0.0
  0
LINE
  5
1ea
100
AcDbEntity
  8
newlayer
 62
7
100
AcDbLine
 10
162.273570
 20
293.700196
 30
0.0
 11
167.240715
 21
293.700196
 31
0.0
  0
LINE
  5
1eb
100
AcDbEntity
  8
newlayer
 62
7
100
AcDbLine
 10
167.240715
 20
293.700196
 30
0.0
 11
167.240715
 21
296.800196
 31
0.0
  0
LINE
  5
1ec
100
AcDbEntity
  8
newlayer
 62
7
100
AcDbLine
 10
167.240715
 20
296.800196
 30
0.0
 11
172.387855
 21
296.800196
 31
0.0
  0
LINE
  5
1ed
100
AcDbEntity
  8
newlayer
 62
7
100
AcDbLine
 10
172.387855
 20
296.800196
 30
0.0
 11
172.387855
 21
293.700196
 31
0.0
  0
LINE
  5
1ee
100
AcDbEntity
  8
newlayer
 62
7
100
AcDbLine
 10
172.387855
 20
293.700196
 30
0.0
 11
177.355000
 21
293.700196
 31
0.0
  0
LINE
  5
1ef
100
AcDbEntity
  8
newlayer
 62
7
100
AcDbLine
 10
177.355000
 20
293.700196
 30
0.0
 11
177.355000
 21
296.800196
 31
0.0
  0
LINE
  5
1f0
100
AcDbEntity
  8
newlayer
 62
7
100
AcDbLine
 10
177.355000
 20
296.800196
 30
0.0
 11
182.502141
 21
296.800196
 31
0.0
  0
LINE
  5
1f1
100
AcDbEntity
  8
newlayer
 62
7
100
AcDbLine
 10
182.502141
 20
296.800196
 30
0.0
 11
182.502141
 21
293.700196
 31
0.0
  0
LINE
  5
1f2
100
AcDbEntity
  8
newlayer
 62
7
100
AcDbLine
 10
182.502141
 20
293.700196
 30
0.0
 11
187.469286
 21
293.700196
 31
0.0
  0
LINE
  5
1f3
100
AcDbEntity
  8
newlayer
 62
7
100
AcDbLine
 10
187.469286
 20
293.700196
 30
0.0
 11
187.469286
 21
296.800196
 31
0.0
  0
LINE
  5
1f4
100
AcDbEntity
  8
newlayer
 62
7
100
AcDbLine
 10
187.469286
 20
296.800196
 30
0.0
 11
192.616430
 21
296.800196
 31
0.0
  0
LINE
  5
1f5
100
AcDbEntity
  8
newlayer
 62
7
100
AcDbLine
 10
192.616430
 20
296.800196
 30
0.0
 11
192.616430
 21
293.700196
 31
0.0
  0
LINE
  5
1f6
100
AcDbEntity
  8
newlayer
 62
7
100
AcDbLine
 10
192.616430
 20
293.700196
 30
0.0
 11
197.583572
 21
293.700196
 31
0.0
  0
LINE
  5
1f7
100
AcDbEntity
  8
newlayer
 62
7
100
AcDbLine
 10
197.583572
 20
293.700196
 30
0.0
 11
197.583572
 21
296.800196
 31
0.0
  0
LINE
  5
1f8
100
AcDbEntity
  8
newlayer
 62
7
100
AcDbLine
 10
197.583572
 20
296.800196
 30
0.0
 11
202.730715
 21
296.800196
 31
0.0
  0
LINE
  5
1f9
100
AcDbEntity
  8
newlayer
 62
7
100
AcDbLine
 10
202.730715
 20
296.800196
 30
0.0
 11
202.730715
 21
293.700196
 31
0.0
  0
LINE
  5
1fa
100
AcDbEntity
  8
newlayer
 62
7
100
AcDbLine
 10
202.730715
 20
293.700196
 30
0.0
 11
207.697857
 21
293.700196
 31
0.0
  0
LINE
  5
1fb
100
AcDbEntity
  8
newlayer
 62
7
100
AcDbLine
 10
207.697857
 20
293.700196
 30
0.0
 11
207.697857
 21
296.800196
 31
0.0
  0
LINE
  5
1fc
100
AcDbEntity
  8
newlayer
 62
7
100
AcDbLine
 10
207.697857
 20
296.800196
 30
0.0
 11
212.800001
 21
296.800196
 31
0.0
  0
LINE
  5
1fd
100
AcDbEntity
  8
newlayer
 62
7
100
AcDbLine
 10
212.800001
 20
296.800196
 30
0.0
 11
212.800001
 21
291.621863
 31
0.0
  0
LINE
  5
1fe
100
AcDbEntity
  8
newlayer
 62
7
100
AcDbLine
 10
212.800001
 20
291.621863
 30
0.0
 11
209.700001
 21
291.621863
 31
0.0
  0
LINE
  5
1ff
100
AcDbEntity
  8
newlayer
 62
7
100
AcDbLine
 10
209.700001
 20
291.621863
 30
0.0
 11
209.700001
 21
286.578530
 31
0.0
  0
LINE
  5
200
100
AcDbEntity
  8
newlayer
 62
7
100
AcDbLine
 10
209.700001
 20
286.578530
 30
0.0
 11
212.800001
 21
286.578530
 31
0.0
  0
LINE
  5
201
100
AcDbEntity
  8
newlayer
 62
7
100
AcDbLine
 10
212.800001
 20
286.578530
 30
0.0
 11
212.800001
 21
281.355196
 31
0.0
  0
LINE
  5
202
100
AcDbEntity
  8
newlayer
 62
7
100
AcDbLine
 10
212.800001
 20
281.355196
 30
0.0
 11
209.700001
 21
281.355196
 31
0.0
  0
LINE
  5
203
100
AcDbEntity
  8
newlayer
 62
7
100
AcDbLine
 10
209.700001
 20
281.355196
 30
0.0
 11
209.700001
 21
276.311863
 31
0.0
  0
LINE
  5
204
100
AcDbEntity
  8
newlayer
 62
7
100
AcDbLine
 10
209.700001
 20
276.311863
 30
0.0
 11
212.800001
 21
276.311863
 31
0.0
  0
LINE
  5
205
100
AcDbEntity
  8
newlayer
 62
7
100
AcDbLine
 10
212.800001
 20
276.311863
 30
0.0
 11
212.800001
 21
271.088530
 31
0.0
  0
LINE
  5
206
100
AcDbEntity
  8
newlayer
 62
7
100
AcDbLine
 10
212.800001
 20
271.088530
 30
0.0
 11
209.700001
 21
271.088530
 31
0.0
  0
LINE
  5
207
100
AcDbEntity
  8
newlayer
 62
7
100
AcDbLine
 10
209.700001
 20
271.088530
 30
0.0
 11
209.700001
 21
266.045196
 31
0.0
  0
LINE
  5
208
100
AcDbEntity
  8
newlayer
 62
7
100
AcDbLine
 10
209.700001
 20
266.045196
 30
0.0
 11
212.800001
 21
266.045196
 31
0.0
  0
LINE
  5
209
100
AcDbEntity
  8
newlayer
 62
7
100
AcDbLine
 10
212.800001
 20
266.045196
 30
0.0
 11
212.800001
 21
260.821864
 31
0.0
  0
LINE
  5
20a
100
AcDbEntity
  8
newlayer
 62
7
100
AcDbLine
 10
212.800001
 20
260.821864
 30
0.0
 11
209.700001
 21
260.821864
 31
0.0
  0
LINE
  5
20b
100
AcDbEntity
  8
newlayer
 62
7
100
AcDbLine
 10
209.700001
 20
260.821864
 30
0.0
 11
209.700001
 21
255.778531
 31
0.0
  0
LINE
  5
20c
100
AcDbEntity
  8
newlayer
 62
7
100
AcDbLine
 10
209.700001
 20
255.778531
 30
0.0
 11
212.800001
 21
255.778531
 31
0.0
  0
LINE
  5
20d
100
AcDbEntity
  8
newlayer
 62
7
100
AcDbLine
 10
212.800001
 20
255.778531
 30
0.0
 11
212.800001
 21
250.600196
 31
0.0
  0
LINE
  5
20e
100
AcDbEntity
  8
newlayer
 62
7
100
AcDbLine
 10
212.800001
 20
250.600196
 30
0.0
 11
207.697857
 21
250.600196
 31
0.0
  0
LINE
  5
20f
100
AcDbEntity
  8
newlayer
 62
7
100
AcDbLine
 10
207.697857
 20
250.600196
 30
0.0
 11
207.697857
 21
253.700195
 31
0.0
  0
LINE
  5
210
100
AcDbEntity
  8
newlayer
 62
7
100
AcDbLine
 10
207.697857
 20
253.700195
 30
0.0
 11
202.730715
 21
253.700195
 31
0.0
  0
LINE
  5
211
100
AcDbEntity
  8
newlayer
 62
7
100
AcDbLine
 10
202.730715
 20
253.700195
 30
0.0
 11
202.730715
 21
250.600196
 31
0.0
  0
LINE
  5
212
100
AcDbEntity
  8
newlayer
 62
7
100
AcDbLine
 10
202.730715
 20
250.600196
 30
0.0
 11
197.583572
 21
250.600196
 31
0.0
  0
LINE
  5
213
100
AcDbEntity
  8
newlayer
 62
7
100
AcDbLine
 10
197.583572
 20
250.600196
 30
0.0
 11
197.583572
 21
253.700195
 31
0.0
  0
LINE
  5
214
100
AcDbEntity
  8
newlayer
 62
7
100
AcDbLine
 10
197.583572
 20
253.700195
 30
0.0
 11
192.616430
 21
253.700195
 31
0.0
  0
LINE
  5
215
100
AcDbEntity
  8
newlayer
 62
7
100
AcDbLine
 10
192.616430
 20
253.700195
 30
0.0
 11
192.616430
 21
250.600196
 31
0.0
  0
LINE
  5
216
100
AcDbEntity
  8
newlayer
 62
7
100
AcDbLine
 10
192.616430
 20
250.600196
 30
0.0
 11
187.469286
 21
250.600196
 31
0.0
  0
LINE
  5
217
100
AcDbEntity
  8
newlayer
 62
7
100
AcDbLine
 10
187.469286
 20
250.600196
 30
0.0
 11
187.469286
 21
253.700195
 31
0.0
  0
LINE
  5
218
100
AcDbEntity
  8
newlayer
 62
7
100
AcDbLine
 10
187.469286
 20
253.700195
 30
0.0
 11
182.502141
 21
253.700195
 31
0.0
  0
LINE
  5
219
100
AcDbEntity
  8
newlayer
 62
7
100
AcDbLine
 10
182.502141
 20
253.700195
 30
0.0
 11
182.502141
 21
250.600196
 31
0.0
  0
LINE
  5
21a
100
AcDbEntity
  8
newlayer
 62
7
100
AcDbLine
 10
182.502141
 20
250.600196
 30
0.0
 11
177.355000
 21
250.600196
 31
0.0
  0
LINE
  5
21b
100
AcDbEntity
  8
newlayer
 62
7
100
AcDbLine
 10
177.355000
 20
250.600196
 30
0.0
 11
177.355000
 21
253.700195
 31
0.0
  0
LINE
  5
21c
100
AcDbEntity
  8
newlayer
 62
7
100
AcDbLine
 10
177.355000
 20
253.700195
 30
0.0
 11
172.387855
 21
253.700195
 31
0.0
  0
LINE
  5
21d
100
AcDbEntity
  8
newlayer
 62
7
100
AcDbLine
 10
172.387855
 20
253.700195
 30
0.0
 11
172.387855
 21
250.600196
 31
0.0
  0
LINE
  5
21e
100
AcDbEntity
  8
newlayer
 62
7
100
AcDbLine
 10
172.387855
 20
250.600196
 30
0.0
 11
167.240715
 21
250.600196
 31
0.0
  0
LINE
  5
21f
100
AcDbEntity
  8
newlayer
 62
7
100
AcDbLine
 10
167.240715
 20
250.600196
 30
0.0
 11
167.240715
 21
253.700195
 31
0.0
  0
LINE
  5
220
100
AcDbEntity
  8
newlayer
 62
7
100
AcDbLine
 10
167.240715
 20
253.700195
 30
0.0
 11
162.273570
 21
253.700195
 31
0.0
  0
LINE
  5
221
100
AcDbEntity
  8
newlayer
 62
7
100
AcDbLine
 10
162.273570
 20
253.700195
 30
0.0
 11
162.273570
 21
250.600196
 31
0.0
  0
LINE
  5
222
100
AcDbEntity
  8
newlayer
 62
7
100
AcDbLine
 10
162.273570
 20
250.600196
 30
0.0
 11
157.126429
 21
250.600196
 31
0.0
  0
LINE
  5
223
100
AcDbEntity
  8
newlayer
 62
7
100
AcDbLine
 10
157.126429
 20
250.600196
 30
0.0
 11
157.126429
 21
253.700195
 31
0.0
  0
LINE
  5
224
100
AcDbEntity
  8
newlayer
 62
7
100
AcDbLine
 10
157.126429
 20
253.700195
 30
0.0
 11
152.159284
 21
253.700195
 31
0.0
  0
LINE
  5
225
100
AcDbEntity
  8
newlayer
 62
7
100
AcDbLine
 10
152.159284
 20
253.700195
 30
0.0
 11
152.159284
 21
250.600196
 31
0.0
  0
LINE
  5
226
100
AcDbEntity
  8
newlayer
 62
7
100
AcDbLine
 10
152.159284
 20
250.600196
 30
0.0
 11
147.012144
 21
250.600196
 31
0.0
  0
LINE
  5
227
100
AcDbEntity
  8
newlayer
 62
7
100
AcDbLine
 10
147.012144
 20
250.600196
 30
0.0
 11
147.012144
 21
253.700195
 31
0.0
  0
LINE
  5
228
100
AcDbEntity
  8
newlayer
 62
7
100
AcDbLine
 10
147.012144
 20
253.700195
 30
0.0
 11
142.044999
 21
253.700195
 31
0.0
  0
LINE
  5
229
100
AcDbEntity
  8
newlayer
 62
7
100
AcDbLine
 10
142.044999
 20
253.700195
 30
0.0
 11
142.044999
 21
250.600196
 31
0.0
  0
LINE
  5
22a
100
AcDbEntity
  8
newlayer
 62
7
100
AcDbLine
 10
142.044999
 20
250.600196
 30
0.0
 11
136.897858
 21
250.600196
 31
0.0
  0
LINE
  5
22b
100
AcDbEntity
  8
newlayer
 62
7
100
AcDbLine
 10
136.897858
 20
250.600196
 30
0.0
 11
136.897858
 21
253.700195
 31
0.0
  0
LINE
  5
22c
100
AcDbEntity
  8
newlayer
 62
7
100
AcDbLine
 10
136.897858
 20
253.700195
 30
0.0
 11
131.930713
 21
253.700195
 31
0.0
  0
LINE
  5
22d
100
AcDbEntity
  8
newlayer
 62
7
100
AcDbLine
 10
131.930713
 20
253.700195
 30
0.0
 11
131.930713
 21
250.600196
 31
0.0
  0
LINE
  5
22e
100
AcDbEntity
  8
newlayer
 62
7
100
AcDbLine
 10
131.930713
 20
250.600196
 30
0.0
 11
126.783572
 21
250.600196
 31
0.0
  0
LINE
  5
22f
100
AcDbEntity
  8
newlayer
 62
7
100
AcDbLine
 10
126.783572
 20
250.600196
 30
0.0
 11
126.783572
 21
253.700195
 31
0.0
  0
LINE
  5
230
100
AcDbEntity
  8
newlayer
 62
7
100
AcDbLine
 10
126.783572
 20
253.700195
 30
0.0
 11
121.816427
 21
253.700195
 31
0.0
  0
LINE
  5
231
100
AcDbEntity
  8
newlayer
 62
7
100
AcDbLine
 10
121.816427
 20
253.700195
 30
0.0
 11
121.816427
 21
250.600196
 31
0.0
  0
LINE
  5
232
100
AcDbEntity
  8
newlayer
 62
7
100
AcDbLine
 10
121.816427
 20
250.600196
 30
0.0
 11
116.669287
 21
250.600196
 31
0.0
  0
LINE
  5
233
100
AcDbEntity
  8
newlayer
 62
7
100
AcDbLine
 10
116.669287
 20
250.600196
 30
0.0
 11
116.669287
 21
253.700195
 31
0.0
  0
LINE
  5
234
100
AcDbEntity
  8
newlayer
 62
7
100
AcDbLine
 10
116.669287
 20
253.700195
 30
0.0
 11
111.702142
 21
253.700195
 31
0.0
  0
LINE
  5
235
100
AcDbEntity
  8
newlayer
 62
7
100
AcDbLine
 10
111.702142
 20
253.700195
 30
0.0
 11
111.702142
 21
250.600196
 31
0.0
  0
LINE
  5
236
100
AcDbEntity
  8
newlayer
 62
7
100
AcDbLine
 10
111.702142
 20
250.600196
 30
0.0
 11
106.599998
 21
250.600196
 31
0.0
  0
LINE
  5
237
100
AcDbEntity
  8
newlayer
 62
7
100
AcDbLine
 10
106.599998
 20
250.600196
 30
0.0
 11
106.599998
 21
255.778531
 31
0.0
  0
LINE
  5
238
100
AcDbEntity
  8
newlayer
 62
7
100
AcDbLine
 10
106.599998
 20
255.778531
 30
0.0
 11
109.700001
 21
255.778531
 31
0.0
  0
LINE
  5
239
100
AcDbEntity
  8
newlayer
 62
7
100
AcDbLine
 10
109.700001
 20
255.778531
 30
0.0
 11
109.700001
 21
260.821864
 31
0.0
  0
LINE
  5
23a
100
AcDbEntity
  8
newlayer
 62
7
100
AcDbLine
 10
109.700001
 20
260.821864
 30
0.0
 11
106.599998
 21
260.821864
 31
0.0
  0
LINE
  5
23b
100
AcDbEntity
  8
newlayer
 62
7
100
AcDbLine
 10
106.599998
 20
260.821864
 30
0.0
 11
106.599998
 21
266.045196
 31
0.0
  0
LINE
  5
23c
100
AcDbEntity
  8
newlayer
 62
7
100
AcDbLine
 10
106.599998
 20
266.045196
 30
0.0
 11
109.700001
 21
266.045196
 31
0.0
  0
LINE
  5
23d
100
AcDbEntity
  8
newlayer
 62
7
100
AcDbLine
 10
109.700001
 20
266.045196
 30
0.0
 11
109.700001
 21
271.088530
 31
0.0
  0
LINE
  5
23e
100
AcDbEntity
  8
newlayer
 62
7
100
AcDbLine
 10
109.700001
 20
271.088530
 30
0.0
 11
106.599998
 21
271.088530
 31
0.0
  0
LINE
  5
23f
100
AcDbEntity
  8
newlayer
 62
7
100
AcDbLine
 10
106.599998
 20
271.088530
 30
0.0
 11
106.599998
 21
276.311863
 31
0.0
  0
LINE
  5
240
100
AcDbEntity
  8
newlayer
 62
7
100
AcDbLine
 10
106.599998
 20
276.311863
 30
0.0
 11
109.700001
 21
276.311863
 31
0.0
  0
LINE
  5
241
100
AcDbEntity
  8
newlayer
 62
7
100
AcDbLine
 10
109.700001
 20
276.311863
 30
0.0
 11
109.700001
 21
281.355196
 31
0.0
  0
LINE
  5
242
100
AcDbEntity
  8
newlayer
 62
7
100
AcDbLine
 10
109.700001
 20
281.355196
 30
0.0
 11
106.599998
 21
281.355196
 31
0.0
  0
LINE
  5
243
100
AcDbEntity
  8
newlayer
 62
7
100
AcDbLine
 10
106.599998
 20
281.355196
 30
0.0
 11
106.599998
 21
286.578530
 31
0.0
  0
LINE
  5
244
100
AcDbEntity
  8
newlayer
 62
7
100
AcDbLine
 10
106.599998
 20
286.578530
 30
0.0
 11
109.700001
 21
286.578530
 31
0.0
  0
LINE
  5
245
100
AcDbEntity
  8
newlayer
 62
7
100
AcDbLine
 10
109.700001
 20
286.578530
 30
0.0
 11
109.700001
 21
291.621863
 31
0.0
  0
LINE
  5
246
100
AcDbEntity
  8
newlayer
 62
7
100
AcDbLine
 10
109.700001
 20
291.621863
 30
0.0
 11
106.599998
 21
291.621863
 31
0.0
  0
LINE
  5
247
100
AcDbEntity
  8
newlayer
 62
7
100
AcDbLine
 10
106.599998
 20
291.621863
 30
0.0
 11
106.599998
 21
296.800196
 31
0.0
  0
LINE
  5
248
100
AcDbEntity
  8
newlayer
 62
7
100
AcDbLine
 10
216.100000
 20
296.800196
 30
0.0
 11
218.089443
 21
296.800196
 31
0.0
  0
LINE
  5
249
100
AcDbEntity
  8
newlayer
 62
7
100
AcDbLine
 10
218.089443
 20
296.800196
 30
0.0
 11
218.089443
 21
293.700196
 31
0.0
  0
LINE
  5
24a
100
AcDbEntity
  8
newlayer
 62
7
100
AcDbLine
 10
218.089443
 20
293.700196
 30
0.0
 11
223.043888
 21
293.700196
 31
0.0
  0
LINE
  5
24b
100
AcDbEntity
  8
newlayer
 62
7
100
AcDbLine
 10
223.043888
 20
293.700196
 30
0.0
 11
223.043888
 21
296.800196
 31
0.0
  0
LINE
  5
24c
100
AcDbEntity
  8
newlayer
 62
7
100
AcDbLine
 10
223.043888
 20
296.800196
 30
0.0
 11
228.178332
 21
296.800196
 31
0.0
  0
LINE
  5
24d
100
AcDbEntity
  8
newlayer
 62
7
100
AcDbLine
 10
228.178332
 20
296.800196
 30
0.0
 11
228.178332
 21
293.700196
 31
0.0
  0
LINE
  5
24e
100
AcDbEntity
  8
newlayer
 62
7
100
AcDbLine
 10
228.178332
 20
293.700196
 30
0.0
 11
233.132777
 21
293.700196
 31
0.0
  0
LINE
  5
24f
100
AcDbEntity
  8
newlayer
 62
7
100
AcDbLine
 10
233.132777
 20
293.700196
 30
0.0
 11
233.132777
 21
296.800196
 31
0.0
  0
LINE
  5
250
100
AcDbEntity
  8
newlayer
 62
7
100
AcDbLine
 10
233.132777
 20
296.800196
 30
0.0
 11
238.267223
 21
296.800196
 31
0.0
  0
LINE
  5
251
100
AcDbEntity
  8
newlayer
 62
7
100
AcDbLine
 10
238.267223
 20
296.800196
 30
0.0
 11
238.267223
 21
293.700196
 31
0.0
  0
LINE
  5
252
100
AcDbEntity
  8
newlayer
 62
7
100
AcDbLine
 10
238.267223
 20
293.700196
 30
0.0
 11
243.221665
 21
293.700196
 31
0.0
  0
LINE
  5
253
100
AcDbEntity
  8
newlayer
 62
7
100
AcDbLine
 10
243.221665
 20
293.700196
 30
0.0
 11
243.221665
 21
296.800196
 31
0.0
  0
LINE
  5
254
100
AcDbEntity
  8
newlayer
 62
7
100
AcDbLine
 10
243.221665
 20
296.800196
 30
0.0
 11
248.356112
 21
296.800196
 31
0.0
  0
LINE
  5
255
100
AcDbEntity
  8
newlayer
 62
7
100
AcDbLine
 10
248.356112
 20
296.800196
 30
0.0
 11
248.356112
 21
293.700196
 31
0.0
  0
LINE
  5
256
100
AcDbEntity
  8
newlayer
 62
7
100
AcDbLine
 10
248.356112
 20
293.700196
 30
0.0
 11
253.310557
 21
293.700196
 31
0.0
  0
LINE
  5
257
100
AcDbEntity
  8
newlayer
 62
7
100
AcDbLine
 10
253.310557
 20
293.700196
 30
0.0
 11
253.310557
 21
296.800196
 31
0.0
  0
LINE
  5
258
100
AcDbEntity
  8
newlayer
 62
7
100
AcDbLine
 10
253.310557
 20
296.800196
 30
0.0
 11
258.445000
 21
296.800196
 31
0.0
  0
LINE
  5
259
100
AcDbEntity
  8
newlayer
 62
7
100
AcDbLine
 10
258.445000
 20
296.800196
 30
0.0
 11
258.445000
 21
293.700196
 31
0.0
  0
LINE
  5
25a
100
AcDbEntity
  8
newlayer
 62
7
100
AcDbLine
 10
258.445000
 20
293.700196
 30
0.0
 11
263.399445
 21
293.700196
 31
0.0
  0
LINE
  5
25b
100
AcDbEntity
  8
newlayer
 62
7
100
AcDbLine
 10
263.399445
 20
293.700196
 30
0.0
 11
263.399445
 21
296.800196
 31
0.0
  0
LINE
  5
25c
100
AcDbEntity
  8
newlayer
 62
7
100
AcDbLine
 10
263.399445
 20
296.800196
 30
0.0
 11
268.533888
 21
296.800196
 31
0.0
  0
LINE
  5
25d
100
AcDbEntity
  8
newlayer
 62
7
100
AcDbLine
 10
268.533888
 20
296.800196
 30
0.0
 11
268.533888
 21
293.700196
 31
0.0
  0
LINE
  5
25e
100
AcDbEntity
  8
newlayer
 62
7
100
AcDbLine
 10
268.533888
 20
293.700196
 30
0.0
 11
273.488333
 21
293.700196
 31
0.0
  0
LINE
  5
25f
100
AcDbEntity
  8
newlayer
 62
7
100
AcDbLine
 10
273.488333
 20
293.700196
 30
0.0
 11
273.488333
 21
296.800196
 31
0.0
  0
LINE
  5
260
100
AcDbEntity
  8
newlayer
 62
7
100
AcDbLine
 10
273.488333
 20
296.800196
 30
0.0
 11
278.622777
 21
296.800196
 31
0.0
  0
LINE
  5
261
100
AcDbEntity
  8
newlayer
 62
7
100
AcDbLine
 10
278.622777
 20
296.800196
 30
0.0
 11
278.622777
 21
293.700196
 31
0.0
  0
LINE
  5
262
100
AcDbEntity
  8
newlayer
 62
7
100
AcDbLine
 10
278.622777
 20
293.700196
 30
0.0
 11
283.577228
 21
293.700196
 31
0.0
  0
LINE
  5
263
100
AcDbEntity
  8
newlayer
 62
7
100
AcDbLine
 10
283.577228
 20
293.700196
 30
0.0
 11
283.577228
 21
296.800196
 31
0.0
  0
LINE
  5
264
100
AcDbEntity
  8
newlayer
 62
7
100
AcDbLine
 10
283.577228
 20
296.800196
 30
0.0
 11
288.711668
 21
296.800196
 31
0.0
  0
LINE
  5
265
100
AcDbEntity
  8
newlayer
 62
7
100
AcDbLine
 10
288.711668
 20
296.800196
 30
0.0
 11
288.711668
 21
293.700196
 31
0.0
  0
LINE
  5
266
100
AcDbEntity
  8
newlayer
 62
7
100
AcDbLine
 10
288.711668
 20
293.700196
 30
0.0
 11
293.666108
 21
293.700196
 31
0.0
  0
LINE
  5
267
100
AcDbEntity
  8
newlayer
 62
7
100
AcDbLine
 10
293.666108
 20
293.700196
 30
0.0
 11
293.666108
 21
296.800196
 31
0.0
  0
LINE
  5
268
100
AcDbEntity
  8
newlayer
 62
7
100
AcDbLine
 10
293.666108
 20
296.800196
 30
0.0
 11
298.800548
 21
296.800196
 31
0.0
  0
LINE
  5
269
100
AcDbEntity
  8
newlayer
 62
7
100
AcDbLine
 10
298.800548
 20
296.800196
 30
0.0
 11
298.800548
 21
293.700196
 31
0.0
  0
LINE
  5
26a
100
AcDbEntity
  8
newlayer
 62
7
100
AcDbLine
 10
298.800548
 20
293.700196
 30
0.0
 11
303.754988
 21
293.700196
 31
0.0
  0
LINE
  5
26b
100
AcDbEntity
  8
newlayer
 62
7
100
AcDbLine
 10
303.754988
 20
293.700196
 30
0.0
 11
303.754988
 21
296.800196
 31
0.0
  0
LINE
  5
26c
100
AcDbEntity
  8
newlayer
 62
7
100
AcDbLine
 10
303.754988
 20
296.800196
 30
0.0
 11
308.889456
 21
296.800196
 31
0.0
  0
LINE
  5
26d
100
AcDbEntity
  8
newlayer
 62
7
100
AcDbLine
 10
308.889456
 20
296.800196
 30
0.0
 11
308.889456
 21
293.700196
 31
0.0
  0
LINE
  5
26e
100
AcDbEntity
  8
newlayer
 62
7
100
AcDbLine
 10
308.889456
 20
293.700196
 30
0.0
 11
313.843896
 21
293.700196
 31
0.0
  0
LINE
  5
26f
100
AcDbEntity
  8
newlayer
 62
7
100
AcDbLine
 10
313.843896
 20
293.700196
 30
0.0
 11
313.843896
 21
296.800196
 31
0.0
  0
LINE
  5
270
100
AcDbEntity
  8
newlayer
 62
7
100
AcDbLine
 10
313.843896
 20
296.800196
 30
0.0
 11
318.978336
 21
296.800196
 31
0.0
  0
LINE
  5
271
100
AcDbEntity
  8
newlayer
 62
7
100
AcDbLine
 10
318.978336
 20
296.800196
 30
0.0
 11
318.978336
 21
293.700196
 31
0.0
  0
LINE
  5
272
100
AcDbEntity
  8
newlayer
 62
7
100
AcDbLine
 10
318.978336
 20
293.700196
 30
0.0
 11
323.932776
 21
293.700196
 31
0.0
  0
LINE
  5
273
100
AcDbEntity
  8
newlayer
 62
7
100
AcDbLine
 10
323.932776
 20
293.700196
 30
0.0
 11
323.932776
 21
296.800196
 31
0.0
  0
LINE
  5
274
100
AcDbEntity
  8
newlayer
 62
7
100
AcDbLine
 10
323.932776
 20
296.800196
 30
0.0
 11
329.067216
 21
296.800196
 31
0.0
  0
LINE
  5
275
100
AcDbEntity
  8
newlayer
 62
7
100
AcDbLine
 10
329.067216
 20
296.800196
 30
0.0
 11
329.067216
 21
293.700196
 31
0.0
  0
LINE
  5
276
100
AcDbEntity
  8
newlayer
 62
7
100
AcDbLine
 10
329.067216
 20
293.700196
 30
0.0
 11
334.021656
 21
293.700196
 31
0.0
  0
LINE
  5
277
100
AcDbEntity
  8
newlayer
 62
7
100
AcDbLine
 10
334.021656
 20
293.700196
 30
0.0
 11
334.021656
 21
296.800196
 31
0.0
  0
LINE
  5
278
100
AcDbEntity
  8
newlayer
 62
7
100
AcDbLine
 10
334.021656
 20
296.800196
 30
0.0
 11
339.156125
 21
296.800196
 31
0.0
  0
LINE
  5
279
100
AcDbEntity
  8
newlayer
 62
7
100
AcDbLine
 10
339.156125
 20
296.800196
 30
0.0
 11
339.156125
 21
293.700196
 31
0.0
  0
LINE
  5
27a
100
AcDbEntity
  8
newlayer
 62
7
100
AcDbLine
 10
339.156125
 20
293.700196
 30
0.0
 11
344.110564
 21
293.700196
 31
0.0
  0
LINE
  5
27b
100
AcDbEntity
  8
newlayer
 62
7
100
AcDbLine
 10
344.110564
 20
293.700196
 30
0.0
 11
344.110564
 21
296.800196
 31
0.0
  0
LINE
  5
27c
100
AcDbEntity
  8
newlayer
 62
7
100
AcDbLine
 10
344.110564
 20
296.800196
 30
0.0
 11
346.100005
 21
296.800196
 31
0.0
  0
LINE
  5
27d
100
AcDbEntity
  8
newlayer
 62
7
100
AcDbLine
 10
346.100005
 20
296.800196
 30
0.0
 11
346.100005
 21
291.711863
 31
0.0
  0
LINE
  5
27e
100
AcDbEntity
  8
newlayer
 62
7
100
AcDbLine
 10
346.100005
 20
291.711863
 30
0.0
 11
349.199990
 21
291.711863
 31
0.0
  0
LINE
  5
27f
100
AcDbEntity
  8
newlayer
 62
7
100
AcDbLine
 10
349.199990
 20
291.711863
 30
0.0
 11
349.199990
 21
286.488530
 31
0.0
  0
LINE
  5
280
100
AcDbEntity
  8
newlayer
 62
7
100
AcDbLine
 10
349.199990
 20
286.488530
 30
0.0
 11
346.100005
 21
286.488530
 31
0.0
  0
LINE
  5
281
100
AcDbEntity
  8
newlayer
 62
7
100
AcDbLine
 10
346.100005
 20
286.488530
 30
0.0
 11
346.100005
 21
281.445196
 31
0.0
  0
LINE
  5
282
100
AcDbEntity
  8
newlayer
 62
7
100
AcDbLine
 10
346.100005
 20
281.445196
 30
0.0
 11
349.199990
 21
281.445196
 31
0.0
  0
LINE
  5
283
100
AcDbEntity
  8
newlayer
 62
7
100
AcDbLine
 10
349.199990
 20
281.445196
 30
0.0
 11
349.199990
 21
276.221863
 31
0.0
  0
LINE
  5
284
100
AcDbEntity
  8
newlayer
 62
7
100
AcDbLine
 10
349.199990
 20
276.221863
 30
0.0
 11
346.100005
 21
276.221863
 31
0.0
  0
LINE
  5
285
100
AcDbEntity
  8
newlayer
 62
7
100
AcDbLine
 10
346.100005
 20
276.221863
 30
0.0
 11
346.100005
 21
271.178530
 31
0.0
  0
LINE
  5
286
100
AcDbEntity
  8
newlayer
 62
7
100
AcDbLine
 10
346.100005
 20
271.178530
 30
0.0
 11
349.199990
 21
271.178530
 31
0.0
  0
LINE
  5
287
100
AcDbEntity
  8
newlayer
 62
7
100
AcDbLine
 10
349.199990
 20
271.178530
 30
0.0
 11
349.199990
 21
265.955196
 31
0.0
  0
LINE
  5
288
100
AcDbEntity
  8
newlayer
 62
7
100
AcDbLine
 10
349.199990
 20
265.955196
 30
0.0
 11
346.100005
 21
265.955196
 31
0.0
  0
LINE
  5
289
100
AcDbEntity
  8
newlayer
 62
7
100
AcDbLine
 10
346.100005
 20
265.955196
 30
0.0
 11
346.100005
 21
260.911862
 31
0.0
  0
LINE
  5
28a
100
AcDbEntity
  8
newlayer
 62
7
100
AcDbLine
 10
346.100005
 20
260.911862
 30
0.0
 11
349.199990
 21
260.911862
 31
0.0
  0
LINE
  5
28b
100
AcDbEntity
  8
newlayer
 62
7
100
AcDbLine
 10
349.199990
 20
260.911862
 30
0.0
 11
349.199990
 21
255.688530
 31
0.0
  0
LINE
  5
28c
100
AcDbEntity
  8
newlayer
 62
7
100
AcDbLine
 10
349.199990
 20
255.688530
 30
0.0
 11
346.100005
 21
255.688530
 31
0.0
  0
LINE
  5
28d
100
AcDbEntity
  8
newlayer
 62
7
100
AcDbLine
 10
346.100005
 20
255.688530
 30
0.0
 11
346.100005
 21
250.600196
 31
0.0
  0
LINE
  5
28e
100
AcDbEntity
  8
newlayer
 62
7
100
AcDbLine
 10
346.100005
 20
250.600196
 30
0.0
 11
344.110564
 21
250.600196
 31
0.0
  0
LINE
  5
28f
100
AcDbEntity
  8
newlayer
 62
7
100
AcDbLine
 10
344.110564
 20
250.600196
 30
0.0
 11
344.110564
 21
253.700195
 31
0.0
  0
LINE
  5
290
100
AcDbEntity
  8
newlayer
 62
7
100
AcDbLine
 10
344.110564
 20
253.700195
 30
0.0
 11
339.156125
 21
253.700195
 31
0.0
  0
LINE
  5
291
100
AcDbEntity
  8
newlayer
 62
7
100
AcDbLine
 10
339.156125
 20
253.700195
 30
0.0
 11
339.156125
 21
250.600196
 31
0.0
  0
LINE
  5
292
100
AcDbEntity
  8
newlayer
 62
7
100
AcDbLine
 10
339.156125
 20
250.600196
 30
0.0
 11
334.021656
 21
250.600196
 31
0.0
  0
LINE
  5
293
100
AcDbEntity
  8
newlayer
 62
7
100
AcDbLine
 10
334.021656
 20
250.600196
 30
0.0
 11
334.021656
 21
253.700195
 31
0.0
  0
LINE
  5
294
100
AcDbEntity
  8
newlayer
 62
7
100
AcDbLine
 10
334.021656
 20
253.700195
 30
0.0
 11
329.067216
 21
253.700195
 31
0.0
  0
LINE
  5
295
100
AcDbEntity
  8
newlayer
 62
7
100
AcDbLine
 10
329.067216
 20
253.700195
 30
0.0
 11
329.067216
 21
250.600196
 31
0.0
  0
LINE
  5
296
100
AcDbEntity
  8
newlayer
 62
7
100
AcDbLine
 10
329.067216
 20
250.600196
 30
0.0
 11
323.932776
 21
250.600196
 31
0.0
  0
LINE
  5
297
100
AcDbEntity
  8
newlayer
 62
7
100
AcDbLine
 10
323.932776
 20
250.600196
 30
0.0
 11
323.932776
 21
253.700195
 31
0.0
  0
LINE
  5
298
100
AcDbEntity
  8
newlayer
 62
7
100
AcDbLine
 10
323.932776
 20
253.700195
 30
0.0
 11
318.978336
 21
253.700195
 31
0.0
  0
LINE
  5
299
100
AcDbEntity
  8
newlayer
 62
7
100
AcDbLine
 10
318.978336
 20
253.700195
 30
0.0
 11
318.978336
 21
250.600196
 31
0.0
  0
LINE
  5
29a
100
AcDbEntity
  8
newlayer
 62
7
100
AcDbLine
 10
318.978336
 20
250.600196
 30
0.0
 11
313.843896
 21
250.600196
 31
0.0
  0
LINE
  5
29b
100
AcDbEntity
  8
newlayer
 62
7
100
AcDbLine
 10
313.843896
 20
250.600196
 30
0.0
 11
313.843896
 21
253.700195
 31
0.0
  0
LINE
  5
29c
100
AcDbEntity
  8
newlayer
 62
7
100
AcDbLine
 10
313.843896
 20
253.700195
 30
0.0
 11
308.889456
 21
253.700195
 31
0.0
  0
LINE
  5
29d
100
AcDbEntity
  8
newlayer
 62
7
100
AcDbLine
 10
308.889456
 20
253.700195
 30
0.0
 11
308.889456
 21
250.600196
 31
0.0
  0
LINE
  5
29e
100
AcDbEntity
  8
newlayer
 62
7
100
AcDbLine
 10
308.889456
 20
250.600196
 30
0.0
 11
303.754988
 21
250.600196
 31
0.0
  0
LINE
  5
29f
100
AcDbEntity
  8
newlayer
 62
7
100
AcDbLine
 10
303.754988
 20
250.600196
 30
0.0
 11
303.754988
 21
253.700195
 31
0.0
  0
LINE
  5
2a0
100
AcDbEntity
  8
newlayer
 62
7
100
AcDbLine
 10
303.754988
 20
253.700195
 30
0.0
 11
298.800548
 21
253.700195
 31
0.0
  0
LINE
  5
2a1
100
AcDbEntity
  8
newlayer
 62
7
100
AcDbLine
 10
298.800548
 20
253.700195
 30
0.0
 11
298.800548
 21
250.600196
 31
0.0
  0
LINE
  5
2a2
100
AcDbEntity
  8
newlayer
 62
7
100
AcDbLine
 10
298.800548
 20
250.600196
 30
0.0
 11
293.666108
 21
250.600196
 31
0.0
  0
LINE
  5
2a3
100
AcDbEntity
  8
newlayer
 62
7
100
AcDbLine
 10
293.666108
 20
250.600196
 30
0.0
 11
293.666108
 21
253.700195
 31
0.0
  0
LINE
  5
2a4
100
AcDbEntity
  8
newlayer
 62
7
100
AcDbLine
 10
293.666108
 20
253.700195
 30
0.0
 11
288.711668
 21
253.700195
 31
0.0
  0
LINE
  5
2a5
100
AcDbEntity
  8
newlayer
 62
7
100
AcDbLine
 10
288.711668
 20
253.700195
 30
0.0
 11
288.711668
 21
250.600196
 31
0.0
  0
LINE
  5
2a6
100
AcDbEntity
  8
newlayer
 62
7
100
AcDbLine
 10
288.711668
 20
250.600196
 30
0.0
 11
283.577228
 21
250.600196
 31
0.0
  0
LINE
  5
2a7
100
AcDbEntity
  8
newlayer
 62
7
100
AcDbLine
 10
283.577228
 20
250.600196
 30
0.0
 11
283.577228
 21
253.700195
 31
0.0
  0
LINE
  5
2a8
100
AcDbEntity
  8
newlayer
 62
7
100
AcDbLine
 10
283.577228
 20
253.700195
 30
0.0
 11
278.622777
 21
253.700195
 31
0.0
  0
LINE
  5
2a9
100
AcDbEntity
  8
newlayer
 62
7
100
AcDbLine
 10
278.622777
 20
253.700195
 30
0.0
 11
278.622777
 21
250.600196
 31
0.0
  0
LINE
  5
2aa
100
AcDbEntity
  8
newlayer
 62
7
100
AcDbLine
 10
278.622777
 20
250.600196
 30
0.0
 11
273.488333
 21
250.600196
 31
0.0
  0
LINE
  5
2ab
100
AcDbEntity
  8
newlayer
 62
7
100
AcDbLine
 10
273.488333
 20
250.600196
 30
0.0
 11
273.488333
 21
253.700195
 31
0.0
  0
LINE
  5
2ac
100
AcDbEntity
  8
newlayer
 62
7
100
AcDbLine
 10
273.488333
 20
253.700195
 30
0.0
 11
268.533888
 21
253.700195
 31
0.0
  0
LINE
  5
2ad
100
AcDbEntity
  8
newlayer
 62
7
100
AcDbLine
 10
268.533888
 20
253.700195
 30
0.0
 11
268.533888
 21
250.600196
 31
0.0
  0
LINE
  5
2ae
100
AcDbEntity
  8
newlayer
 62
7
100
AcDbLine
 10
268.533888
 20
250.600196
 30
0.0
 11
263.399445
 21
250.600196
 31
0.0
  0
LINE
  5
2af
100
AcDbEntity
  8
newlayer
 62
7
100
AcDbLine
 10
263.399445
 20
250.600196
 30
0.0
 11
263.399445
 21
253.700195
 31
0.0
  0
LINE
  5
2b0
100
AcDbEntity
  8
newlayer
 62
7
100
AcDbLine
 10
263.399445
 20
253.700195
 30
0.0
 11
258.445000
 21
253.700195
 31
0.0
  0
LINE
  5
2b1
100
AcDbEntity
  8
newlayer
 62
7
100
AcDbLine
 10
258.445000
 20
253.700195
 30
0.0
 11
258.445000
 21
250.600196
 31
0.0
  0
LINE
  5
2b2
100
AcDbEntity
  8
newlayer
 62
7
100
AcDbLine
 10
258.445000
 20
250.600196
 30
0.0
 11
253.310557
 21
250.600196
 31
0.0
  0
LINE
  5
2b3
100
AcDbEntity
  8
newlayer
 62
7
100
AcDbLine
 10
253.310557
 20
250.600196
 30
0.0
 11
253.310557
 21
253.700195
 31
0.0
  0
LINE
  5
2b4
100
AcDbEntity
  8
newlayer
 62
7
100
AcDbLine
 10
253.310557
 20
253.700195
 30
0.0
 11
248.356112
 21
253.700195
 31
0.0
  0
LINE
  5
2b5
100
AcDbEntity
  8
newlayer
 62
7
100
AcDbLine
 10
248.356112
 20
253.700195
 30
0.0
 11
248.356112
 21
250.600196
 31
0.0
  0
LINE
  5
2b6
100
AcDbEntity
  8
newlayer
 62
7
100
AcDbLine
 10
248.356112
 20
250.600196
 30
0.0
 11
243.221665
 21
250.600196
 31
0.0
  0
LINE
  5
2b7
100
AcDbEntity
  8
newlayer
 62
7
100
AcDbLine
 10
243.221665
 20
250.600196
 30
0.0
 11
243.221665
 21
253.700195
 31
0.0
  0
LINE
  5
2b8
100
AcDbEntity
  8
newlayer
 62
7
100
AcDbLine
 10
243.221665
 20
253.700195
 30
0.0
 11
238.267223
 21
253.700195
 31
0.0
  0
LINE
  5
2b9
100
AcDbEntity
  8
newlayer
 62
7
100
AcDbLine
 10
238.267223
 20
253.700195
 30
0.0
 11
238.267223
 21
250.600196
 31
0.0
  0
LINE
  5
2ba
100
AcDbEntity
  8
newlayer
 62
7
100
AcDbLine
 10
238.267223
 20
250.600196
 30
0.0
 11
233.132777
 21
250.600196
 31
0.0
  0
LINE
  5
2bb
100
AcDbEntity
  8
newlayer
 62
7
100
AcDbLine
 10
233.132777
 20
250.600196
 30
0.0
 11
233.132777
 21
253.700195
 31
0.0
  0
LINE
  5
2bc
100
AcDbEntity
  8
newlayer
 62
7
100
AcDbLine
 10
233.132777
 20
253.700195
 30
0.0
 11
228.178332
 21
253.700195
 31
0.0
  0
LINE
  5
2bd
100
AcDbEntity
  8
newlayer
 62
7
100
AcDbLine
 10
228.178332
 20
253.700195
 30
0.0
 11
228.178332
 21
250.600196
 31
0.0
  0
LINE
  5
2be
100
AcDbEntity
  8
newlayer
 62
7
100
AcDbLine
 10
228.178332
 20
250.600196
 30
0.0
 11
223.043888
 21
250.600196
 31
0.0
  0
LINE
  5
2bf
100
AcDbEntity
  8
newlayer
 62
7
100
AcDbLine
 10
223.043888
 20
250.600196
 30
0.0
 11
223.043888
 21
253.700195
 31
0.0
  0
LINE
  5
2c0
100
AcDbEntity
  8
newlayer
 62
7
100
AcDbLine
 10
223.043888
 20
253.700195
 30
0.0
 11
218.089443
 21
253.700195
 31
0.0
  0
LINE
  5
2c1
100
AcDbEntity
  8
newlayer
 62
7
100
AcDbLine
 10
218.089443
 20
253.700195
 30
0.0
 11
218.089443
 21
250.600196
 31
0.0
  0
LINE
  5
2c2
100
AcDbEntity
  8
newlayer
 62
7
100
AcDbLine
 10
218.089443
 20
250.600196
 30
0.0
 11
216.100000
 21
250.600196
 31
0.0
  0
LINE
  5
2c3
100
AcDbEntity
  8
newlayer
 62
7
100
AcDbLine
 10
216.100000
 20
250.600196
 30
0.0
 11
216.100000
 21
255.688530
 31
0.0
  0
LINE
  5
2c4
100
AcDbEntity
  8
newlayer
 62
7
100
AcDbLine
 10
216.100000
 20
255.688530
 30
0.0
 11
213.000000
 21
255.688530
 31
0.0
  0
LINE
  5
2c5
100
AcDbEntity
  8
newlayer
 62
7
100
AcDbLine
 10
213.000000
 20
255.688530
 30
0.0
 11
213.000000
 21
260.911862
 31
0.0
  0
LINE
  5
2c6
100
AcDbEntity
  8
newlayer
 62
7
100
AcDbLine
 10
213.000000
 20
260.911862
 30
0.0
 11
216.100000
 21
260.911862
 31
0.0
  0
LINE
  5
2c7
100
AcDbEntity
  8
newlayer
 62
7
100
AcDbLine
 10
216.100000
 20
260.911862
 30
0.0
 11
216.100000
 21
265.955196
 31
0.0
  0
LINE
  5
2c8
100
AcDbEntity
  8
newlayer
 62
7
100
AcDbLine
 10
216.100000
 20
265.955196
 30
0.0
 11
213.000000
 21
265.955196
 31
0.0
  0
LINE
  5
2c9
100
AcDbEntity
  8
newlayer
 62
7
100
AcDbLine
 10
213.000000
 20
265.955196
 30
0.0
 11
213.000000
 21
271.178530
 31
0.0
  0
LINE
  5
2ca
100
AcDbEntity
  8
newlayer
 62
7
100
AcDbLine
 10
213.000000
 20
271.178530
 30
0.0
 11
216.100000
 21
271.178530
 31
0.0
  0
LINE
  5
2cb
100
AcDbEntity
  8
newlayer
 62
7
100
AcDbLine
 10
216.100000
 20
271.178530
 30
0.0
 11
216.100000
 21
276.221863
 31
0.0
  0
LINE
  5
2cc
100
AcDbEntity
  8
newlayer
 62
7
100
AcDbLine
 10
216.100000
 20
276.221863
 30
0.0
 11
213.000000
 21
276.221863
 31
0.0
  0
LINE
  5
2cd
100
AcDbEntity
  8
newlayer
 62
7
100
AcDbLine
 10
213.000000
 20
276.221863
 30
0.0
 11
213.000000
 21
281.445196
 31
0.0
  0
LINE
  5
2ce
100
AcDbEntity
  8
newlayer
 62
7
100
AcDbLine
 10
213.000000
 20
281.445196
 30
0.0
 11
216.100000
 21
281.445196
 31
0.0
  0
LINE
  5
2cf
100
AcDbEntity
  8
newlayer
 62
7
100
AcDbLine
 10
216.100000
 20
281.445196
 30
0.0
 11
216.100000
 21
286.488530
 31
0.0
  0
LINE
  5
2d0
100
AcDbEntity
  8
newlayer
 62
7
100
AcDbLine
 10
216.100000
 20
286.488530
 30
0.0
 11
213.000000
 21
286.488530
 31
0.0
  0
LINE
  5
2d1
100
AcDbEntity
  8
newlayer
 62
7
100
AcDbLine
 10
213.000000
 20
286.488530
 30
0.0
 11
213.000000
 21
291.711863
 31
0.0
  0
LINE
  5
2d2
100
AcDbEntity
  8
newlayer
 62
7
100
AcDbLine
 10
213.000000
 20
291.711863
 30
0.0
 11
216.100000
 21
291.711863
 31
0.0
  0
LINE
  5
2d3
100
AcDbEntity
  8
newlayer
 62
7
100
AcDbLine
 10
216.100000
 20
291.711863
 30
0.0
 11
216.100000
 21
296.800196
 31
0.0
  0
LINE
  5
2d4
100
AcDbEntity
  8
newlayer
 62
7
100
AcDbLine
 10
352.499986
 20
296.800196
 30
0.0
 11
354.489456
 21
296.800196
 31
0.0
  0
LINE
  5
2d5
100
AcDbEntity
  8
newlayer
 62
7
100
AcDbLine
 10
354.489456
 20
296.800196
 30
0.0
 11
354.489456
 21
293.700196
 31
0.0
  0
LINE
  5
2d6
100
AcDbEntity
  8
newlayer
 62
7
100
AcDbLine
 10
354.489456
 20
293.700196
 30
0.0
 11
359.443895
 21
293.700196
 31
0.0
  0
LINE
  5
2d7
100
AcDbEntity
  8
newlayer
 62
7
100
AcDbLine
 10
359.443895
 20
293.700196
 30
0.0
 11
359.443895
 21
296.800196
 31
0.0
  0
LINE
  5
2d8
100
AcDbEntity
  8
newlayer
 62
7
100
AcDbLine
 10
359.443895
 20
296.800196
 30
0.0
 11
364.578336
 21
296.800196
 31
0.0
  0
LINE
  5
2d9
100
AcDbEntity
  8
newlayer
 62
7
100
AcDbLine
 10
364.578336
 20
296.800196
 30
0.0
 11
364.578336
 21
293.700196
 31
0.0
  0
LINE
  5
2da
100
AcDbEntity
  8
newlayer
 62
7
100
AcDbLine
 10
364.578336
 20
293.700196
 30
0.0
 11
369.532775
 21
293.700196
 31
0.0
  0
LINE
  5
2db
100
AcDbEntity
  8
newlayer
 62
7
100
AcDbLine
 10
369.532775
 20
293.700196
 30
0.0
 11
369.532775
 21
296.800196
 31
0.0
  0
LINE
  5
2dc
100
AcDbEntity
  8
newlayer
 62
7
100
AcDbLine
 10
369.532775
 20
296.800196
 30
0.0
 11
374.667216
 21
296.800196
 31
0.0
  0
LINE
  5
2dd
100
AcDbEntity
  8
newlayer
 62
7
100
AcDbLine
 10
374.667216
 20
296.800196
 30
0.0
 11
374.667216
 21
293.700196
 31
0.0
  0
LINE
  5
2de
100
AcDbEntity
  8
newlayer
 62
7
100
AcDbLine
 10
374.667216
 20
293.700196
 30
0.0
 11
379.621655
 21
293.700196
 31
0.0
  0
LINE
  5
2df
100
AcDbEntity
  8
newlayer
 62
7
100
AcDbLine
 10
379.621655
 20
293.700196
 30
0.0
 11
379.621655
 21
296.800196
 31
0.0
  0
LINE
  5
2e0
100
AcDbEntity
  8
newlayer
 62
7
100
AcDbLine
 10
379.621655
 20
296.800196
 30
0.0
 11
384.756124
 21
296.800196
 31
0.0
  0
LINE
  5
2e1
100
AcDbEntity
  8
newlayer
 62
7
100
AcDbLine
 10
384.756124
 20
296.800196
 30
0.0
 11
384.756124
 21
293.700196
 31
0.0
  0
LINE
  5
2e2
100
AcDbEntity
  8
newlayer
 62
7
100
AcDbLine
 10
384.756124
 20
293.700196
 30
0.0
 11
389.710563
 21
293.700196
 31
0.0
  0
LINE
  5
2e3
100
AcDbEntity
  8
newlayer
 62
7
100
AcDbLine
 10
389.710563
 20
293.700196
 30
0.0
 11
389.710563
 21
296.800196
 31
0.0
  0
LINE
  5
2e4
100
AcDbEntity
  8
newlayer
 62
7
100
AcDbLine
 10
389.710563
 20
296.800196
 30
0.0
 11
394.845004
 21
296.800196
 31
0.0
  0
LINE
  5
2e5
100
AcDbEntity
  8
newlayer
 62
7
100
AcDbLine
 10
394.845004
 20
296.800196
 30
0.0
 11
394.845004
 21
293.700196
 31
0.0
  0
LINE
  5
2e6
100
AcDbEntity
  8
newlayer
 62
7
100
AcDbLine
 10
394.845004
 20
293.700196
 30
0.0
 11
399.799443
 21
293.700196
 31
0.0
  0
LINE
  5
2e7
100
AcDbEntity
  8
newlayer
 62
7
100
AcDbLine
 10
399.799443
 20
293.700196
 30
0.0
 11
399.799443
 21
296.800196
 31
0.0
  0
LINE
  5
2e8
100
AcDbEntity
  8
newlayer
 62
7
100
AcDbLine
 10
399.799443
 20
296.800196
 30
0.0
 11
404.933884
 21
296.800196
 31
0.0
  0
LINE
  5
2e9
100
AcDbEntity
  8
newlayer
 62
7
100
AcDbLine
 10
404.933884
 20
296.800196
 30
0.0
 11
404.933884
 21
293.700196
 31
0.0
  0
LINE
  5
2ea
100
AcDbEntity
  8
newlayer
 62
7
100
AcDbLine
 10
404.933884
 20
293.700196
 30
0.0
 11
409.888323
 21
293.700196
 31
0.0
  0
LINE
  5
2eb
100
AcDbEntity
  8
newlayer
 62
7
100
AcDbLine
 10
409.888323
 20
293.700196
 30
0.0
 11
409.888323
 21
296.800196
 31
0.0
  0
LINE
  5
2ec
100
AcDbEntity
  8
newlayer
 62
7
100
AcDbLine
 10
409.888323
 20
296.800196
 30
0.0
 11
415.022764
 21
296.800196
 31
0.0
  0
LINE
  5
2ed
100
AcDbEntity
  8
newlayer
 62
7
100
AcDbLine
 10
415.022764
 20
296.800196
 30
0.0
 11
415.022764
 21
293.700196
 31
0.0
  0
LINE
  5
2ee
100
AcDbEntity
  8
newlayer
 62
7
100
AcDbLine
 10
415.022764
 20
293.700196
 30
0.0
 11
419.977231
 21
293.700196
 31
0.0
  0
LINE
  5
2ef
100
AcDbEntity
  8
newlayer
 62
7
100
AcDbLine
 10
419.977231
 20
293.700196
 30
0.0
 11
419.977231
 21
296.800196
 31
0.0
  0
LINE
  5
2f0
100
AcDbEntity
  8
newlayer
 62
7
100
AcDbLine
 10
419.977231
 20
296.800196
 30
0.0
 11
425.111672
 21
296.800196
 31
0.0
  0
LINE
  5
2f1
100
AcDbEntity
  8
newlayer
 62
7
100
AcDbLine
 10
425.111672
 20
296.800196
 30
0.0
 11
425.111672
 21
293.700196
 31
0.0
  0
LINE
  5
2f2
100
AcDbEntity
  8
newlayer
 62
7
100
AcDbLine
 10
425.111672
 20
293.700196
 30
0.0
 11
430.066111
 21
293.700196
 31
0.0
  0
LINE
  5
2f3
100
AcDbEntity
  8
newlayer
 62
7
100
AcDbLine
 10
430.066111
 20
293.700196
 30
0.0
 11
430.066111
 21
296.800196
 31
0.0
  0
LINE
  5
2f4
100
AcDbEntity
  8
newlayer
 62
7
100
AcDbLine
 10
430.066111
 20
296.800196
 30
0.0
 11
435.200552
 21
296.800196
 31
0.0
  0
LINE
  5
2f5
100
AcDbEntity
  8
newlayer
 62
7
100
AcDbLine
 10
435.200552
 20
296.800196
 30
0.0
 11
435.200552
 21
293.700196
 31
0.0
  0
LINE
  5
2f6
100
AcDbEntity
  8
newlayer
 62
7
100
AcDbLine
 10
435.200552
 20
293.700196
 30
0.0
 11
440.154991
 21
293.700196
 31
0.0
  0
LINE
  5
2f7
100
AcDbEntity
  8
newlayer
 62
7
100
AcDbLine
 10
440.154991
 20
293.700196
 30
0.0
 11
440.154991
 21
296.800196
 31
0.0
  0
LINE
  5
2f8
100
AcDbEntity
  8
newlayer
 62
7
100
AcDbLine
 10
440.154991
 20
296.800196
 30
0.0
 11
445.289432
 21
296.800196
 31
0.0
  0
LINE
  5
2f9
100
AcDbEntity
  8
newlayer
 62
7
100
AcDbLine
 10
445.289432
 20
296.800196
 30
0.0
 11
445.289432
 21
293.700196
 31
0.0
  0
LINE
  5
2fa
100
AcDbEntity
  8
newlayer
 62
7
100
AcDbLine
 10
445.289432
 20
293.700196
 30
0.0
 11
450.243900
 21
293.700196
 31
0.0
  0
LINE
  5
2fb
100
AcDbEntity
  8
newlayer
 62
7
100
AcDbLine
 10
450.243900
 20
293.700196
 30
0.0
 11
450.243900
 21
296.800196
 31
0.0
  0
LINE
  5
2fc
100
AcDbEntity
  8
newlayer
 62
7
100
AcDbLine
 10
450.243900
 20
296.800196
 30
0.0
 11
455.378340
 21
296.800196
 31
0.0
  0
LINE
  5
2fd
100
AcDbEntity
  8
newlayer
 62
7
100
AcDbLine
 10
455.378340
 20
296.800196
 30
0.0
 11
455.378340
 21
293.700196
 31
0.0
  0
LINE
  5
2fe
100
AcDbEntity
  8
newlayer
 62
7
100
AcDbLine
 10
455.378340
 20
293.700196
 30
0.0
 11
460.332780
 21
293.700196
 31
0.0
  0
LINE
  5
2ff
100
AcDbEntity
  8
newlayer
 62
7
100
AcDbLine
 10
460.332780
 20
293.700196
 30
0.0
 11
460.332780
 21
296.800196
 31
0.0
  0
LINE
  5
300
100
AcDbEntity
  8
newlayer
 62
7
100
AcDbLine
 10
460.332780
 20
296.800196
 30
0.0
 11
465.467220
 21
296.800196
 31
0.0
  0
LINE
  5
301
100
AcDbEntity
  8
newlayer
 62
7
100
AcDbLine
 10
465.467220
 20
296.800196
 30
0.0
 11
465.467220
 21
293.700196
 31
0.0
  0
LINE
  5
302
100
AcDbEntity
  8
newlayer
 62
7
100
AcDbLine
 10
465.467220
 20
293.700196
 30
0.0
 11
470.421660
 21
293.700196
 31
0.0
  0
LINE
  5
303
100
AcDbEntity
  8
newlayer
 62
7
100
AcDbLine
 10
470.421660
 20
293.700196
 30
0.0
 11
470.421660
 21
296.800196
 31
0.0
  0
LINE
  5
304
100
AcDbEntity
  8
newlayer
 62
7
100
AcDbLine
 10
470.421660
 20
296.800196
 30
0.0
 11
475.556100
 21
296.800196
 31
0.0
  0
LINE
  5
305
100
AcDbEntity
  8
newlayer
 62
7
100
AcDbLine
 10
475.556100
 20
296.800196
 30
0.0
 11
475.556100
 21
293.700196
 31
0.0
  0
LINE
  5
306
100
AcDbEntity
  8
newlayer
 62
7
100
AcDbLine
 10
475.556100
 20
293.700196
 30
0.0
 11
480.510568
 21
293.700196
 31
0.0
  0
LINE
  5
307
100
AcDbEntity
  8
newlayer
 62
7
100
AcDbLine
 10
480.510568
 20
293.700196
 30
0.0
 11
480.510568
 21
296.800196
 31
0.0
  0
LINE
  5
308
100
AcDbEntity
  8
newlayer
 62
7
100
AcDbLine
 10
480.510568
 20
296.800196
 30
0.0
 11
482.500009
 21
296.800196
 31
0.0
  0
LINE
  5
309
100
AcDbEntity
  8
newlayer
 62
7
100
AcDbLine
 10
482.500009
 20
296.800196
 30
0.0
 11
482.500009
 21
291.711863
 31
0.0
  0
LINE
  5
30a
100
AcDbEntity
  8
newlayer
 62
7
100
AcDbLine
 10
482.500009
 20
291.711863
 30
0.0
 11
485.599994
 21
291.711863
 31
0.0
  0
LINE
  5
30b
100
AcDbEntity
  8
newlayer
 62
7
100
AcDbLine
 10
485.599994
 20
291.711863
 30
0.0
 11
485.599994
 21
286.488530
 31
0.0
  0
LINE
  5
30c
100
AcDbEntity
  8
newlayer
 62
7
100
AcDbLine
 10
485.599994
 20
286.488530
 30
0.0
 11
482.500009
 21
286.488530
 31
0.0
  0
LINE
  5
30d
100
AcDbEntity
  8
newlayer
 62
7
100
AcDbLine
 10
482.500009
 20
286.488530
 30
0.0
 11
482.500009
 21
281.445196
 31
0.0
  0
LINE
  5
30e
100
AcDbEntity
  8
newlayer
 62
7
100
AcDbLine
 10
482.500009
 20
281.445196
 30
0.0
 11
485.599994
 21
281.445196
 31
0.0
  0
LINE
  5
30f
100
AcDbEntity
  8
newlayer
 62
7
100
AcDbLine
 10
485.599994
 20
281.445196
 30
0.0
 11
485.599994
 21
276.221863
 31
0.0
  0
LINE
  5
310
100
AcDbEntity
  8
newlayer
 62
7
100
AcDbLine
 10
485.599994
 20
276.221863
 30
0.0
 11
482.500009
 21
276.221863
 31
0.0
  0
LINE
  5
311
100
AcDbEntity
  8
newlayer
 62
7
100
AcDbLine
 10
482.500009
 20
276.221863
 30
0.0
 11
482.500009
 21
271.178530
 31
0.0
  0
LINE
  5
312
100
AcDbEntity
  8
newlayer
 62
7
100
AcDbLine
 10
482.500009
 20
271.178530
 30
0.0
 11
485.599994
 21
271.178530
 31
0.0
  0
LINE
  5
313
100
AcDbEntity
  8
newlayer
 62
7
100
AcDbLine
 10
485.599994
 20
271.178530
 30
0.0
 11
485.599994
 21
265.955196
 31
0.0
  0
LINE
  5
314
100
AcDbEntity
  8
newlayer
 62
7
100
AcDbLine
 10
485.599994
 20
265.955196
 30
0.0
 11
482.500009
 21
265.955196
 31
0.0
  0
LINE
  5
315
100
AcDbEntity
  8
newlayer
 62
7
100
AcDbLine
 10
482.500009
 20
265.955196
 30
0.0
 11
482.500009
 21
260.911862
 31
0.0
  0
LINE
  5
316
100
AcDbEntity
  8
newlayer
 62
7
100
AcDbLine
 10
482.500009
 20
260.911862
 30
0.0
 11
485.599994
 21
260.911862
 31
0.0
  0
LINE
  5
317
100
AcDbEntity
  8
newlayer
 62
7
100
AcDbLine
 10
485.599994
 20
260.911862
 30
0.0
 11
485.599994
 21
255.688530
 31
0.0
  0
LINE
  5
318
100
AcDbEntity
  8
newlayer
 62
7
100
AcDbLine
 10
485.599994
 20
255.688530
 30
0.0
 11
482.500009
 21
255.688530
 31
0.0
  0
LINE
  5
319
100
AcDbEntity
  8
newlayer
 62
7
100
AcDbLine
 10
482.500009
 20
255.688530
 30
0.0
 11
482.500009
 21
250.600196
 31
0.0
  0
LINE
  5
31a
100
AcDbEntity
  8
newlayer
 62
7
100
AcDbLine
 10
482.500009
 20
250.600196
 30
0.0
 11
480.510568
 21
250.600196
 31
0.0
  0
LINE
  5
31b
100
AcDbEntity
  8
newlayer
 62
7
100
AcDbLine
 10
480.510568
 20
250.600196
 30
0.0
 11
480.510568
 21
253.700195
 31
0.0
  0
LINE
  5
31c
100
AcDbEntity
  8
newlayer
 62
7
100
AcDbLine
 10
480.510568
 20
253.700195
 30
0.0
 11
475.556100
 21
253.700195
 31
0.0
  0
LINE
  5
31d
100
AcDbEntity
  8
newlayer
 62
7
100
AcDbLine
 10
475.556100
 20
253.700195
 30
0.0
 11
475.556100
 21
250.600196
 31
0.0
  0
LINE
  5
31e
100
AcDbEntity
  8
newlayer
 62
7
100
AcDbLine
 10
475.556100
 20
250.600196
 30
0.0
 11
470.421660
 21
250.600196
 31
0.0
  0
LINE
  5
31f
100
AcDbEntity
  8
newlayer
 62
7
100
AcDbLine
 10
470.421660
 20
250.600196
 30
0.0
 11
470.421660
 21
253.700195
 31
0.0
  0
LINE
  5
320
100
AcDbEntity
  8
newlayer
 62
7
100
AcDbLine
 10
470.421660
 20
253.700195
 30
0.0
 11
465.467220
 21
253.700195
 31
0.0
  0
LINE
  5
321
100
AcDbEntity
  8
newlayer
 62
7
100
AcDbLine
 10
465.467220
 20
253.700195
 30
0.0
 11
465.467220
 21
250.600196
 31
0.0
  0
LINE
  5
322
100
AcDbEntity
  8
newlayer
 62
7
100
AcDbLine
 10
465.467220
 20
250.600196
 30
0.0
 11
460.332780
 21
250.600196
 31
0.0
  0
LINE
  5
323
100
AcDbEntity
  8
newlayer
 62
7
100
AcDbLine
 10
460.332780
 20
250.600196
 30
0.0
 11
460.332780
 21
253.700195
 31
0.0
  0
LINE
  5
324
100
AcDbEntity
  8
newlayer
 62
7
100
AcDbLine
 10
460.332780
 20
253.700195
 30
0.0
 11
455.378340
 21
253.700195
 31
0.0
  0
LINE
  5
325
100
AcDbEntity
  8
newlayer
 62
7
100
AcDbLine
 10
455.378340
 20
253.700195
 30
0.0
 11
455.378340
 21
250.600196
 31
0.0
  0
LINE
  5
326
100
AcDbEntity
  8
newlayer
 62
7
100
AcDbLine
 10
455.378340
 20
250.600196
 30
0.0
 11
450.243900
 21
250.600196
 31
0.0
  0
LINE
  5
327
100
AcDbEntity
  8
newlayer
 62
7
100
AcDbLine
 10
450.243900
 20
250.600196
 30
0.0
 11
450.243900
 21
253.700195
 31
0.0
  0
LINE
  5
328
100
AcDbEntity
  8
newlayer
 62
7
100
AcDbLine
 10
450.243900
 20
253.700195
 30
0.0
 11
445.289432
 21
253.700195
 31
0.0
  0
LINE
  5
329
100
AcDbEntity
  8
newlayer
 62
7
100
AcDbLine
 10
445.289432
 20
253.700195
 30
0.0
 11
445.289432
 21
250.600196
 31
0.0
  0
LINE
  5
32a
100
AcDbEntity
  8
newlayer
 62
7
100
AcDbLine
 10
445.289432
 20
250.600196
 30
0.0
 11
440.154991
 21
250.600196
 31
0.0
  0
LINE
  5
32b
100
AcDbEntity
  8
newlayer
 62
7
100
AcDbLine
 10
440.154991
 20
250.600196
 30
0.0
 11
440.154991
 21
253.700195
 31
0.0
  0
LINE
  5
32c
100
AcDbEntity
  8
newlayer
 62
7
100
AcDbLine
 10
440.154991
 20
253.700195
 30
0.0
 11
435.200552
 21
253.700195
 31
0.0
  0
LINE
  5
32d
100
AcDbEntity
  8
newlayer
 62
7
100
AcDbLine
 10
435.200552
 20
253.700195
 30
0.0
 11
435.200552
 21
250.600196
 31
0.0
  0
LINE
  5
32e
100
AcDbEntity
  8
newlayer
 62
7
100
AcDbLine
 10
435.200552
 20
250.600196
 30
0.0
 11
430.066111
 21
250.600196
 31
0.0
  0
LINE
  5
32f
100
AcDbEntity
  8
newlayer
 62
7
100
AcDbLine
 10
430.066111
 20
250.600196
 30
0.0
 11
430.066111
 21
253.700195
 31
0.0
  0
LINE
  5
330
100
AcDbEntity
  8
newlayer
 62
7
100
AcDbLine
 10
430.066111
 20
253.700195
 30
0.0
 11
425.111672
 21
253.700195
 31
0.0
  0
LINE
  5
331
100
AcDbEntity
  8
newlayer
 62
7
100
AcDbLine
 10
425.111672
 20
253.700195
 30
0.0
 11
425.111672
 21
250.600196
 31
0.0
  0
LINE
  5
332
100
AcDbEntity
  8
newlayer
 62
7
100
AcDbLine
 10
425.111672
 20
250.600196
 30
0.0
 11
419.977231
 21
250.600196
 31
0.0
  0
LINE
  5
333
100
AcDbEntity
  8
newlayer
 62
7
100
AcDbLine
 10
419.977231
 20
250.600196
 30
0.0
 11
419.977231
 21
253.700195
 31
0.0
  0
LINE
  5
334
100
AcDbEntity
  8
newlayer
 62
7
100
AcDbLine
 10
419.977231
 20
253.700195
 30
0.0
 11
415.022764
 21
253.700195
 31
0.0
  0
LINE
  5
335
100
AcDbEntity
  8
newlayer
 62
7
100
AcDbLine
 10
415.022764
 20
253.700195
 30
0.0
 11
415.022764
 21
250.600196
 31
0.0
  0
LINE
  5
336
100
AcDbEntity
  8
newlayer
 62
7
100
AcDbLine
 10
415.022764
 20
250.600196
 30
0.0
 11
409.888323
 21
250.600196
 31
0.0
  0
LINE
  5
337
100
AcDbEntity
  8
newlayer
 62
7
100
AcDbLine
 10
409.888323
 20
250.600196
 30
0.0
 11
409.888323
 21
253.700195
 31
0.0
  0
LINE
  5
338
100
AcDbEntity
  8
newlayer
 62
7
100
AcDbLine
 10
409.888323
 20
253.700195
 30
0.0
 11
404.933884
 21
253.700195
 31
0.0
  0
LINE
  5
339
100
AcDbEntity
  8
newlayer
 62
7
100
AcDbLine
 10
404.933884
 20
253.700195
 30
0.0
 11
404.933884
 21
250.600196
 31
0.0
  0
LINE
  5
33a
100
AcDbEntity
  8
newlayer
 62
7
100
AcDbLine
 10
404.933884
 20
250.600196
 30
0.0
 11
399.799443
 21
250.600196
 31
0.0
  0
LINE
  5
33b
100
AcDbEntity
  8
newlayer
 62
7
100
AcDbLine
 10
399.799443
 20
250.600196
 30
0.0
 11
399.799443
 21
253.700195
 31
0.0
  0
LINE
  5
33c
100
AcDbEntity
  8
newlayer
 62
7
100
AcDbLine
 10
399.799443
 20
253.700195
 30
0.0
 11
394.845004
 21
253.700195
 31
0.0
  0
LINE
  5
33d
100
AcDbEntity
  8
newlayer
 62
7
100
AcDbLine
 10
394.845004
 20
253.700195
 30
0.0
 11
394.845004
 21
250.600196
 31
0.0
  0
LINE
  5
33e
100
AcDbEntity
  8
newlayer
 62
7
100
AcDbLine
 10
394.845004
 20
250.600196
 30
0.0
 11
389.710563
 21
250.600196
 31
0.0
  0
LINE
  5
33f
100
AcDbEntity
  8
newlayer
 62
7
100
AcDbLine
 10
389.710563
 20
250.600196
 30
0.0
 11
389.710563
 21
253.700195
 31
0.0
  0
LINE
  5
340
100
AcDbEntity
  8
newlayer
 62
7
100
AcDbLine
 10
389.710563
 20
253.700195
 30
0.0
 11
384.756124
 21
253.700195
 31
0.0
  0
LINE
  5
341
100
AcDbEntity
  8
newlayer
 62
7
100
AcDbLine
 10
384.756124
 20
253.700195
 30
0.0
 11
384.756124
 21
250.600196
 31
0.0
  0
LINE
  5
342
100
AcDbEntity
  8
newlayer
 62
7
100
AcDbLine
 10
384.756124
 20
250.600196
 30
0.0
 11
379.621655
 21
250.600196
 31
0.0
  0
LINE
  5
343
100
AcDbEntity
  8
newlayer
 62
7
100
AcDbLine
 10
379.621655
 20
250.600196
 30
0.0
 11
379.621655
 21
253.700195
 31
0.0
  0
LINE
  5
344
100
AcDbEntity
  8
newlayer
 62
7
100
AcDbLine
 10
379.621655
 20
253.700195
 30
0.0
 11
374.667216
 21
253.700195
 31
0.0
  0
LINE
  5
345
100
AcDbEntity
  8
newlayer
 62
7
100
AcDbLine
 10
374.667216
 20
253.700195
 30
0.0
 11
374.667216
 21
250.600196
 31
0.0
  0
LINE
  5
346
100
AcDbEntity
  8
newlayer
 62
7
100
AcDbLine
 10
374.667216
 20
250.600196
 30
0.0
 11
369.532775
 21
250.600196
 31
0.0
  0
LINE
  5
347
100
AcDbEntity
  8
newlayer
 62
7
100
AcDbLine
 10
369.532775
 20
250.600196
 30
0.0
 11
369.532775
 21
253.700195
 31
0.0
  0
LINE
  5
348
100
AcDbEntity
  8
newlayer
 62
7
100
AcDbLine
 10
369.532775
 20
253.700195
 30
0.0
 11
364.578336
 21
253.700195
 31
0.0
  0
LINE
  5
349
100
AcDbEntity
  8
newlayer
 62
7
100
AcDbLine
 10
364.578336
 20
253.700195
 30
0.0
 11
364.578336
 21
250.600196
 31
0.0
  0
LINE
  5
34a
100
AcDbEntity
  8
newlayer
 62
7
100
AcDbLine
 10
364.578336
 20
250.600196
 30
0.0
 11
359.443895
 21
250.600196
 31
0.0
  0
LINE
  5
34b
100
AcDbEntity
  8
newlayer
 62
7
100
AcDbLine
 10
359.443895
 20
250.600196
 30
0.0
 11
359.443895
 21
253.700195
 31
0.0
  0
LINE
  5
34c
100
AcDbEntity
  8
newlayer
 62
7
100
AcDbLine
 10
359.443895
 20
253.700195
 30
0.0
 11
354.489456
 21
253.700195
 31
0.0
  0
LINE
  5
34d
100
AcDbEntity
  8
newlayer
 62
7
100
AcDbLine
 10
354.489456
 20
253.700195
 30
0.0
 11
354.489456
 21
250.600196
 31
0.0
  0
LINE
  5
34e
100
AcDbEntity
  8
newlayer
 62
7
100
AcDbLine
 10
354.489456
 20
250.600196
 30
0.0
 11
352.499986
 21
250.600196
 31
0.0
  0
LINE
  5
34f
100
AcDbEntity
  8
newlayer
 62
7
100
AcDbLine
 10
352.499986
 20
250.600196
 30
0.0
 11
352.499986
 21
255.688530
 31
0.0
  0
LINE
  5
350
100
AcDbEntity
  8
newlayer
 62
7
100
AcDbLine
 10
352.499986
 20
255.688530
 30
0.0
 11
349.400001
 21
255.688530
 31
0.0
  0
LINE
  5
351
100
AcDbEntity
  8
newlayer
 62
7
100
AcDbLine
 10
349.400001
 20
255.688530
 30
0.0
 11
349.400001
 21
260.911862
 31
0.0
  0
LINE
  5
352
100
AcDbEntity
  8
newlayer
 62
7
100
AcDbLine
 10
349.400001
 20
260.911862
 30
0.0
 11
352.499986
 21
260.911862
 31
0.0
  0
LINE
  5
353
100
AcDbEntity
  8
newlayer
 62
7
100
AcDbLine
 10
352.499986
 20
260.911862
 30
0.0
 11
352.499986
 21
265.955196
 31
0.0
  0
LINE
  5
354
100
AcDbEntity
  8
newlayer
 62
7
100
AcDbLine
 10
352.499986
 20
265.955196
 30
0.0
 11
349.400001
 21
265.955196
 31
0.0
  0
LINE
  5
355
100
AcDbEntity
  8
newlayer
 62
7
100
AcDbLine
 10
349.400001
 20
265.955196
 30
0.0
 11
349.400001
 21
271.178530
 31
0.0
  0
LINE
  5
356
100
AcDbEntity
  8
newlayer
 62
7
100
AcDbLine
 10
349.400001
 20
271.178530
 30
0.0
 11
352.499986
 21
271.178530
 31
0.0
  0
LINE
  5
357
100
AcDbEntity
  8
newlayer
 62
7
100
AcDbLine
 10
352.499986
 20
271.178530
 30
0.0
 11
352.499986
 21
276.221863
 31
0.0
  0
LINE
  5
358
100
AcDbEntity
  8
newlayer
 62
7
100
AcDbLine
 10
352.499986
 20
276.221863
 30
0.0
 11
349.400001
 21
276.221863
 31
0.0
  0
LINE
  5
359
100
AcDbEntity
  8
newlayer
 62
7
100
AcDbLine
 10
349.400001
 20
276.221863
 30
0.0
 11
349.400001
 21
281.445196
 31
0.0
  0
LINE
  5
35a
100
AcDbEntity
  8
newlayer
 62
7
100
AcDbLine
 10
349.400001
 20
281.445196
 30
0.0
 11
352.499986
 21
281.445196
 31
0.0
  0
LINE
  5
35b
100
AcDbEntity
  8
newlayer
 62
7
100
AcDbLine
 10
352.499986
 20
281.445196
 30
0.0
 11
352.499986
 21
286.488530
 31
0.0
  0
LINE
  5
35c
100
AcDbEntity
  8
newlayer
 62
7
100
AcDbLine
 10
352.499986
 20
286.488530
 30
0.0
 11
349.400001
 21
286.488530
 31
0.0
  0
LINE
  5
35d
100
AcDbEntity
  8
newlayer
 62
7
100
AcDbLine
 10
349.400001
 20
286.488530
 30
0.0
 11
349.400001
 21
291.711863
 31
0.0
  0
LINE
  5
35e
100
AcDbEntity
  8
newlayer
 62
7
100
AcDbLine
 10
349.400001
 20
291.711863
 30
0.0
 11
352.499986
 21
291.711863
 31
0.0
  0
LINE
  5
35f
100
AcDbEntity
  8
newlayer
 62
7
100
AcDbLine
 10
352.499986
 20
291.711863
 30
0.0
 11
352.499986
 21
296.800196
 31
0.0
  0
LINE
  5
360
100
AcDbEntity
  8
newlayer
 62
7
100
AcDbLine
 10
488.899990
 20
293.700196
 30
0.0
 11
490.812130
 21
293.700196
 31
0.0
  0
LINE
  5
361
100
AcDbEntity
  8
newlayer
 62
7
100
AcDbLine
 10
490.812130
 20
293.700196
 30
0.0
 11
490.812130
 21
296.800196
 31
0.0
  0
LINE
  5
362
100
AcDbEntity
  8
newlayer
 62
7
100
AcDbLine
 10
490.812130
 20
296.800196
 30
0.0
 11
495.959271
 21
296.800196
 31
0.0
  0
LINE
  5
363
100
AcDbEntity
  8
newlayer
 62
7
100
AcDbLine
 10
495.959271
 20
296.800196
 30
0.0
 11
495.959271
 21
293.700196
 31
0.0
  0
LINE
  5
364
100
AcDbEntity
  8
newlayer
 62
7
100
AcDbLine
 10
495.959271
 20
293.700196
 30
0.0
 11
500.926439
 21
293.700196
 31
0.0
  0
LINE
  5
365
100
AcDbEntity
  8
newlayer
 62
7
100
AcDbLine
 10
500.926439
 20
293.700196
 30
0.0
 11
500.926439
 21
296.800196
 31
0.0
  0
LINE
  5
366
100
AcDbEntity
  8
newlayer
 62
7
100
AcDbLine
 10
500.926439
 20
296.800196
 30
0.0
 11
506.073579
 21
296.800196
 31
0.0
  0
LINE
  5
367
100
AcDbEntity
  8
newlayer
 62
7
100
AcDbLine
 10
506.073579
 20
296.800196
 30
0.0
 11
506.073579
 21
293.700196
 31
0.0
  0
LINE
  5
368
100
AcDbEntity
  8
newlayer
 62
7
100
AcDbLine
 10
506.073579
 20
293.700196
 30
0.0
 11
511.040719
 21
293.700196
 31
0.0
  0
LINE
  5
369
100
AcDbEntity
  8
newlayer
 62
7
100
AcDbLine
 10
511.040719
 20
293.700196
 30
0.0
 11
511.040719
 21
296.800196
 31
0.0
  0
LINE
  5
36a
100
AcDbEntity
  8
newlayer
 62
7
100
AcDbLine
 10
511.040719
 20
296.800196
 30
0.0
 11
516.187859
 21
296.800196
 31
0.0
  0
LINE
  5
36b
100
AcDbEntity
  8
newlayer
 62
7
100
AcDbLine
 10
516.187859
 20
296.800196
 30
0.0
 11
516.187859
 21
293.700196
 31
0.0
  0
LINE
  5
36c
100
AcDbEntity
  8
newlayer
 62
7
100
AcDbLine
 10
516.187859
 20
293.700196
 30
0.0
 11
521.154999
 21
293.700196
 31
0.0
  0
LINE
  5
36d
100
AcDbEntity
  8
newlayer
 62
7
100
AcDbLine
 10
521.154999
 20
293.700196
 30
0.0
 11
521.154999
 21
296.800196
 31
0.0
  0
LINE
  5
36e
100
AcDbEntity
  8
newlayer
 62
7
100
AcDbLine
 10
521.154999
 20
296.800196
 30
0.0
 11
526.302139
 21
296.800196
 31
0.0
  0
LINE
  5
36f
100
AcDbEntity
  8
newlayer
 62
7
100
AcDbLine
 10
526.302139
 20
296.800196
 30
0.0
 11
526.302139
 21
293.700196
 31
0.0
  0
LINE
  5
370
100
AcDbEntity
  8
newlayer
 62
7
100
AcDbLine
 10
526.302139
 20
293.700196
 30
0.0
 11
531.269279
 21
293.700196
 31
0.0
  0
LINE
  5
371
100
AcDbEntity
  8
newlayer
 62
7
100
AcDbLine
 10
531.269279
 20
293.700196
 30
0.0
 11
531.269279
 21
296.800196
 31
0.0
  0
LINE
  5
372
100
AcDbEntity
  8
newlayer
 62
7
100
AcDbLine
 10
531.269279
 20
296.800196
 30
0.0
 11
536.416419
 21
296.800196
 31
0.0
  0
LINE
  5
373
100
AcDbEntity
  8
newlayer
 62
7
100
AcDbLine
 10
536.416419
 20
296.800196
 30
0.0
 11
536.416419
 21
293.700196
 31
0.0
  0
LINE
  5
374
100
AcDbEntity
  8
newlayer
 62
7
100
AcDbLine
 10
536.416419
 20
293.700196
 30
0.0
 11
541.383559
 21
293.700196
 31
0.0
  0
LINE
  5
375
100
AcDbEntity
  8
newlayer
 62
7
100
AcDbLine
 10
541.383559
 20
293.700196
 30
0.0
 11
541.383559
 21
296.800196
 31
0.0
  0
LINE
  5
376
100
AcDbEntity
  8
newlayer
 62
7
100
AcDbLine
 10
541.383559
 20
296.800196
 30
0.0
 11
546.530699
 21
296.800196
 31
0.0
  0
LINE
  5
377
100
AcDbEntity
  8
newlayer
 62
7
100
AcDbLine
 10
546.530699
 20
296.800196
 30
0.0
 11
546.530699
 21
293.700196
 31
0.0
  0
LINE
  5
378
100
AcDbEntity
  8
newlayer
 62
7
100
AcDbLine
 10
546.530699
 20
293.700196
 30
0.0
 11
551.497867
 21
293.700196
 31
0.0
  0
LINE
  5
379
100
AcDbEntity
  8
newlayer
 62
7
100
AcDbLine
 10
551.497867
 20
293.700196
 30
0.0
 11
551.497867
 21
296.800196
 31
0.0
  0
LINE
  5
37a
100
AcDbEntity
  8
newlayer
 62
7
100
AcDbLine
 10
551.497867
 20
296.800196
 30
0.0
 11
556.645008
 21
296.800196
 31
0.0
  0
LINE
  5
37b
100
AcDbEntity
  8
newlayer
 62
7
100
AcDbLine
 10
556.645008
 20
296.800196
 30
0.0
 11
556.645008
 21
293.700196
 31
0.0
  0
LINE
  5
37c
100
AcDbEntity
  8
newlayer
 62
7
100
AcDbLine
 10
556.645008
 20
293.700196
 30
0.0
 11
561.612147
 21
293.700196
 31
0.0
  0
LINE
  5
37d
100
AcDbEntity
  8
newlayer
 62
7
100
AcDbLine
 10
561.612147
 20
293.700196
 30
0.0
 11
561.612147
 21
296.800196
 31
0.0
  0
LINE
  5
37e
100
AcDbEntity
  8
newlayer
 62
7
100
AcDbLine
 10
561.612147
 20
296.800196
 30
0.0
 11
566.759288
 21
296.800196
 31
0.0
  0
LINE
  5
37f
100
AcDbEntity
  8
newlayer
 62
7
100
AcDbLine
 10
566.759288
 20
296.800196
 30
0.0
 11
566.759288
 21
293.700196
 31
0.0
  0
LINE
  5
380
100
AcDbEntity
  8
newlayer
 62
7
100
AcDbLine
 10
566.759288
 20
293.700196
 30
0.0
 11
571.726427
 21
293.700196
 31
0.0
  0
LINE
  5
381
100
AcDbEntity
  8
newlayer
 62
7
100
AcDbLine
 10
571.726427
 20
293.700196
 30
0.0
 11
571.726427
 21
296.800196
 31
0.0
  0
LINE
  5
382
100
AcDbEntity
  8
newlayer
 62
7
100
AcDbLine
 10
571.726427
 20
296.800196
 30
0.0
 11
576.873568
 21
296.800196
 31
0.0
  0
LINE
  5
383
100
AcDbEntity
  8
newlayer
 62
7
100
AcDbLine
 10
576.873568
 20
296.800196
 30
0.0
 11
576.873568
 21
293.700196
 31
0.0
  0
LINE
  5
384
100
AcDbEntity
  8
newlayer
 62
7
100
AcDbLine
 10
576.873568
 20
293.700196
 30
0.0
 11
581.840707
 21
293.700196
 31
0.0
  0
LINE
  5
385
100
AcDbEntity
  8
newlayer
 62
7
100
AcDbLine
 10
581.840707
 20
293.700196
 30
0.0
 11
581.840707
 21
296.800196
 31
0.0
  0
LINE
  5
386
100
AcDbEntity
  8
newlayer
 62
7
100
AcDbLine
 10
581.840707
 20
296.800196
 30
0.0
 11
586.987848
 21
296.800196
 31
0.0
  0
LINE
  5
387
100
AcDbEntity
  8
newlayer
 62
7
100
AcDbLine
 10
586.987848
 20
296.800196
 30
0.0
 11
586.987848
 21
293.700196
 31
0.0
  0
LINE
  5
388
100
AcDbEntity
  8
newlayer
 62
7
100
AcDbLine
 10
586.987848
 20
293.700196
 30
0.0
 11
588.899988
 21
293.700196
 31
0.0
  0
LINE
  5
389
100
AcDbEntity
  8
newlayer
 62
7
100
AcDbLine
 10
588.899988
 20
293.700196
 30
0.0
 11
588.899988
 21
291.800752
 31
0.0
  0
LINE
  5
38a
100
AcDbEntity
  8
newlayer
 62
7
100
AcDbLine
 10
588.899988
 20
291.800752
 30
0.0
 11
592.000001
 21
291.800752
 31
0.0
  0
LINE
  5
38b
100
AcDbEntity
  8
newlayer
 62
7
100
AcDbLine
 10
592.000001
 20
291.800752
 30
0.0
 11
592.000001
 21
286.666307
 31
0.0
  0
LINE
  5
38c
100
AcDbEntity
  8
newlayer
 62
7
100
AcDbLine
 10
592.000001
 20
286.666307
 30
0.0
 11
588.899988
 21
286.666307
 31
0.0
  0
LINE
  5
38d
100
AcDbEntity
  8
newlayer
 62
7
100
AcDbLine
 10
588.899988
 20
286.666307
 30
0.0
 11
588.899988
 21
281.711863
 31
0.0
  0
LINE
  5
38e
100
AcDbEntity
  8
newlayer
 62
7
100
AcDbLine
 10
588.899988
 20
281.711863
 30
0.0
 11
592.000001
 21
281.711863
 31
0.0
  0
LINE
  5
38f
100
AcDbEntity
  8
newlayer
 62
7
100
AcDbLine
 10
592.000001
 20
281.711863
 30
0.0
 11
592.000001
 21
276.577419
 31
0.0
  0
LINE
  5
390
100
AcDbEntity
  8
newlayer
 62
7
100
AcDbLine
 10
592.000001
 20
276.577419
 30
0.0
 11
588.899988
 21
276.577419
 31
0.0
  0
LINE
  5
391
100
AcDbEntity
  8
newlayer
 62
7
100
AcDbLine
 10
588.899988
 20
276.577419
 30
0.0
 11
588.899988
 21
271.622974
 31
0.0
  0
LINE
  5
392
100
AcDbEntity
  8
newlayer
 62
7
100
AcDbLine
 10
588.899988
 20
271.622974
 30
0.0
 11
592.000001
 21
271.622974
 31
0.0
  0
LINE
  5
393
100
AcDbEntity
  8
newlayer
 62
7
100
AcDbLine
 10
592.000001
 20
271.622974
 30
0.0
 11
592.000001
 21
266.488531
 31
0.0
  0
LINE
  5
394
100
AcDbEntity
  8
newlayer
 62
7
100
AcDbLine
 10
592.000001
 20
266.488531
 30
0.0
 11
588.899988
 21
266.488531
 31
0.0
  0
LINE
  5
395
100
AcDbEntity
  8
newlayer
 62
7
100
AcDbLine
 10
588.899988
 20
266.488531
 30
0.0
 11
588.899988
 21
261.534086
 31
0.0
  0
LINE
  5
396
100
AcDbEntity
  8
newlayer
 62
7
100
AcDbLine
 10
588.899988
 20
261.534086
 30
0.0
 11
592.000001
 21
261.534086
 31
0.0
  0
LINE
  5
397
100
AcDbEntity
  8
newlayer
 62
7
100
AcDbLine
 10
592.000001
 20
261.534086
 30
0.0
 11
592.000001
 21
256.399640
 31
0.0
  0
LINE
  5
398
100
AcDbEntity
  8
newlayer
 62
7
100
AcDbLine
 10
592.000001
 20
256.399640
 30
0.0
 11
588.899988
 21
256.399640
 31
0.0
  0
LINE
  5
399
100
AcDbEntity
  8
newlayer
 62
7
100
AcDbLine
 10
588.899988
 20
256.399640
 30
0.0
 11
588.899988
 21
251.445197
 31
0.0
  0
LINE
  5
39a
100
AcDbEntity
  8
newlayer
 62
7
100
AcDbLine
 10
588.899988
 20
251.445197
 30
0.0
 11
592.000001
 21
251.445197
 31
0.0
  0
LINE
  5
39b
100
AcDbEntity
  8
newlayer
 62
7
100
AcDbLine
 10
592.000001
 20
251.445197
 30
0.0
 11
592.000001
 21
246.310751
 31
0.0
  0
LINE
  5
39c
100
AcDbEntity
  8
newlayer
 62
7
100
AcDbLine
 10
592.000001
 20
246.310751
 30
0.0
 11
588.899988
 21
246.310751
 31
0.0
  0
LINE
  5
39d
100
AcDbEntity
  8
newlayer
 62
7
100
AcDbLine
 10
588.899988
 20
246.310751
 30
0.0
 11
588.899988
 21
241.356306
 31
0.0
  0
LINE
  5
39e
100
AcDbEntity
  8
newlayer
 62
7
100
AcDbLine
 10
588.899988
 20
241.356306
 30
0.0
 11
592.000001
 21
241.356306
 31
0.0
  0
LINE
  5
39f
100
AcDbEntity
  8
newlayer
 62
7
100
AcDbLine
 10
592.000001
 20
241.356306
 30
0.0
 11
592.000001
 21
236.221863
 31
0.0
  0
LINE
  5
3a0
100
AcDbEntity
  8
newlayer
 62
7
100
AcDbLine
 10
592.000001
 20
236.221863
 30
0.0
 11
588.899988
 21
236.221863
 31
0.0
  0
LINE
  5
3a1
100
AcDbEntity
  8
newlayer
 62
7
100
AcDbLine
 10
588.899988
 20
236.221863
 30
0.0
 11
588.899988
 21
231.267418
 31
0.0
  0
LINE
  5
3a2
100
AcDbEntity
  8
newlayer
 62
7
100
AcDbLine
 10
588.899988
 20
231.267418
 30
0.0
 11
592.000001
 21
231.267418
 31
0.0
  0
LINE
  5
3a3
100
AcDbEntity
  8
newlayer
 62
7
100
AcDbLine
 10
592.000001
 20
231.267418
 30
0.0
 11
592.000001
 21
226.132974
 31
0.0
  0
LINE
  5
3a4
100
AcDbEntity
  8
newlayer
 62
7
100
AcDbLine
 10
592.000001
 20
226.132974
 30
0.0
 11
588.899988
 21
226.132974
 31
0.0
  0
LINE
  5
3a5
100
AcDbEntity
  8
newlayer
 62
7
100
AcDbLine
 10
588.899988
 20
226.132974
 30
0.0
 11
588.899988
 21
221.178529
 31
0.0
  0
LINE
  5
3a6
100
AcDbEntity
  8
newlayer
 62
7
100
AcDbLine
 10
588.899988
 20
221.178529
 30
0.0
 11
592.000001
 21
221.178529
 31
0.0
  0
LINE
  5
3a7
100
AcDbEntity
  8
newlayer
 62
7
100
AcDbLine
 10
592.000001
 20
221.178529
 30
0.0
 11
592.000001
 21
216.044086
 31
0.0
  0
LINE
  5
3a8
100
AcDbEntity
  8
newlayer
 62
7
100
AcDbLine
 10
592.000001
 20
216.044086
 30
0.0
 11
588.899988
 21
216.044086
 31
0.0
  0
LINE
  5
3a9
100
AcDbEntity
  8
newlayer
 62
7
100
AcDbLine
 10
588.899988
 20
216.044086
 30
0.0
 11
588.899988
 21
211.089641
 31
0.0
  0
LINE
  5
3aa
100
AcDbEntity
  8
newlayer
 62
7
100
AcDbLine
 10
588.899988
 20
211.089641
 30
0.0
 11
592.000001
 21
211.089641
 31
0.0
  0
LINE
  5
3ab
100
AcDbEntity
  8
newlayer
 62
7
100
AcDbLine
 10
592.000001
 20
211.089641
 30
0.0
 11
592.000001
 21
205.955197
 31
0.0
  0
LINE
  5
3ac
100
AcDbEntity
  8
newlayer
 62
7
100
AcDbLine
 10
592.000001
 20
205.955197
 30
0.0
 11
588.899988
 21
205.955197
 31
0.0
  0
LINE
  5
3ad
100
AcDbEntity
  8
newlayer
 62
7
100
AcDbLine
 10
588.899988
 20
205.955197
 30
0.0
 11
588.899988
 21
201.000752
 31
0.0
  0
LINE
  5
3ae
100
AcDbEntity
  8
newlayer
 62
7
100
AcDbLine
 10
588.899988
 20
201.000752
 30
0.0
 11
592.000001
 21
201.000752
 31
0.0
  0
LINE
  5
3af
100
AcDbEntity
  8
newlayer
 62
7
100
AcDbLine
 10
592.000001
 20
201.000752
 30
0.0
 11
592.000001
 21
195.866309
 31
0.0
  0
LINE
  5
3b0
100
AcDbEntity
  8
newlayer
 62
7
100
AcDbLine
 10
592.000001
 20
195.866309
 30
0.0
 11
588.899988
 21
195.866309
 31
0.0
  0
LINE
  5
3b1
100
AcDbEntity
  8
newlayer
 62
7
100
AcDbLine
 10
588.899988
 20
195.866309
 30
0.0
 11
588.899988
 21
190.911864
 31
0.0
  0
LINE
  5
3b2
100
AcDbEntity
  8
newlayer
 62
7
100
AcDbLine
 10
588.899988
 20
190.911864
 30
0.0
 11
592.000001
 21
190.911864
 31
0.0
  0
LINE
  5
3b3
100
AcDbEntity
  8
newlayer
 62
7
100
AcDbLine
 10
592.000001
 20
190.911864
 30
0.0
 11
592.000001
 21
185.777418
 31
0.0
  0
LINE
  5
3b4
100
AcDbEntity
  8
newlayer
 62
7
100
AcDbLine
 10
592.000001
 20
185.777418
 30
0.0
 11
588.899988
 21
185.777418
 31
0.0
  0
LINE
  5
3b5
100
AcDbEntity
  8
newlayer
 62
7
100
AcDbLine
 10
588.899988
 20
185.777418
 30
0.0
 11
588.899988
 21
180.822975
 31
0.0
  0
LINE
  5
3b6
100
AcDbEntity
  8
newlayer
 62
7
100
AcDbLine
 10
588.899988
 20
180.822975
 30
0.0
 11
592.000001
 21
180.822975
 31
0.0
  0
LINE
  5
3b7
100
AcDbEntity
  8
newlayer
 62
7
100
AcDbLine
 10
592.000001
 20
180.822975
 30
0.0
 11
592.000001
 21
175.688529
 31
0.0
  0
LINE
  5
3b8
100
AcDbEntity
  8
newlayer
 62
7
100
AcDbLine
 10
592.000001
 20
175.688529
 30
0.0
 11
588.899988
 21
175.688529
 31
0.0
  0
LINE
  5
3b9
100
AcDbEntity
  8
newlayer
 62
7
100
AcDbLine
 10
588.899988
 20
175.688529
 30
0.0
 11
588.899988
 21
170.734084
 31
0.0
  0
LINE
  5
3ba
100
AcDbEntity
  8
newlayer
 62
7
100
AcDbLine
 10
588.899988
 20
170.734084
 30
0.0
 11
592.000001
 21
170.734084
 31
0.0
  0
LINE
  5
3bb
100
AcDbEntity
  8
newlayer
 62
7
100
AcDbLine
 10
592.000001
 20
170.734084
 30
0.0
 11
592.000001
 21
165.599641
 31
0.0
  0
LINE
  5
3bc
100
AcDbEntity
  8
newlayer
 62
7
100
AcDbLine
 10
592.000001
 20
165.599641
 30
0.0
 11
588.899988
 21
165.599641
 31
0.0
  0
LINE
  5
3bd
100
AcDbEntity
  8
newlayer
 62
7
100
AcDbLine
 10
588.899988
 20
165.599641
 30
0.0
 11
588.899988
 21
163.700198
 31
0.0
  0
LINE
  5
3be
100
AcDbEntity
  8
newlayer
 62
7
100
AcDbLine
 10
588.899988
 20
163.700198
 30
0.0
 11
586.987848
 21
163.700198
 31
0.0
  0
LINE
  5
3bf
100
AcDbEntity
  8
newlayer
 62
7
100
AcDbLine
 10
586.987848
 20
163.700198
 30
0.0
 11
586.987848
 21
160.600195
 31
0.0
  0
LINE
  5
3c0
100
AcDbEntity
  8
newlayer
 62
7
100
AcDbLine
 10
586.987848
 20
160.600195
 30
0.0
 11
581.840707
 21
160.600195
 31
0.0
  0
LINE
  5
3c1
100
AcDbEntity
  8
newlayer
 62
7
100
AcDbLine
 10
581.840707
 20
160.600195
 30
0.0
 11
581.840707
 21
163.700198
 31
0.0
  0
LINE
  5
3c2
100
AcDbEntity
  8
newlayer
 62
7
100
AcDbLine
 10
581.840707
 20
163.700198
 30
0.0
 11
576.873568
 21
163.700198
 31
0.0
  0
LINE
  5
3c3
100
AcDbEntity
  8
newlayer
 62
7
100
AcDbLine
 10
576.873568
 20
163.700198
 30
0.0
 11
576.873568
 21
160.600195
 31
0.0
  0
LINE
  5
3c4
100
AcDbEntity
  8
newlayer
 62
7
100
AcDbLine
 10
576.873568
 20
160.600195
 30
0.0
 11
571.726427
 21
160.600195
 31
0.0
  0
LINE
  5
3c5
100
AcDbEntity
  8
newlayer
 62
7
100
AcDbLine
 10
571.726427
 20
160.600195
 30
0.0
 11
571.726427
 21
163.700198
 31
0.0
  0
LINE
  5
3c6
100
AcDbEntity
  8
newlayer
 62
7
100
AcDbLine
 10
571.726427
 20
163.700198
 30
0.0
 11
566.759288
 21
163.700198
 31
0.0
  0
LINE
  5
3c7
100
AcDbEntity
  8
newlayer
 62
7
100
AcDbLine
 10
566.759288
 20
163.700198
 30
0.0
 11
566.759288
 21
160.600195
 31
0.0
  0
LINE
  5
3c8
100
AcDbEntity
  8
newlayer
 62
7
100
AcDbLine
 10
566.759288
 20
160.600195
 30
0.0
 11
561.612147
 21
160.600195
 31
0.0
  0
LINE
  5
3c9
100
AcDbEntity
  8
newlayer
 62
7
100
AcDbLine
 10
561.612147
 20
160.600195
 30
0.0
 11
561.612147
 21
163.700198
 31
0.0
  0
LINE
  5
3ca
100
AcDbEntity
  8
newlayer
 62
7
100
AcDbLine
 10
561.612147
 20
163.700198
 30
0.0
 11
556.645008
 21
163.700198
 31
0.0
  0
LINE
  5
3cb
100
AcDbEntity
  8
newlayer
 62
7
100
AcDbLine
 10
556.645008
 20
163.700198
 30
0.0
 11
556.645008
 21
160.600195
 31
0.0
  0
LINE
  5
3cc
100
AcDbEntity
  8
newlayer
 62
7
100
AcDbLine
 10
556.645008
 20
160.600195
 30
0.0
 11
551.497867
 21
160.600195
 31
0.0
  0
LINE
  5
3cd
100
AcDbEntity
  8
newlayer
 62
7
100
AcDbLine
 10
551.497867
 20
160.600195
 30
0.0
 11
551.497867
 21
163.700198
 31
0.0
  0
LINE
  5
3ce
100
AcDbEntity
  8
newlayer
 62
7
100
AcDbLine
 10
551.497867
 20
163.700198
 30
0.0
 11
546.530699
 21
163.700198
 31
0.0
  0
LINE
  5
3cf
100
AcDbEntity
  8
newlayer
 62
7
100
AcDbLine
 10
546.530699
 20
163.700198
 30
0.0
 11
546.530699
 21
160.600195
 31
0.0
  0
LINE
  5
3d0
100
AcDbEntity
  8
newlayer
 62
7
100
AcDbLine
 10
546.530699
 20
160.600195
 30
0.0
 11
541.383559
 21
160.600195
 31
0.0
  0
LINE
  5
3d1
100
AcDbEntity
  8
newlayer
 62
7
100
AcDbLine
 10
541.383559
 20
160.600195
 30
0.0
 11
541.383559
 21
163.700198
 31
0.0
  0
LINE
  5
3d2
100
AcDbEntity
  8
newlayer
 62
7
100
AcDbLine
 10
541.383559
 20
163.700198
 30
0.0
 11
536.416419
 21
163.700198
 31
0.0
  0
LINE
  5
3d3
100
AcDbEntity
  8
newlayer
 62
7
100
AcDbLine
 10
536.416419
 20
163.700198
 30
0.0
 11
536.416419
 21
160.600195
 31
0.0
  0
LINE
  5
3d4
100
AcDbEntity
  8
newlayer
 62
7
100
AcDbLine
 10
536.416419
 20
160.600195
 30
0.0
 11
531.269279
 21
160.600195
 31
0.0
  0
LINE
  5
3d5
100
AcDbEntity
  8
newlayer
 62
7
100
AcDbLine
 10
531.269279
 20
160.600195
 30
0.0
 11
531.269279
 21
163.700198
 31
0.0
  0
LINE
  5
3d6
100
AcDbEntity
  8
newlayer
 62
7
100
AcDbLine
 10
531.269279
 20
163.700198
 30
0.0
 11
526.302139
 21
163.700198
 31
0.0
  0
LINE
  5
3d7
100
AcDbEntity
  8
newlayer
 62
7
100
AcDbLine
 10
526.302139
 20
163.700198
 30
0.0
 11
526.302139
 21
160.600195
 31
0.0
  0
LINE
  5
3d8
100
AcDbEntity
  8
newlayer
 62
7
100
AcDbLine
 10
526.302139
 20
160.600195
 30
0.0
 11
521.154999
 21
160.600195
 31
0.0
  0
LINE
  5
3d9
100
AcDbEntity
  8
newlayer
 62
7
100
AcDbLine
 10
521.154999
 20
160.600195
 30
0.0
 11
521.154999
 21
163.700198
 31
0.0
  0
LINE
  5
3da
100
AcDbEntity
  8
newlayer
 62
7
100
AcDbLine
 10
521.154999
 20
163.700198
 30
0.0
 11
516.187859
 21
163.700198
 31
0.0
  0
LINE
  5
3db
100
AcDbEntity
  8
newlayer
 62
7
100
AcDbLine
 10
516.187859
 20
163.700198
 30
0.0
 11
516.187859
 21
160.600195
 31
0.0
  0
LINE
  5
3dc
100
AcDbEntity
  8
newlayer
 62
7
100
AcDbLine
 10
516.187859
 20
160.600195
 30
0.0
 11
511.040719
 21
160.600195
 31
0.0
  0
LINE
  5
3dd
100
AcDbEntity
  8
newlayer
 62
7
100
AcDbLine
 10
511.040719
 20
160.600195
 30
0.0
 11
511.040719
 21
163.700198
 31
0.0
  0
LINE
  5
3de
100
AcDbEntity
  8
newlayer
 62
7
100
AcDbLine
 10
511.040719
 20
163.700198
 30
0.0
 11
506.073579
 21
163.700198
 31
0.0
  0
LINE
  5
3df
100
AcDbEntity
  8
newlayer
 62
7
100
AcDbLine
 10
506.073579
 20
163.700198
 30
0.0
 11
506.073579
 21
160.600195
 31
0.0
  0
LINE
  5
3e0
100
AcDbEntity
  8
newlayer
 62
7
100
AcDbLine
 10
506.073579
 20
160.600195
 30
0.0
 11
500.926439
 21
160.600195
 31
0.0
  0
LINE
  5
3e1
100
AcDbEntity
  8
newlayer
 62
7
100
AcDbLine
 10
500.926439
 20
160.600195
 30
0.0
 11
500.926439
 21
163.700198
 31
0.0
  0
LINE
  5
3e2
100
AcDbEntity
  8
newlayer
 62
7
100
AcDbLine
 10
500.926439
 20
163.700198
 30
0.0
 11
495.959271
 21
163.700198
 31
0.0
  0
LINE
  5
3e3
100
AcDbEntity
  8
newlayer
 62
7
100
AcDbLine
 10
495.959271
 20
163.700198
 30
0.0
 11
495.959271
 21
160.600195
 31
0.0
  0
LINE
  5
3e4
100
AcDbEntity
  8
newlayer
 62
7
100
AcDbLine
 10
495.959271
 20
160.600195
 30
0.0
 11
490.812130
 21
160.600195
 31
0.0
  0
LINE
  5
3e5
100
AcDbEntity
  8
newlayer
 62
7
100
AcDbLine
 10
490.812130
 20
160.600195
 30
0.0
 11
490.812130
 21
163.700198
 31
0.0
  0
LINE
  5
3e6
100
AcDbEntity
  8
newlayer
 62
7
100
AcDbLine
 10
490.812130
 20
163.700198
 30
0.0
 11
488.899990
 21
163.700198
 31
0.0
  0
LINE
  5
3e7
100
AcDbEntity
  8
newlayer
 62
7
100
AcDbLine
 10
488.899990
 20
163.700198
 30
0.0
 11
488.899990
 21
165.599641
 31
0.0
  0
LINE
  5
3e8
100
AcDbEntity
  8
newlayer
 62
7
100
AcDbLine
 10
488.899990
 20
165.599641
 30
0.0
 11
485.800005
 21
165.599641
 31
0.0
  0
LINE
  5
3e9
100
AcDbEntity
  8
newlayer
 62
7
100
AcDbLine
 10
485.800005
 20
165.599641
 30
0.0
 11
485.800005
 21
170.734084
 31
0.0
  0
LINE
  5
3ea
100
AcDbEntity
  8
newlayer
 62
7
100
AcDbLine
 10
485.800005
 20
170.734084
 30
0.0
 11
488.899990
 21
170.734084
 31
0.0
  0
LINE
  5
3eb
100
AcDbEntity
  8
newlayer
 62
7
100
AcDbLine
 10
488.899990
 20
170.734084
 30
0.0
 11
488.899990
 21
175.688529
 31
0.0
  0
LINE
  5
3ec
100
AcDbEntity
  8
newlayer
 62
7
100
AcDbLine
 10
488.899990
 20
175.688529
 30
0.0
 11
485.800005
 21
175.688529
 31
0.0
  0
LINE
  5
3ed
100
AcDbEntity
  8
newlayer
 62
7
100
AcDbLine
 10
485.800005
 20
175.688529
 30
0.0
 11
485.800005
 21
180.822975
 31
0.0
  0
LINE
  5
3ee
100
AcDbEntity
  8
newlayer
 62
7
100
AcDbLine
 10
485.800005
 20
180.822975
 30
0.0
 11
488.899990
 21
180.822975
 31
0.0
  0
LINE
  5
3ef
100
AcDbEntity
  8
newlayer
 62
7
100
AcDbLine
 10
488.899990
 20
180.822975
 30
0.0
 11
488.899990
 21
185.777418
 31
0.0
  0
LINE
  5
3f0
100
AcDbEntity
  8
newlayer
 62
7
100
AcDbLine
 10
488.899990
 20
185.777418
 30
0.0
 11
485.800005
 21
185.777418
 31
0.0
  0
LINE
  5
3f1
100
AcDbEntity
  8
newlayer
 62
7
100
AcDbLine
 10
485.800005
 20
185.777418
 30
0.0
 11
485.800005
 21
190.911864
 31
0.0
  0
LINE
  5
3f2
100
AcDbEntity
  8
newlayer
 62
7
100
AcDbLine
 10
485.800005
 20
190.911864
 30
0.0
 11
488.899990
 21
190.911864
 31
0.0
  0
LINE
  5
3f3
100
AcDbEntity
  8
newlayer
 62
7
100
AcDbLine
 10
488.899990
 20
190.911864
 30
0.0
 11
488.899990
 21
195.866309
 31
0.0
  0
LINE
  5
3f4
100
AcDbEntity
  8
newlayer
 62
7
100
AcDbLine
 10
488.899990
 20
195.866309
 30
0.0
 11
485.800005
 21
195.866309
 31
0.0
  0
LINE
  5
3f5
100
AcDbEntity
  8
newlayer
 62
7
100
AcDbLine
 10
485.800005
 20
195.866309
 30
0.0
 11
485.800005
 21
201.000752
 31
0.0
  0
LINE
  5
3f6
100
AcDbEntity
  8
newlayer
 62
7
100
AcDbLine
 10
485.800005
 20
201.000752
 30
0.0
 11
488.899990
 21
201.000752
 31
0.0
  0
LINE
  5
3f7
100
AcDbEntity
  8
newlayer
 62
7
100
AcDbLine
 10
488.899990
 20
201.000752
 30
0.0
 11
488.899990
 21
205.955197
 31
0.0
  0
LINE
  5
3f8
100
AcDbEntity
  8
newlayer
 62
7
100
AcDbLine
 10
488.899990
 20
205.955197
 30
0.0
 11
485.800005
 21
205.955197
 31
0.0
  0
LINE
  5
3f9
100
AcDbEntity
  8
newlayer
 62
7
100
AcDbLine
 10
485.800005
 20
205.955197
 30
0.0
 11
485.800005
 21
211.089641
 31
0.0
  0
LINE
  5
3fa
100
AcDbEntity
  8
newlayer
 62
7
100
AcDbLine
 10
485.800005
 20
211.089641
 30
0.0
 11
488.899990
 21
211.089641
 31
0.0
  0
LINE
  5
3fb
100
AcDbEntity
  8
newlayer
 62
7
100
AcDbLine
 10
488.899990
 20
211.089641
 30
0.0
 11
488.899990
 21
216.044086
 31
0.0
  0
LINE
  5
3fc
100
AcDbEntity
  8
newlayer
 62
7
100
AcDbLine
 10
488.899990
 20
216.044086
 30
0.0
 11
485.800005
 21
216.044086
 31
0.0
  0
LINE
  5
3fd
100
AcDbEntity
  8
newlayer
 62
7
100
AcDbLine
 10
485.800005
 20
216.044086
 30
0.0
 11
485.800005
 21
221.178529
 31
0.0
  0
LINE
  5
3fe
100
AcDbEntity
  8
newlayer
 62
7
100
AcDbLine
 10
485.800005
 20
221.178529
 30
0.0
 11
488.899990
 21
221.178529
 31
0.0
  0
LINE
  5
3ff
100
AcDbEntity
  8
newlayer
 62
7
100
AcDbLine
 10
488.899990
 20
221.178529
 30
0.0
 11
488.899990
 21
226.132974
 31
0.0
  0
LINE
  5
400
100
AcDbEntity
  8
newlayer
 62
7
100
AcDbLine
 10
488.899990
 20
226.132974
 30
0.0
 11
485.800005
 21
226.132974
 31
0.0
  0
LINE
  5
401
100
AcDbEntity
  8
newlayer
 62
7
100
AcDbLine
 10
485.800005
 20
226.132974
 30
0.0
 11
485.800005
 21
231.267418
 31
0.0
  0
LINE
  5
402
100
AcDbEntity
  8
newlayer
 62
7
100
AcDbLine
 10
485.800005
 20
231.267418
 30
0.0
 11
488.899990
 21
231.267418
 31
0.0
  0
LINE
  5
403
100
AcDbEntity
  8
newlayer
 62
7
100
AcDbLine
 10
488.899990
 20
231.267418
 30
0.0
 11
488.899990
 21
236.221863
 31
0.0
  0
LINE
  5
404
100
AcDbEntity
  8
newlayer
 62
7
100
AcDbLine
 10
488.899990
 20
236.221863
 30
0.0
 11
485.800005
 21
236.221863
 31
0.0
  0
LINE
  5
405
100
AcDbEntity
  8
newlayer
 62
7
100
AcDbLine
 10
485.800005
 20
236.221863
 30
0.0
 11
485.800005
 21
241.356306
 31
0.0
  0
LINE
  5
406
100
AcDbEntity
  8
newlayer
 62
7
100
AcDbLine
 10
485.800005
 20
241.356306
 30
0.0
 11
488.899990
 21
241.356306
 31
0.0
  0
LINE
  5
407
100
AcDbEntity
  8
newlayer
 62
7
100
AcDbLine
 10
488.899990
 20
241.356306
 30
0.0
 11
488.899990
 21
246.310751
 31
0.0
  0
LINE
  5
408
100
AcDbEntity
  8
newlayer
 62
7
100
AcDbLine
 10
488.899990
 20
246.310751
 30
0.0
 11
485.800005
 21
246.310751
 31
0.0
  0
LINE
  5
409
100
AcDbEntity
  8
newlayer
 62
7
100
AcDbLine
 10
485.800005
 20
246.310751
 30
0.0
 11
485.800005
 21
251.445197
 31
0.0
  0
LINE
  5
40a
100
AcDbEntity
  8
newlayer
 62
7
100
AcDbLine
 10
485.800005
 20
251.445197
 30
0.0
 11
488.899990
 21
251.445197
 31
0.0
  0
LINE
  5
40b
100
AcDbEntity
  8
newlayer
 62
7
100
AcDbLine
 10
488.899990
 20
251.445197
 30
0.0
 11
488.899990
 21
256.399640
 31
0.0
  0
LINE
  5
40c
100
AcDbEntity
  8
newlayer
 62
7
100
AcDbLine
 10
488.899990
 20
256.399640
 30
0.0
 11
485.800005
 21
256.399640
 31
0.0
  0
LINE
  5
40d
100
AcDbEntity
  8
newlayer
 62
7
100
AcDbLine
 10
485.800005
 20
256.399640
 30
0.0
 11
485.800005
 21
261.534086
 31
0.0
  0
LINE
  5
40e
100
AcDbEntity
  8
newlayer
 62
7
100
AcDbLine
 10
485.800005
 20
261.534086
 30
0.0
 11
488.899990
 21
261.534086
 31
0.0
  0
LINE
  5
40f
100
AcDbEntity
  8
newlayer
 62
7
100
AcDbLine
 10
488.899990
 20
261.534086
 30
0.0
 11
488.899990
 21
266.488531
 31
0.0
  0
LINE
  5
410
100
AcDbEntity
  8
newlayer
 62
7
100
AcDbLine
 10
488.899990
 20
266.488531
 30
0.0
 11
485.800005
 21
266.488531
 31
0.0
  0
LINE
  5
411
100
AcDbEntity
  8
newlayer
 62
7
100
AcDbLine
 10
485.800005
 20
266.488531
 30
0.0
 11
485.800005
 21
271.622974
 31
0.0
  0
LINE
  5
412
100
AcDbEntity
  8
newlayer
 62
7
100
AcDbLine
 10
485.800005
 20
271.622974
 30
0.0
 11
488.899990
 21
271.622974
 31
0.0
  0
LINE
  5
413
100
AcDbEntity
  8
newlayer
 62
7
100
AcDbLine
 10
488.899990
 20
271.622974
 30
0.0
 11
488.899990
 21
276.577419
 31
0.0
  0
LINE
  5
414
100
AcDbEntity
  8
newlayer
 62
7
100
AcDbLine
 10
488.899990
 20
276.577419
 30
0.0
 11
485.800005
 21
276.577419
 31
0.0
  0
LINE
  5
415
100
AcDbEntity
  8
newlayer
 62
7
100
AcDbLine
 10
485.800005
 20
276.577419
 30
0.0
 11
485.800005
 21
281.711863
 31
0.0
  0
LINE
  5
416
100
AcDbEntity
  8
newlayer
 62
7
100
AcDbLine
 10
485.800005
 20
281.711863
 30
0.0
 11
488.899990
 21
281.711863
 31
0.0
  0
LINE
  5
417
100
AcDbEntity
  8
newlayer
 62
7
100
AcDbLine
 10
488.899990
 20
281.711863
 30
0.0
 11
488.899990
 21
286.666307
 31
0.0
  0
LINE
  5
418
100
AcDbEntity
  8
newlayer
 62
7
100
AcDbLine
 10
488.899990
 20
286.666307
 30
0.0
 11
485.800005
 21
286.666307
 31
0.0
  0
LINE
  5
419
100
AcDbEntity
  8
newlayer
 62
7
100
AcDbLine
 10
485.800005
 20
286.666307
 30
0.0
 11
485.800005
 21
291.800752
 31
0.0
  0
LINE
  5
41a
100
AcDbEntity
  8
newlayer
 62
7
100
AcDbLine
 10
485.800005
 20
291.800752
 30
0.0
 11
488.899990
 21
291.800752
 31
0.0
  0
LINE
  5
41b
100
AcDbEntity
  8
newlayer
 62
7
100
AcDbLine
 10
488.899990
 20
291.800752
 30
0.0
 11
488.899990
 21
293.700196
 31
0.0
  0
LINE
  5
41c
100
AcDbEntity
  8
newlayer
 62
7
100
AcDbLine
 10
595.299998
 20
293.700196
 30
0.0
 11
597.212138
 21
293.700196
 31
0.0
  0
LINE
  5
41d
100
AcDbEntity
  8
newlayer
 62
7
100
AcDbLine
 10
597.212138
 20
293.700196
 30
0.0
 11
597.212138
 21
296.800196
 31
0.0
  0
LINE
  5
41e
100
AcDbEntity
  8
newlayer
 62
7
100
AcDbLine
 10
597.212138
 20
296.800196
 30
0.0
 11
602.359278
 21
296.800196
 31
0.0
  0
LINE
  5
41f
100
AcDbEntity
  8
newlayer
 62
7
100
AcDbLine
 10
602.359278
 20
296.800196
 30
0.0
 11
602.359278
 21
293.700196
 31
0.0
  0
LINE
  5
420
100
AcDbEntity
  8
newlayer
 62
7
100
AcDbLine
 10
602.359278
 20
293.700196
 30
0.0
 11
607.326418
 21
293.700196
 31
0.0
  0
LINE
  5
421
100
AcDbEntity
  8
newlayer
 62
7
100
AcDbLine
 10
607.326418
 20
293.700196
 30
0.0
 11
607.326418
 21
296.800196
 31
0.0
  0
LINE
  5
422
100
AcDbEntity
  8
newlayer
 62
7
100
AcDbLine
 10
607.326418
 20
296.800196
 30
0.0
 11
612.473558
 21
296.800196
 31
0.0
  0
LINE
  5
423
100
AcDbEntity
  8
newlayer
 62
7
100
AcDbLine
 10
612.473558
 20
296.800196
 30
0.0
 11
612.473558
 21
293.700196
 31
0.0
  0
LINE
  5
424
100
AcDbEntity
  8
newlayer
 62
7
100
AcDbLine
 10
612.473558
 20
293.700196
 30
0.0
 11
617.440726
 21
293.700196
 31
0.0
  0
LINE
  5
425
100
AcDbEntity
  8
newlayer
 62
7
100
AcDbLine
 10
617.440726
 20
293.700196
 30
0.0
 11
617.440726
 21
296.800196
 31
0.0
  0
LINE
  5
426
100
AcDbEntity
  8
newlayer
 62
7
100
AcDbLine
 10
617.440726
 20
296.800196
 30
0.0
 11
622.587867
 21
296.800196
 31
0.0
  0
LINE
  5
427
100
AcDbEntity
  8
newlayer
 62
7
100
AcDbLine
 10
622.587867
 20
296.800196
 30
0.0
 11
622.587867
 21
293.700196
 31
0.0
  0
LINE
  5
428
100
AcDbEntity
  8
newlayer
 62
7
100
AcDbLine
 10
622.587867
 20
293.700196
 30
0.0
 11
627.555006
 21
293.700196
 31
0.0
  0
LINE
  5
429
100
AcDbEntity
  8
newlayer
 62
7
100
AcDbLine
 10
627.555006
 20
293.700196
 30
0.0
 11
627.555006
 21
296.800196
 31
0.0
  0
LINE
  5
42a
100
AcDbEntity
  8
newlayer
 62
7
100
AcDbLine
 10
627.555006
 20
296.800196
 30
0.0
 11
632.702147
 21
296.800196
 31
0.0
  0
LINE
  5
42b
100
AcDbEntity
  8
newlayer
 62
7
100
AcDbLine
 10
632.702147
 20
296.800196
 30
0.0
 11
632.702147
 21
293.700196
 31
0.0
  0
LINE
  5
42c
100
AcDbEntity
  8
newlayer
 62
7
100
AcDbLine
 10
632.702147
 20
293.700196
 30
0.0
 11
637.669286
 21
293.700196
 31
0.0
  0
LINE
  5
42d
100
AcDbEntity
  8
newlayer
 62
7
100
AcDbLine
 10
637.669286
 20
293.700196
 30
0.0
 11
637.669286
 21
296.800196
 31
0.0
  0
LINE
  5
42e
100
AcDbEntity
  8
newlayer
 62
7
100
AcDbLine
 10
637.669286
 20
296.800196
 30
0.0
 11
642.816427
 21
296.800196
 31
0.0
  0
LINE
  5
42f
100
AcDbEntity
  8
newlayer
 62
7
100
AcDbLine
 10
642.816427
 20
296.800196
 30
0.0
 11
642.816427
 21
293.700196
 31
0.0
  0
LINE
  5
430
100
AcDbEntity
  8
newlayer
 62
7
100
AcDbLine
 10
642.816427
 20
293.700196
 30
0.0
 11
647.783566
 21
293.700196
 31
0.0
  0
LINE
  5
431
100
AcDbEntity
  8
newlayer
 62
7
100
AcDbLine
 10
647.783566
 20
293.700196
 30
0.0
 11
647.783566
 21
296.800196
 31
0.0
  0
LINE
  5
432
100
AcDbEntity
  8
newlayer
 62
7
100
AcDbLine
 10
647.783566
 20
296.800196
 30
0.0
 11
652.930707
 21
296.800196
 31
0.0
  0
LINE
  5
433
100
AcDbEntity
  8
newlayer
 62
7
100
AcDbLine
 10
652.930707
 20
296.800196
 30
0.0
 11
652.930707
 21
293.700196
 31
0.0
  0
LINE
  5
434
100
AcDbEntity
  8
newlayer
 62
7
100
AcDbLine
 10
652.930707
 20
293.700196
 30
0.0
 11
657.897846
 21
293.700196
 31
0.0
  0
LINE
  5
435
100
AcDbEntity
  8
newlayer
 62
7
100
AcDbLine
 10
657.897846
 20
293.700196
 30
0.0
 11
657.897846
 21
296.800196
 31
0.0
  0
LINE
  5
436
100
AcDbEntity
  8
newlayer
 62
7
100
AcDbLine
 10
657.897846
 20
296.800196
 30
0.0
 11
663.044987
 21
296.800196
 31
0.0
  0
LINE
  5
437
100
AcDbEntity
  8
newlayer
 62
7
100
AcDbLine
 10
663.044987
 20
296.800196
 30
0.0
 11
663.044987
 21
293.700196
 31
0.0
  0
LINE
  5
438
100
AcDbEntity
  8
newlayer
 62
7
100
AcDbLine
 10
663.044987
 20
293.700196
 30
0.0
 11
668.012154
 21
293.700196
 31
0.0
  0
LINE
  5
439
100
AcDbEntity
  8
newlayer
 62
7
100
AcDbLine
 10
668.012154
 20
293.700196
 30
0.0
 11
668.012154
 21
296.800196
 31
0.0
  0
LINE
  5
43a
100
AcDbEntity
  8
newlayer
 62
7
100
AcDbLine
 10
668.012154
 20
296.800196
 30
0.0
 11
673.159295
 21
296.800196
 31
0.0
  0
LINE
  5
43b
100
AcDbEntity
  8
newlayer
 62
7
100
AcDbLine
 10
673.159295
 20
296.800196
 30
0.0
 11
673.159295
 21
293.700196
 31
0.0
  0
LINE
  5
43c
100
AcDbEntity
  8
newlayer
 62
7
100
AcDbLine
 10
673.159295
 20
293.700196
 30
0.0
 11
678.126434
 21
293.700196
 31
0.0
  0
LINE
  5
43d
100
AcDbEntity
  8
newlayer
 62
7
100
AcDbLine
 10
678.126434
 20
293.700196
 30
0.0
 11
678.126434
 21
296.800196
 31
0.0
  0
LINE
  5
43e
100
AcDbEntity
  8
newlayer
 62
7
100
AcDbLine
 10
678.126434
 20
296.800196
 30
0.0
 11
683.273575
 21
296.800196
 31
0.0
  0
LINE
  5
43f
100
AcDbEntity
  8
newlayer
 62
7
100
AcDbLine
 10
683.273575
 20
296.800196
 30
0.0
 11
683.273575
 21
293.700196
 31
0.0
  0
LINE
  5
440
100
AcDbEntity
  8
newlayer
 62
7
100
AcDbLine
 10
683.273575
 20
293.700196
 30
0.0
 11
688.240714
 21
293.700196
 31
0.0
  0
LINE
  5
441
100
AcDbEntity
  8
newlayer
 62
7
100
AcDbLine
 10
688.240714
 20
293.700196
 30
0.0
 11
688.240714
 21
296.800196
 31
0.0
  0
LINE
  5
442
100
AcDbEntity
  8
newlayer
 62
7
100
AcDbLine
 10
688.240714
 20
296.800196
 30
0.0
 11
693.387855
 21
296.800196
 31
0.0
  0
LINE
  5
443
100
AcDbEntity
  8
newlayer
 62
7
100
AcDbLine
 10
693.387855
 20
296.800196
 30
0.0
 11
693.387855
 21
293.700196
 31
0.0
  0
LINE
  5
444
100
AcDbEntity
  8
newlayer
 62
7
100
AcDbLine
 10
693.387855
 20
293.700196
 30
0.0
 11
695.299995
 21
293.700196
 31
0.0
  0
LINE
  5
445
100
AcDbEntity
  8
newlayer
 62
7
100
AcDbLine
 10
695.299995
 20
293.700196
 30
0.0
 11
695.299995
 21
291.800752
 31
0.0
  0
LINE
  5
446
100
AcDbEntity
  8
newlayer
 62
7
100
AcDbLine
 10
695.299995
 20
291.800752
 30
0.0
 11
698.400009
 21
291.800752
 31
0.0
  0
LINE
  5
447
100
AcDbEntity
  8
newlayer
 62
7
100
AcDbLine
 10
698.400009
 20
291.800752
 30
0.0
 11
698.400009
 21
286.666307
 31
0.0
  0
LINE
  5
448
100
AcDbEntity
  8
newlayer
 62
7
100
AcDbLine
 10
698.400009
 20
286.666307
 30
0.0
 11
695.299995
 21
286.666307
 31
0.0
  0
LINE
  5
449
100
AcDbEntity
  8
newlayer
 62
7
100
AcDbLine
 10
695.299995
 20
286.666307
 30
0.0
 11
695.299995
 21
281.711863
 31
0.0
  0
LINE
  5
44a
100
AcDbEntity
  8
newlayer
 62
7
100
AcDbLine
 10
695.299995
 20
281.711863
 30
0.0
 11
698.400009
 21
281.711863
 31
0.0
  0
LINE
  5
44b
100
AcDbEntity
  8
newlayer
 62
7
100
AcDbLine
 10
698.400009
 20
281.711863
 30
0.0
 11
698.400009
 21
276.577419
 31
0.0
  0
LINE
  5
44c
100
AcDbEntity
  8
newlayer
 62
7
100
AcDbLine
 10
698.400009
 20
276.577419
 30
0.0
 11
695.299995
 21
276.577419
 31
0.0
  0
LINE
  5
44d
100
AcDbEntity
  8
newlayer
 62
7
100
AcDbLine
 10
695.299995
 20
276.577419
 30
0.0
 11
695.299995
 21
271.622974
 31
0.0
  0
LINE
  5
44e
100
AcDbEntity
  8
newlayer
 62
7
100
AcDbLine
 10
695.299995
 20
271.622974
 30
0.0
 11
698.400009
 21
271.622974
 31
0.0
  0
LINE
  5
44f
100
AcDbEntity
  8
newlayer
 62
7
100
AcDbLine
 10
698.400009
 20
271.622974
 30
0.0
 11
698.400009
 21
266.488531
 31
0.0
  0
LINE
  5
450
100
AcDbEntity
  8
newlayer
 62
7
100
AcDbLine
 10
698.400009
 20
266.488531
 30
0.0
 11
695.299995
 21
266.488531
 31
0.0
  0
LINE
  5
451
100
AcDbEntity
  8
newlayer
 62
7
100
AcDbLine
 10
695.299995
 20
266.488531
 30
0.0
 11
695.299995
 21
261.534086
 31
0.0
  0
LINE
  5
452
100
AcDbEntity
  8
newlayer
 62
7
100
AcDbLine
 10
695.299995
 20
261.534086
 30
0.0
 11
698.400009
 21
261.534086
 31
0.0
  0
LINE
  5
453
100
AcDbEntity
  8
newlayer
 62
7
100
AcDbLine
 10
698.400009
 20
261.534086
 30
0.0
 11
698.400009
 21
256.399640
 31
0.0
  0
LINE
  5
454
100
AcDbEntity
  8
newlayer
 62
7
100
AcDbLine
 10
698.400009
 20
256.399640
 30
0.0
 11
695.299995
 21
256.399640
 31
0.0
  0
LINE
  5
455
100
AcDbEntity
  8
newlayer
 62
7
100
AcDbLine
 10
695.299995
 20
256.399640
 30
0.0
 11
695.299995
 21
251.445197
 31
0.0
  0
LINE
  5
456
100
AcDbEntity
  8
newlayer
 62
7
100
AcDbLine
 10
695.299995
 20
251.445197
 30
0.0
 11
698.400009
 21
251.445197
 31
0.0
  0
LINE
  5
457
100
AcDbEntity
  8
newlayer
 62
7
100
AcDbLine
 10
698.400009
 20
251.445197
 30
0.0
 11
698.400009
 21
246.310751
 31
0.0
  0
LINE
  5
458
100
AcDbEntity
  8
newlayer
 62
7
100
AcDbLine
 10
698.400009
 20
246.310751
 30
0.0
 11
695.299995
 21
246.310751
 31
0.0
  0
LINE
  5
459
100
AcDbEntity
  8
newlayer
 62
7
100
AcDbLine
 10
695.299995
 20
246.310751
 30
0.0
 11
695.299995
 21
241.356306
 31
0.0
  0
LINE
  5
45a
100
AcDbEntity
  8
newlayer
 62
7
100
AcDbLine
 10
695.299995
 20
241.356306
 30
0.0
 11
698.400009
 21
241.356306
 31
0.0
  0
LINE
  5
45b
100
AcDbEntity
  8
newlayer
 62
7
100
AcDbLine
 10
698.400009
 20
241.356306
 30
0.0
 11
698.400009
 21
236.221863
 31
0.0
  0
LINE
  5
45c
100
AcDbEntity
  8
newlayer
 62
7
100
AcDbLine
 10
698.400009
 20
236.221863
 30
0.0
 11
695.299995
 21
236.221863
 31
0.0
  0
LINE
  5
45d
100
AcDbEntity
  8
newlayer
 62
7
100
AcDbLine
 10
695.299995
 20
236.221863
 30
0.0
 11
695.299995
 21
231.267418
 31
0.0
  0
LINE
  5
45e
100
AcDbEntity
  8
newlayer
 62
7
100
AcDbLine
 10
695.299995
 20
231.267418
 30
0.0
 11
698.400009
 21
231.267418
 31
0.0
  0
LINE
  5
45f
100
AcDbEntity
  8
newlayer
 62
7
100
AcDbLine
 10
698.400009
 20
231.267418
 30
0.0
 11
698.400009
 21
226.132974
 31
0.0
  0
LINE
  5
460
100
AcDbEntity
  8
newlayer
 62
7
100
AcDbLine
 10
698.400009
 20
226.132974
 30
0.0
 11
695.299995
 21
226.132974
 31
0.0
  0
LINE
  5
461
100
AcDbEntity
  8
newlayer
 62
7
100
AcDbLine
 10
695.299995
 20
226.132974
 30
0.0
 11
695.299995
 21
221.178529
 31
0.0
  0
LINE
  5
462
100
AcDbEntity
  8
newlayer
 62
7
100
AcDbLine
 10
695.299995
 20
221.178529
 30
0.0
 11
698.400009
 21
221.178529
 31
0.0
  0
LINE
  5
463
100
AcDbEntity
  8
newlayer
 62
7
100
AcDbLine
 10
698.400009
 20
221.178529
 30
0.0
 11
698.400009
 21
216.044086
 31
0.0
  0
LINE
  5
464
100
AcDbEntity
  8
newlayer
 62
7
100
AcDbLine
 10
698.400009
 20
216.044086
 30
0.0
 11
695.299995
 21
216.044086
 31
0.0
  0
LINE
  5
465
100
AcDbEntity
  8
newlayer
 62
7
100
AcDbLine
 10
695.299995
 20
216.044086
 30
0.0
 11
695.299995
 21
211.089641
 31
0.0
  0
LINE
  5
466
100
AcDbEntity
  8
newlayer
 62
7
100
AcDbLine
 10
695.299995
 20
211.089641
 30
0.0
 11
698.400009
 21
211.089641
 31
0.0
  0
LINE
  5
467
100
AcDbEntity
  8
newlayer
 62
7
100
AcDbLine
 10
698.400009
 20
211.089641
 30
0.0
 11
698.400009
 21
205.955197
 31
0.0
  0
LINE
  5
468
100
AcDbEntity
  8
newlayer
 62
7
100
AcDbLine
 10
698.400009
 20
205.955197
 30
0.0
 11
695.299995
 21
205.955197
 31
0.0
  0
LINE
  5
469
100
AcDbEntity
  8
newlayer
 62
7
100
AcDbLine
 10
695.299995
 20
205.955197
 30
0.0
 11
695.299995
 21
201.000752
 31
0.0
  0
LINE
  5
46a
100
AcDbEntity
  8
newlayer
 62
7
100
AcDbLine
 10
695.299995
 20
201.000752
 30
0.0
 11
698.400009
 21
201.000752
 31
0.0
  0
LINE
  5
46b
100
AcDbEntity
  8
newlayer
 62
7
100
AcDbLine
 10
698.400009
 20
201.000752
 30
0.0
 11
698.400009
 21
195.866309
 31
0.0
  0
LINE
  5
46c
100
AcDbEntity
  8
newlayer
 62
7
100
AcDbLine
 10
698.400009
 20
195.866309
 30
0.0
 11
695.299995
 21
195.866309
 31
0.0
  0
LINE
  5
46d
100
AcDbEntity
  8
newlayer
 62
7
100
AcDbLine
 10
695.299995
 20
195.866309
 30
0.0
 11
695.299995
 21
190.911864
 31
0.0
  0
LINE
  5
46e
100
AcDbEntity
  8
newlayer
 62
7
100
AcDbLine
 10
695.299995
 20
190.911864
 30
0.0
 11
698.400009
 21
190.911864
 31
0.0
  0
LINE
  5
46f
100
AcDbEntity
  8
newlayer
 62
7
100
AcDbLine
 10
698.400009
 20
190.911864
 30
0.0
 11
698.400009
 21
185.777418
 31
0.0
  0
LINE
  5
470
100
AcDbEntity
  8
newlayer
 62
7
100
AcDbLine
 10
698.400009
 20
185.777418
 30
0.0
 11
695.299995
 21
185.777418
 31
0.0
  0
LINE
  5
471
100
AcDbEntity
  8
newlayer
 62
7
100
AcDbLine
 10
695.299995
 20
185.777418
 30
0.0
 11
695.299995
 21
180.822975
 31
0.0
  0
LINE
  5
472
100
AcDbEntity
  8
newlayer
 62
7
100
AcDbLine
 10
695.299995
 20
180.822975
 30
0.0
 11
698.400009
 21
180.822975
 31
0.0
  0
LINE
  5
473
100
AcDbEntity
  8
newlayer
 62
7
100
AcDbLine
 10
698.400009
 20
180.822975
 30
0.0
 11
698.400009
 21
175.688529
 31
0.0
  0
LINE
  5
474
100
AcDbEntity
  8
newlayer
 62
7
100
AcDbLine
 10
698.400009
 20
175.688529
 30
0.0
 11
695.299995
 21
175.688529
 31
0.0
  0
LINE
  5
475
100
AcDbEntity
  8
newlayer
 62
7
100
AcDbLine
 10
695.299995
 20
175.688529
 30
0.0
 11
695.299995
 21
170.734084
 31
0.0
  0
LINE
  5
476
100
AcDbEntity
  8
newlayer
 62
7
100
AcDbLine
 10
695.299995
 20
170.734084
 30
0.0
 11
698.400009
 21
170.734084
 31
0.0
  0
LINE
  5
477
100
AcDbEntity
  8
newlayer
 62
7
100
AcDbLine
 10
698.400009
 20
170.734084
 30
0.0
 11
698.400009
 21
165.599641
 31
0.0
  0
LINE
  5
478
100
AcDbEntity
  8
newlayer
 62
7
100
AcDbLine
 10
698.400009
 20
165.599641
 30
0.0
 11
695.299995
 21
165.599641
 31
0.0
  0
LINE
  5
479
100
AcDbEntity
  8
newlayer
 62
7
100
AcDbLine
 10
695.299995
 20
165.599641
 30
0.0
 11
695.299995
 21
163.700198
 31
0.0
  0
LINE
  5
47a
100
AcDbEntity
  8
newlayer
 62
7
100
AcDbLine
 10
695.299995
 20
163.700198
 30
0.0
 11
693.387855
 21
163.700198
 31
0.0
  0
LINE
  5
47b
100
AcDbEntity
  8
newlayer
 62
7
100
AcDbLine
 10
693.387855
 20
163.700198
 30
0.0
 11
693.387855
 21
160.600195
 31
0.0
  0
LINE
  5
47c
100
AcDbEntity
  8
newlayer
 62
7
100
AcDbLine
 10
693.387855
 20
160.600195
 30
0.0
 11
688.240714
 21
160.600195
 31
0.0
  0
LINE
  5
47d
100
AcDbEntity
  8
newlayer
 62
7
100
AcDbLine
 10
688.240714
 20
160.600195
 30
0.0
 11
688.240714
 21
163.700198
 31
0.0
  0
LINE
  5
47e
100
AcDbEntity
  8
newlayer
 62
7
100
AcDbLine
 10
688.240714
 20
163.700198
 30
0.0
 11
683.273575
 21
163.700198
 31
0.0
  0
LINE
  5
47f
100
AcDbEntity
  8
newlayer
 62
7
100
AcDbLine
 10
683.273575
 20
163.700198
 30
0.0
 11
683.273575
 21
160.600195
 31
0.0
  0
LINE
  5
480
100
AcDbEntity
  8
newlayer
 62
7
100
AcDbLine
 10
683.273575
 20
160.600195
 30
0.0
 11
678.126434
 21
160.600195
 31
0.0
  0
LINE
  5
481
100
AcDbEntity
  8
newlayer
 62
7
100
AcDbLine
 10
678.126434
 20
160.600195
 30
0.0
 11
678.126434
 21
163.700198
 31
0.0
  0
LINE
  5
482
100
AcDbEntity
  8
newlayer
 62
7
100
AcDbLine
 10
678.126434
 20
163.700198
 30
0.0
 11
673.159295
 21
163.700198
 31
0.0
  0
LINE
  5
483
100
AcDbEntity
  8
newlayer
 62
7
100
AcDbLine
 10
673.159295
 20
163.700198
 30
0.0
 11
673.159295
 21
160.600195
 31
0.0
  0
LINE
  5
484
100
AcDbEntity
  8
newlayer
 62
7
100
AcDbLine
 10
673.159295
 20
160.600195
 30
0.0
 11
668.012154
 21
160.600195
 31
0.0
  0
LINE
  5
485
100
AcDbEntity
  8
newlayer
 62
7
100
AcDbLine
 10
668.012154
 20
160.600195
 30
0.0
 11
668.012154
 21
163.700198
 31
0.0
  0
LINE
  5
486
100
AcDbEntity
  8
newlayer
 62
7
100
AcDbLine
 10
668.012154
 20
163.700198
 30
0.0
 11
663.044987
 21
163.700198
 31
0.0
  0
LINE
  5
487
100
AcDbEntity
  8
newlayer
 62
7
100
AcDbLine
 10
663.044987
 20
163.700198
 30
0.0
 11
663.044987
 21
160.600195
 31
0.0
  0
LINE
  5
488
100
AcDbEntity
  8
newlayer
 62
7
100
AcDbLine
 10
663.044987
 20
160.600195
 30
0.0
 11
657.897846
 21
160.600195
 31
0.0
  0
LINE
  5
489
100
AcDbEntity
  8
newlayer
 62
7
100
AcDbLine
 10
657.897846
 20
160.600195
 30
0.0
 11
657.897846
 21
163.700198
 31
0.0
  0
LINE
  5
48a
100
AcDbEntity
  8
newlayer
 62
7
100
AcDbLine
 10
657.897846
 20
163.700198
 30
0.0
 11
652.930707
 21
163.700198
 31
0.0
  0
LINE
  5
48b
100
AcDbEntity
  8
newlayer
 62
7
100
AcDbLine
 10
652.930707
 20
163.700198
 30
0.0
 11
652.930707
 21
160.600195
 31
0.0
  0
LINE
  5
48c
100
AcDbEntity
  8
newlayer
 62
7
100
AcDbLine
 10
652.930707
 20
160.600195
 30
0.0
 11
647.783566
 21
160.600195
 31
0.0
  0
LINE
  5
48d
100
AcDbEntity
  8
newlayer
 62
7
100
AcDbLine
 10
647.783566
 20
160.600195
 30
0.0
 11
647.783566
 21
163.700198
 31
0.0
  0
LINE
  5
48e
100
AcDbEntity
  8
newlayer
 62
7
100
AcDbLine
 10
647.783566
 20
163.700198
 30
0.0
 11
642.816427
 21
163.700198
 31
0.0
  0
LINE
  5
48f
100
AcDbEntity
  8
newlayer
 62
7
100
AcDbLine
 10
642.816427
 20
163.700198
 30
0.0
 11
642.816427
 21
160.600195
 31
0.0
  0
LINE
  5
490
100
AcDbEntity
  8
newlayer
 62
7
100
AcDbLine
 10
642.816427
 20
160.600195
 30
0.0
 11
637.669286
 21
160.600195
 31
0.0
  0
LINE
  5
491
100
AcDbEntity
  8
newlayer
 62
7
100
AcDbLine
 10
637.669286
 20
160.600195
 30
0.0
 11
637.669286
 21
163.700198
 31
0.0
  0
LINE
  5
492
100
AcDbEntity
  8
newlayer
 62
7
100
AcDbLine
 10
637.669286
 20
163.700198
 30
0.0
 11
632.702147
 21
163.700198
 31
0.0
  0
LINE
  5
493
100
AcDbEntity
  8
newlayer
 62
7
100
AcDbLine
 10
632.702147
 20
163.700198
 30
0.0
 11
632.702147
 21
160.600195
 31
0.0
  0
LINE
  5
494
100
AcDbEntity
  8
newlayer
 62
7
100
AcDbLine
 10
632.702147
 20
160.600195
 30
0.0
 11
627.555006
 21
160.600195
 31
0.0
  0
LINE
  5
495
100
AcDbEntity
  8
newlayer
 62
7
100
AcDbLine
 10
627.555006
 20
160.600195
 30
0.0
 11
627.555006
 21
163.700198
 31
0.0
  0
LINE
  5
496
100
AcDbEntity
  8
newlayer
 62
7
100
AcDbLine
 10
627.555006
 20
163.700198
 30
0.0
 11
622.587867
 21
163.700198
 31
0.0
  0
LINE
  5
497
100
AcDbEntity
  8
newlayer
 62
7
100
AcDbLine
 10
622.587867
 20
163.700198
 30
0.0
 11
622.587867
 21
160.600195
 31
0.0
  0
LINE
  5
498
100
AcDbEntity
  8
newlayer
 62
7
100
AcDbLine
 10
622.587867
 20
160.600195
 30
0.0
 11
617.440726
 21
160.600195
 31
0.0
  0
LINE
  5
499
100
AcDbEntity
  8
newlayer
 62
7
100
AcDbLine
 10
617.440726
 20
160.600195
 30
0.0
 11
617.440726
 21
163.700198
 31
0.0
  0
LINE
  5
49a
100
AcDbEntity
  8
newlayer
 62
7
100
AcDbLine
 10
617.440726
 20
163.700198
 30
0.0
 11
612.473558
 21
163.700198
 31
0.0
  0
LINE
  5
49b
100
AcDbEntity
  8
newlayer
 62
7
100
AcDbLine
 10
612.473558
 20
163.700198
 30
0.0
 11
612.473558
 21
160.600195
 31
0.0
  0
LINE
  5
49c
100
AcDbEntity
  8
newlayer
 62
7
100
AcDbLine
 10
612.473558
 20
160.600195
 30
0.0
 11
607.326418
 21
160.600195
 31
0.0
  0
LINE
  5
49d
100
AcDbEntity
  8
newlayer
 62
7
100
AcDbLine
 10
607.326418
 20
160.600195
 30
0.0
 11
607.326418
 21
163.700198
 31
0.0
  0
LINE
  5
49e
100
AcDbEntity
  8
newlayer
 62
7
100
AcDbLine
 10
607.326418
 20
163.700198
 30
0.0
 11
602.359278
 21
163.700198
 31
0.0
  0
LINE
  5
49f
100
AcDbEntity
  8
newlayer
 62
7
100
AcDbLine
 10
602.359278
 20
163.700198
 30
0.0
 11
602.359278
 21
160.600195
 31
0.0
  0
LINE
  5
4a0
100
AcDbEntity
  8
newlayer
 62
7
100
AcDbLine
 10
602.359278
 20
160.600195
 30
0.0
 11
597.212138
 21
160.600195
 31
0.0
  0
LINE
  5
4a1
100
AcDbEntity
  8
newlayer
 62
7
100
AcDbLine
 10
597.212138
 20
160.600195
 30
0.0
 11
597.212138
 21
163.700198
 31
0.0
  0
LINE
  5
4a2
100
AcDbEntity
  8
newlayer
 62
7
100
AcDbLine
 10
597.212138
 20
163.700198
 30
0.0
 11
595.299998
 21
163.700198
 31
0.0
  0
LINE
  5
4a3
100
AcDbEntity
  8
newlayer
 62
7
100
AcDbLine
 10
595.299998
 20
163.700198
 30
0.0
 11
595.299998
 21
165.599641
 31
0.0
  0
LINE
  5
4a4
100
AcDbEntity
  8
newlayer
 62
7
100
AcDbLine
 10
595.299998
 20
165.599641
 30
0.0
 11
592.200012
 21
165.599641
 31
0.0
  0
LINE
  5
4a5
100
AcDbEntity
  8
newlayer
 62
7
100
AcDbLine
 10
592.200012
 20
165.599641
 30
0.0
 11
592.200012
 21
170.734084
 31
0.0
  0
LINE
  5
4a6
100
AcDbEntity
  8
newlayer
 62
7
100
AcDbLine
 10
592.200012
 20
170.734084
 30
0.0
 11
595.299998
 21
170.734084
 31
0.0
  0
LINE
  5
4a7
100
AcDbEntity
  8
newlayer
 62
7
100
AcDbLine
 10
595.299998
 20
170.734084
 30
0.0
 11
595.299998
 21
175.688529
 31
0.0
  0
LINE
  5
4a8
100
AcDbEntity
  8
newlayer
 62
7
100
AcDbLine
 10
595.299998
 20
175.688529
 30
0.0
 11
592.200012
 21
175.688529
 31
0.0
  0
LINE
  5
4a9
100
AcDbEntity
  8
newlayer
 62
7
100
AcDbLine
 10
592.200012
 20
175.688529
 30
0.0
 11
592.200012
 21
180.822975
 31
0.0
  0
LINE
  5
4aa
100
AcDbEntity
  8
newlayer
 62
7
100
AcDbLine
 10
592.200012
 20
180.822975
 30
0.0
 11
595.299998
 21
180.822975
 31
0.0
  0
LINE
  5
4ab
100
AcDbEntity
  8
newlayer
 62
7
100
AcDbLine
 10
595.299998
 20
180.822975
 30
0.0
 11
595.299998
 21
185.777418
 31
0.0
  0
LINE
  5
4ac
100
AcDbEntity
  8
newlayer
 62
7
100
AcDbLine
 10
595.299998
 20
185.777418
 30
0.0
 11
592.200012
 21
185.777418
 31
0.0
  0
LINE
  5
4ad
100
AcDbEntity
  8
newlayer
 62
7
100
AcDbLine
 10
592.200012
 20
185.777418
 30
0.0
 11
592.200012
 21
190.911864
 31
0.0
  0
LINE
  5
4ae
100
AcDbEntity
  8
newlayer
 62
7
100
AcDbLine
 10
592.200012
 20
190.911864
 30
0.0
 11
595.299998
 21
190.911864
 31
0.0
  0
LINE
  5
4af
100
AcDbEntity
  8
newlayer
 62
7
100
AcDbLine
 10
595.299998
 20
190.911864
 30
0.0
 11
595.299998
 21
195.866309
 31
0.0
  0
LINE
  5
4b0
100
AcDbEntity
  8
newlayer
 62
7
100
AcDbLine
 10
595.299998
 20
195.866309
 30
0.0
 11
592.200012
 21
195.866309
 31
0.0
  0
LINE
  5
4b1
100
AcDbEntity
  8
newlayer
 62
7
100
AcDbLine
 10
592.200012
 20
195.866309
 30
0.0
 11
592.200012
 21
201.000752
 31
0.0
  0
LINE
  5
4b2
100
AcDbEntity
  8
newlayer
 62
7
100
AcDbLine
 10
592.200012
 20
201.000752
 30
0.0
 11
595.299998
 21
201.000752
 31
0.0
  0
LINE
  5
4b3
100
AcDbEntity
  8
newlayer
 62
7
100
AcDbLine
 10
595.299998
 20
201.000752
 30
0.0
 11
595.299998
 21
205.955197
 31
0.0
  0
LINE
  5
4b4
100
AcDbEntity
  8
newlayer
 62
7
100
AcDbLine
 10
595.299998
 20
205.955197
 30
0.0
 11
592.200012
 21
205.955197
 31
0.0
  0
LINE
  5
4b5
100
AcDbEntity
  8
newlayer
 62
7
100
AcDbLine
 10
592.200012
 20
205.955197
 30
0.0
 11
592.200012
 21
211.089641
 31
0.0
  0
LINE
  5
4b6
100
AcDbEntity
  8
newlayer
 62
7
100
AcDbLine
 10
592.200012
 20
211.089641
 30
0.0
 11
595.299998
 21
211.089641
 31
0.0
  0
LINE
  5
4b7
100
AcDbEntity
  8
newlayer
 62
7
100
AcDbLine
 10
595.299998
 20
211.089641
 30
0.0
 11
595.299998
 21
216.044086
 31
0.0
  0
LINE
  5
4b8
100
AcDbEntity
  8
newlayer
 62
7
100
AcDbLine
 10
595.299998
 20
216.044086
 30
0.0
 11
592.200012
 21
216.044086
 31
0.0
  0
LINE
  5
4b9
100
AcDbEntity
  8
newlayer
 62
7
100
AcDbLine
 10
592.200012
 20
216.044086
 30
0.0
 11
592.200012
 21
221.178529
 31
0.0
  0
LINE
  5
4ba
100
AcDbEntity
  8
newlayer
 62
7
100
AcDbLine
 10
592.200012
 20
221.178529
 30
0.0
 11
595.299998
 21
221.178529
 31
0.0
  0
LINE
  5
4bb
100
AcDbEntity
  8
newlayer
 62
7
100
AcDbLine
 10
595.299998
 20
221.178529
 30
0.0
 11
595.299998
 21
226.132974
 31
0.0
  0
LINE
  5
4bc
100
AcDbEntity
  8
newlayer
 62
7
100
AcDbLine
 10
595.299998
 20
226.132974
 30
0.0
 11
592.200012
 21
226.132974
 31
0.0
  0
LINE
  5
4bd
100
AcDbEntity
  8
newlayer
 62
7
100
AcDbLine
 10
592.200012
 20
226.132974
 30
0.0
 11
592.200012
 21
231.267418
 31
0.0
  0
LINE
  5
4be
100
AcDbEntity
  8
newlayer
 62
7
100
AcDbLine
 10
592.200012
 20
231.267418
 30
0.0
 11
595.299998
 21
231.267418
 31
0.0
  0
LINE
  5
4bf
100
AcDbEntity
  8
newlayer
 62
7
100
AcDbLine
 10
595.299998
 20
231.267418
 30
0.0
 11
595.299998
 21
236.221863
 31
0.0
  0
LINE
  5
4c0
100
AcDbEntity
  8
newlayer
 62
7
100
AcDbLine
 10
595.299998
 20
236.221863
 30
0.0
 11
592.200012
 21
236.221863
 31
0.0
  0
LINE
  5
4c1
100
AcDbEntity
  8
newlayer
 62
7
100
AcDbLine
 10
592.200012
 20
236.221863
 30
0.0
 11
592.200012
 21
241.356306
 31
0.0
  0
LINE
  5
4c2
100
AcDbEntity
  8
newlayer
 62
7
100
AcDbLine
 10
592.200012
 20
241.356306
 30
0.0
 11
595.299998
 21
241.356306
 31
0.0
  0
LINE
  5
4c3
100
AcDbEntity
  8
newlayer
 62
7
100
AcDbLine
 10
595.299998
 20
241.356306
 30
0.0
 11
595.299998
 21
246.310751
 31
0.0
  0
LINE
  5
4c4
100
AcDbEntity
  8
newlayer
 62
7
100
AcDbLine
 10
595.299998
 20
246.310751
 30
0.0
 11
592.200012
 21
246.310751
 31
0.0
  0
LINE
  5
4c5
100
AcDbEntity
  8
newlayer
 62
7
100
AcDbLine
 10
592.200012
 20
246.310751
 30
0.0
 11
592.200012
 21
251.445197
 31
0.0
  0
LINE
  5
4c6
100
AcDbEntity
  8
newlayer
 62
7
100
AcDbLine
 10
592.200012
 20
251.445197
 30
0.0
 11
595.299998
 21
251.445197
 31
0.0
  0
LINE
  5
4c7
100
AcDbEntity
  8
newlayer
 62
7
100
AcDbLine
 10
595.299998
 20
251.445197
 30
0.0
 11
595.299998
 21
256.399640
 31
0.0
  0
LINE
  5
4c8
100
AcDbEntity
  8
newlayer
 62
7
100
AcDbLine
 10
595.299998
 20
256.399640
 30
0.0
 11
592.200012
 21
256.399640
 31
0.0
  0
LINE
  5
4c9
100
AcDbEntity
  8
newlayer
 62
7
100
AcDbLine
 10
592.200012
 20
256.399640
 30
0.0
 11
592.200012
 21
261.534086
 31
0.0
  0
LINE
  5
4ca
100
AcDbEntity
  8
newlayer
 62
7
100
AcDbLine
 10
592.200012
 20
261.534086
 30
0.0
 11
595.299998
 21
261.534086
 31
0.0
  0
LINE
  5
4cb
100
AcDbEntity
  8
newlayer
 62
7
100
AcDbLine
 10
595.299998
 20
261.534086
 30
0.0
 11
595.299998
 21
266.488531
 31
0.0
  0
LINE
  5
4cc
100
AcDbEntity
  8
newlayer
 62
7
100
AcDbLine
 10
595.299998
 20
266.488531
 30
0.0
 11
592.200012
 21
266.488531
 31
0.0
  0
LINE
  5
4cd
100
AcDbEntity
  8
newlayer
 62
7
100
AcDbLine
 10
592.200012
 20
266.488531
 30
0.0
 11
592.200012
 21
271.622974
 31
0.0
  0
LINE
  5
4ce
100
AcDbEntity
  8
newlayer
 62
7
100
AcDbLine
 10
592.200012
 20
271.622974
 30
0.0
 11
595.299998
 21
271.622974
 31
0.0
  0
LINE
  5
4cf
100
AcDbEntity
  8
newlayer
 62
7
100
AcDbLine
 10
595.299998
 20
271.622974
 30
0.0
 11
595.299998
 21
276.577419
 31
0.0
  0
LINE
  5
4d0
100
AcDbEntity
  8
newlayer
 62
7
100
AcDbLine
 10
595.299998
 20
276.577419
 30
0.0
 11
592.200012
 21
276.577419
 31
0.0
  0
LINE
  5
4d1
100
AcDbEntity
  8
newlayer
 62
7
100
AcDbLine
 10
592.200012
 20
276.577419
 30
0.0
 11
592.200012
 21
281.711863
 31
0.0
  0
LINE
  5
4d2
100
AcDbEntity
  8
newlayer
 62
7
100
AcDbLine
 10
592.200012
 20
281.711863
 30
0.0
 11
595.299998
 21
281.711863
 31
0.0
  0
LINE
  5
4d3
100
AcDbEntity
  8
newlayer
 62
7
100
AcDbLine
 10
595.299998
 20
281.711863
 30
0.0
 11
595.299998
 21
286.666307
 31
0.0
  0
LINE
  5
4d4
100
AcDbEntity
  8
newlayer
 62
7
100
AcDbLine
 10
595.299998
 20
286.666307
 30
0.0
 11
592.200012
 21
286.666307
 31
0.0
  0
LINE
  5
4d5
100
AcDbEntity
  8
newlayer
 62
7
100
AcDbLine
 10
592.200012
 20
286.666307
 30
0.0
 11
592.200012
 21
291.800752
 31
0.0
  0
LINE
  5
4d6
100
AcDbEntity
  8
newlayer
 62
7
100
AcDbLine
 10
592.200012
 20
291.800752
 30
0.0
 11
595.299998
 21
291.800752
 31
0.0
  0
LINE
  5
4d7
100
AcDbEntity
  8
newlayer
 62
7
100
AcDbLine
 10
595.299998
 20
291.800752
 30
0.0
 11
595.299998
 21
293.700196
 31
0.0
  0
LINE
  5
4d8
100
AcDbEntity
  8
newlayer
 62
7
100
AcDbLine
 10
352.709678
 20
248.742135
 30
0.0
 11
482.709674
 21
248.742135
 31
0.0
  0
LINE
  5
4d9
100
AcDbEntity
  8
newlayer
 62
7
100
AcDbLine
 10
482.709674
 20
248.742135
 30
0.0
 11
482.709674
 21
231.742135
 31
0.0
  0
LINE
  5
4da
100
AcDbEntity
  8
newlayer
 62
7
100
AcDbLine
 10
482.709674
 20
231.742135
 30
0.0
 11
352.709678
 21
231.742135
 31
0.0
  0
LINE
  5
4db
100
AcDbEntity
  8
newlayer
 62
7
100
AcDbLine
 10
352.709678
 20
231.742135
 30
0.0
 11
352.709678
 21
248.742135
 31
0.0
  0
LINE
  5
4dc
100
AcDbEntity
  8
newlayer
 62
7
100
AcDbLine
 10
352.700505
 20
231.683628
 30
0.0
 11
482.700502
 21
231.683628
 31
0.0
  0
LINE
  5
4dd
100
AcDbEntity
  8
newlayer
 62
7
100
AcDbLine
 10
482.700502
 20
231.683628
 30
0.0
 11
482.700502
 21
214.683628
 31
0.0
  0
LINE
  5
4de
100
AcDbEntity
  8
newlayer
 62
7
100
AcDbLine
 10
482.700502
 20
214.683628
 30
0.0
 11
352.700505
 21
214.683628
 31
0.0
  0
LINE
  5
4df
100
AcDbEntity
  8
newlayer
 62
7
100
AcDbLine
 10
352.700505
 20
214.683628
 30
0.0
 11
352.700505
 21
231.683628
 31
0.0
  0
ENDSEC
  0
SECTION
  2
OBJECTS
  0
DICTIONARY
  5
C
330
0
100
AcDbDictionary
  3
ACAD_GROUP
350
D
  3
ACAD_MLINESTYLE
350
17
  0
DICTIONARY
  5
D
330
C
100
AcDbDictionary
  0
DICTIONARY
  5
1A
330
C
100
AcDbDictionary
  0
DICTIONARY
  5
17
330
C
100
AcDbDictionary
  3
STANDARD
350
18
  0
DICTIONARY
  5
19
330
C
100
AcDbDictionary
  0
ENDSEC
  0
EOF
